{
.appVersion = "3219";
DisplayStrings = (
"/foundryicon"
);
classes = (
{
automatic = 1;
code = "A Aacute Acircumflex Adieresis Agrave Aring Atilde AE B C Ccedilla D Eth E Eacute Ecircumflex Edieresis Egrave F G H I Iacute Icircumflex Idieresis Igrave J K L M N Ntilde O Oacute Ocircumflex Odieresis Ograve Oslash Otilde OE P Thorn Q R S T U Uacute Ucircumflex Udieresis Ugrave V W X Y Yacute Z";
name = Uppercase;
}
);
copyright = "Copyright 2009 Svetlana Sebyakina (http://sebyakina.com), Copyright 2011 Cyreal (http://cyreal.org) with Reserved Font Name \"Alike\"";
customParameters = (
{
name = license;
value = "This Font Software is licensed under the SIL Open Font License, Version 1.1. This license is available with a FAQ at: https://scripts.sil.org/OFL";
},
{
name = licenseURL;
value = "http://scripts.sil.org/OFL";
},
{
name = trademark;
value = "Alike is a trademark of Svetlana Sebyakina, Cyreal";
},
{
name = vendorID;
value = CYRE;
},
{
name = note;
value = "Alike is a text typeface with expressive and tense letterforms.\012Its design features are said to have czech influence, but are\012softened for a friendlier feel.\012\012The proportions are regular and the contrast is low for\012a pleasant reading experience.\012\012Designed by Svetlana Sebyakina 2009-2011.\012\012Alike is a Unicode typeface family that supports \012languages that use the Latin script and its variants, and \012could be expanded to support other scripts.";
}
);
date = "2023-09-29 13:00:31 +0000";
designer = "Svetlana Sebyakina";
designerURL = "http://sebyakina.com";
familyName = Alike;
featurePrefixes = (
{
code = "languagesystem DFLT dflt;\012languagesystem grek dflt;\012languagesystem latn dflt;\012\012\012\012\012\012";
name = Languagesystems;
}
);
features = (
{
automatic = 1;
code = "feature sups;\012feature frac;\012feature ordn;\012feature case;\012";
name = aalt;
},
{
automatic = 1;

glyphs = (
{
glyphname = A;
lastChange = "2023-09-29 12:40:24 +0000";
layers = (
{
anchors = (
{
name = top;
position = "{333, 705}";
}
);
layerId = "E67231B9-FA09-451D-8B80-B70CA73DDE32";
paths = (
{
closed = 1;
nodes = (
"435 240 LINE",
"509 50 LINE",
"485 40 OFFCURVE",
"459 34 OFFCURVE",
"429 30 CURVE",
"425 18 OFFCURVE",
"425 7 OFFCURVE",
"427 -5 CURVE",
"464 -3 OFFCURVE",
"534 0 OFFCURVE",
"572 0 CURVE SMOOTH",
"609 0 OFFCURVE",
"658 -3 OFFCURVE",
"694 -5 CURVE",
"700 7 OFFCURVE",
"701 18 OFFCURVE",
"699 30 CURVE",
"622 50 LINE",
"351 727 LINE",
"340 727 OFFCURVE",
"322 725 OFFCURVE",
"312 719 CURVE",
"75 50 LINE",
"52 40 OFFCURVE",
"27 34 OFFCURVE",
"-2 30 CURVE",
"-6 18 OFFCURVE",
"-6 7 OFFCURVE",
"-4 -5 CURVE",
"33 -3 OFFCURVE",
"50 0 OFFCURVE",
"88 0 CURVE SMOOTH",
"125 0 OFFCURVE",
"174 -3 OFFCURVE",
"210 -5 CURVE",
"216 7 OFFCURVE",
"217 18 OFFCURVE",
"215 30 CURVE",
"138 50 LINE",
"203 240 LINE"
);
},
{
closed = 1;
nodes = (
"314 580 LINE",
"322 534 OFFCURVE",
"335 491 OFFCURVE",
"358 437 CURVE",
"413 295 LINE",
"221 295 LINE",
"268 432 LINE SMOOTH",
"285 482 OFFCURVE",
"298 532 OFFCURVE",
"312 580 CURVE"
);
}
);
width = 684;
}
);
leftKerningGroup = _KERN_A;
rightKerningGroup = _KERN_A;
unicode = 0041;
},
{
glyphname = Aring;
lastChange = "2023-09-29 12:40:24 +0000";
layers = (
{
associatedMasterId = "E67231B9-FA09-451D-8B80-B70CA73DDE32";
layerId = "DA51D0F6-E92C-4977-9AEE-C0B7DC2D6803";
name = img;
width = 684;
},
{
layerId = "E67231B9-FA09-451D-8B80-B70CA73DDE32";
paths = (
{
closed = 1;
nodes = (
"221 791 OFFCURVE",
"261 729 OFFCURVE",
"311 718 CURVE",
"75 50 LINE",
"52 40 OFFCURVE",
"27 34 OFFCURVE",
"-2 30 CURVE",
"-6 18 OFFCURVE",
"-6 7 OFFCURVE",
"-4 -5 CURVE",
"33 -3 OFFCURVE",
"50 0 OFFCURVE",
"88 0 CURVE SMOOTH",
"125 0 OFFCURVE",
"174 -3 OFFCURVE",
"210 -5 CURVE",
"216 7 OFFCURVE",
"217 18 OFFCURVE",
"215 30 CURVE",
"138 50 LINE",
"203 240 LINE",
"435 240 LINE",
"509 50 LINE",
"485 40 OFFCURVE",
"459 34 OFFCURVE",
"429 30 CURVE",
"425 18 OFFCURVE",
"425 7 OFFCURVE",
"427 -5 CURVE",
"464 -3 OFFCURVE",
"534 0 OFFCURVE",
"572 0 CURVE SMOOTH",
"609 0 OFFCURVE",
"658 -3 OFFCURVE",
"694 -5 CURVE",
"700 7 OFFCURVE",
"701 18 OFFCURVE",
"699 30 CURVE",
"622 50 LINE",
"354 719 LINE",
"403 732 OFFCURVE",
"450 779 OFFCURVE",
"450 820 CURVE SMOOTH",
"450 864 OFFCURVE",
"406 934 OFFCURVE",
"343 934 CURVE SMOOTH",
"288 934 OFFCURVE",
"221 879 OFFCURVE",
"221 833 CURVE SMOOTH"
);
},
{
closed = 1;
nodes = (
"314 580 LINE",
"322 534 OFFCURVE",
"335 491 OFFCURVE",
"358 437 CURVE",
"413 295 LINE",
"221 295 LINE",
"268 432 LINE SMOOTH",
"285 482 OFFCURVE",
"298 532 OFFCURVE",
"312 580 CURVE"
);
},
{
closed = 1;
nodes = (
"279 852 OFFCURVE",
"312 880 OFFCURVE",
"340 880 CURVE SMOOTH",
"371 880 OFFCURVE",
"393 845 OFFCURVE",
"393 823 CURVE SMOOTH",
"393 799 OFFCURVE",
"361 772 OFFCURVE",
"333 772 CURVE SMOOTH",
"303 772 OFFCURVE",
"279 807 OFFCURVE",
"279 830 CURVE SMOOTH"
);
}
);
width = 684;
}
);
leftKerningGroup = _KERN_A;
rightKerningGroup = _KERN_A;
unicode = 00C5;
},
{
glyphname = AE;
lastChange = "2023-09-29 12:40:24 +0000";
layers = (
{
guideLines = (
{
position = "{0, 655}";
}
);
layerId = "E67231B9-FA09-451D-8B80-B70CA73DDE32";
paths = (
{
closed = 1;
nodes = (
"416 295 LINE",
"416 655 LINE",
"412 655 LINE",
"253 295 LINE"
);
},
{
closed = 1;
nodes = (
"416 240 LINE",
"229 240 LINE",
"145 50 LINE",
"222 30 LINE",
"224 18 OFFCURVE",
"223 7 OFFCURVE",
"217 -5 CURVE",
"181 -3 OFFCURVE",
"132 0 OFFCURVE",
"95 0 CURVE SMOOTH",
"57 0 OFFCURVE",
"40 -3 OFFCURVE",
"3 -5 CURVE",
"1 7 OFFCURVE",
"1 18 OFFCURVE",
"5 30 CURVE",
"34 34 OFFCURVE",
"59 40 OFFCURVE",
"82 50 CURVE",
"374 700 LINE",
"831 700 LINE",
"832 641 OFFCURVE",
"830 582 OFFCURVE",
"820 525 CURVE",
"807 520 OFFCURVE",
"800 520 OFFCURVE",
"784 522 CURVE",
"758 655 LINE",
"521 655 LINE",
"521 385 LINE",
"687 385 LINE",
"706 473 LINE",
"718 477 OFFCURVE",
"734 477 OFFCURVE",
"746 468 CURVE",
"743 439 OFFCURVE",
"742 400 OFFCURVE",
"742 361 CURVE SMOOTH",
"742 318 OFFCURVE",
"743 275 OFFCURVE",
"746 243 CURVE",
"734 238 OFFCURVE",
"718 238 OFFCURVE",
"706 241 CURVE",
"687 330 LINE",
"521 330 LINE",
"521 45 LINE",
"788 45 LINE",
"812 178 LINE",
"828 180 OFFCURVE",
"834 180 OFFCURVE",
"847 175 CURVE",
"857 127 OFFCURVE",
"859 79 OFFCURVE",
"859 31 CURVE SMOOTH",
"859 21 OFFCURVE",
"859 10 OFFCURVE",
"859 0 CURVE",
"471 0 LINE SMOOTH",
"433 0 OFFCURVE",
"375 -3 OFFCURVE",
"338 -5 CURVE",
"336 7 OFFCURVE",
"336 18 OFFCURVE",
"340 30 CURVE",
"365 35 OFFCURVE",
"391 40 OFFCURVE",
"416 50 CURVE"
);
}
);
width = 884;
}
);
rightKerningGroup = _KERN_E_1ST;
unicode = 00C6;
},
{
glyphname = B;
lastChange = "2023-09-29 12:40:24 +0000";
layers = (
{
layerId = "E67231B9-FA09-451D-8B80-B70CA73DDE32";
paths = (
{
closed = 1;
nodes = (
"325 -5 LINE",
"462 -5 OFFCURVE",
"593 39 OFFCURVE",
"593 190 CURVE SMOOTH",
"593 317 OFFCURVE",
"501 361 OFFCURVE",
"395 373 CURVE",
"395 375 LINE",
"480 389 OFFCURVE",
"550 451 OFFCURVE",
"550 540 CURVE SMOOTH",
"550 648 OFFCURVE",
"464 702 OFFCURVE",
"301 701 CURVE SMOOTH",
"167 700 LINE SMOOTH",
"130 700 OFFCURVE",
"81 703 OFFCURVE",
"45 705 CURVE",
"39 693 OFFCURVE",
"38 682 OFFCURVE",
"40 670 CURVE",
"117 650 LINE",
"117 50 LINE",
"89 40 OFFCURVE",
"63 34 OFFCURVE",
"37 30 CURVE",
"33 18 OFFCURVE",
"33 7 OFFCURVE",
"35 -5 CURVE",
"72 -3 OFFCURVE",
"134 0 OFFCURVE",
"172 0 CURVE"
);
},
{
closed = 1;
nodes = (
"222 45 LINE",
"222 342 LINE",
"293 342 LINE SMOOTH",
"434 342 OFFCURVE",
"481 297 OFFCURVE",
"481 191 CURVE SMOOTH",
"481 96 OFFCURVE",
"440 40 OFFCURVE",
"313 40 CURVE"
);
},
{
closed = 1;
nodes = (
"222 392 LINE",
"222 652 LINE",
"240 653 OFFCURVE",
"257 654 OFFCURVE",
"272 654 CURVE SMOOTH",
"412 654 OFFCURVE",
"443 606 OFFCURVE",
"443 536 CURVE SMOOTH",
"443 448 OFFCURVE",
"406 392 OFFCURVE",
"280 392 CURVE SMOOTH"
);
}
);
width = 636;
}
);
leftKerningGroup = _KERN_I_2ND;
unicode = 0042;
},
{
glyphname = C;
lastChange = "2023-09-29 12:40:24 +0000";
layers = (
{
anchors = (
{
name = bottom;
position = "{378, 0}";
}
);
layerId = "E67231B9-FA09-451D-8B80-B70CA73DDE32";
paths = (
{
closed = 1;
nodes = (
"541 66 OFFCURVE",
"481 33 OFFCURVE",
"398 33 CURVE SMOOTH",
"241 33 OFFCURVE",
"160 162 OFFCURVE",
"160 350 CURVE SMOOTH",
"160 528 OFFCURVE",
"263 667 OFFCURVE",
"404 667 CURVE SMOOTH",
"452 667 OFFCURVE",
"489 663 OFFCURVE",
"533 645 CURVE",
"544 516 LINE",
"557 510 OFFCURVE",
"575 509 OFFCURVE",
"588 511 CURVE",
"607 562 OFFCURVE",
"622 614 OFFCURVE",
"619 675 CURVE",
"566 704 OFFCURVE",
"494 720 OFFCURVE",
"397 720 CURVE SMOOTH",
"232 720 OFFCURVE",
"44 603 OFFCURVE",
"44 350 CURVE SMOOTH",
"44 95 OFFCURVE",
"209 -20 OFFCURVE",
"387 -20 CURVE SMOOTH",
"475 -20 OFFCURVE",
"553 15 OFFCURVE",
"615 76 CURVE",
"614 91 OFFCURVE",
"609 104 OFFCURVE",
"592 109 CURVE"
);
}
);
width = 646;
}
);
leftKerningGroup = _KERN_O_2ND;
rightKerningGroup = _KERN_C_1ST;
unicode = 0043;
},
{
glyphname = Ccedilla;
lastChange = "2023-09-29 12:40:24 +0000";
layers = (
{
associatedMasterId = "E67231B9-FA09-451D-8B80-B70CA73DDE32";
layerId = "DA51D0F6-E92C-4977-9AEE-C0B7DC2D6803";
name = img;
width = 647;
},
{
layerId = "E67231B9-FA09-451D-8B80-B70CA73DDE32";
paths = (
{
closed = 1;
nodes = (
"370 -19 LINE",
"376 -19 OFFCURVE",
"382 -20 OFFCURVE",
"388 -20 CURVE SMOOTH",
"476 -20 OFFCURVE",
"554 15 OFFCURVE",
"616 76 CURVE",
"615 91 OFFCURVE",
"610 104 OFFCURVE",
"593 109 CURVE",
"542 66 OFFCURVE",
"482 33 OFFCURVE",
"399 33 CURVE SMOOTH",
"242 33 OFFCURVE",
"161 162 OFFCURVE",
"161 350 CURVE SMOOTH",
"161 528 OFFCURVE",
"264 667 OFFCURVE",
"405 667 CURVE SMOOTH",
"453 667 OFFCURVE",
"490 663 OFFCURVE",
"534 645 CURVE",
"545 516 LINE",
"558 510 OFFCURVE",
"576 509 OFFCURVE",
"589 511 CURVE",
"608 562 OFFCURVE",
"623 614 OFFCURVE",
"620 675 CURVE",
"567 704 OFFCURVE",
"495 721 OFFCURVE",
"398 721 CURVE SMOOTH",
"233 721 OFFCURVE",
"45 603 OFFCURVE",
"45 350 CURVE SMOOTH",
"45 122 OFFCURVE",
"176 6 OFFCURVE",
"330 -16 CURVE",
"332 -85 LINE",
"388 -85 OFFCURVE",
"422 -106 OFFCURVE",
"422 -143 CURVE SMOOTH",
"422 -168 OFFCURVE",
"392 -193 OFFCURVE",
"348 -193 CURVE SMOOTH",
"331 -193 OFFCURVE",
"311 -190 OFFCURVE",
"288 -181 CURVE",
"279 -188 OFFCURVE",
"274 -197 OFFCURVE",
"273 -210 CURVE",
"298 -219 OFFCURVE",
"332 -223 OFFCURVE",
"354 -223 CURVE SMOOTH",
"440 -223 OFFCURVE",
"490 -178 OFFCURVE",
"490 -121 CURVE SMOOTH",
"490 -65 OFFCURVE",
"452 -36 OFFCURVE",
"373 -36 CURVE"
);
}
);
width = 647;
}
);
leftKerningGroup = _KERN_O_2ND;
rightKerningGroup = _KERN_C_1ST;
unicode = 00C7;
},
{
glyphname = D;
lastChange = "2023-09-29 12:40:24 +0000";
layers = (
{
layerId = "E67231B9-FA09-451D-8B80-B70CA73DDE32";
paths = (
{
closed = 1;
nodes = (
"297 -7 LINE",
"499 -7 OFFCURVE",
"692 85 OFFCURVE",
"692 360 CURVE SMOOTH",
"692 558 OFFCURVE",
"581 704 OFFCURVE",
"297 704 CURVE",
"167 700 LINE",
"130 700 OFFCURVE",
"81 703 OFFCURVE",
"45 705 CURVE",
"39 693 OFFCURVE",
"38 682 OFFCURVE",
"40 670 CURVE",
"117 650 LINE",
"117 50 LINE",
"91 40 OFFCURVE",
"65 34 OFFCURVE",
"37 30 CURVE",
"33 18 OFFCURVE",
"33 7 OFFCURVE",
"35 -5 CURVE",
"72 -3 OFFCURVE",
"134 0 OFFCURVE",
"172 0 CURVE"
);
},
{
closed = 1;
nodes = (
"222 655 LINE",
"240 656 OFFCURVE",
"257 657 OFFCURVE",
"273 657 CURVE SMOOTH",
"500 657 OFFCURVE",
"581 552 OFFCURVE",
"581 360 CURVE SMOOTH",
"581 144 OFFCURVE",
"504 42 OFFCURVE",
"288 42 CURVE SMOOTH",
"267 42 OFFCURVE",
"245 43 OFFCURVE",
"222 45 CURVE"
);
}
);
width = 739;
}
);
leftKerningGroup = _KERN_I_2ND;
rightKerningGroup = _KERN_D_1ST;
unicode = 0044;
},
{
glyphname = Eth;
lastChange = "2023-09-29 12:40:24 +0000";
layers = (
{
layerId = "E67231B9-FA09-451D-8B80-B70CA73DDE32";
paths = (
{
closed = 1;
nodes = (
"297 -7 LINE",
"499 -7 OFFCURVE",
"692 85 OFFCURVE",
"692 360 CURVE SMOOTH",
"692 558 OFFCURVE",
"581 704 OFFCURVE",
"297 704 CURVE",
"167 700 LINE",
"130 700 OFFCURVE",
"81 703 OFFCURVE",
"45 705 CURVE",
"39 693 OFFCURVE",
"38 682 OFFCURVE",
"40 670 CURVE",
"117 650 LINE",
"117 395 LINE",
"48 395 LINE",
"41 387 OFFCURVE",
"35 354 OFFCURVE",
"37 340 CURVE",
"117 340 LINE",
"117 50 LINE",
"91 40 OFFCURVE",
"65 34 OFFCURVE",
"37 30 CURVE",
"33 18 OFFCURVE",
"33 7 OFFCURVE",
"35 -5 CURVE",
"72 -3 OFFCURVE",
"134 0 OFFCURVE",
"172 0 CURVE"
);
},
{
closed = 1;
nodes = (
"222 340 LINE",
"400 340 LINE",
"407 351 OFFCURVE",
"411 377 OFFCURVE",
"411 395 CURVE",
"222 395 LINE",
"222 655 LINE",
"240 656 OFFCURVE",
"257 657 OFFCURVE",
"273 657 CURVE SMOOTH",
"500 657 OFFCURVE",
"581 552 OFFCURVE",
"581 360 CURVE SMOOTH",
"581 144 OFFCURVE",
"504 42 OFFCURVE",
"288 42 CURVE SMOOTH",
"267 42 OFFCURVE",
"245 43 OFFCURVE",
"222 45 CURVE"
);
}
);
width = 740;
}
);
leftKerningGroup = _KERN_I_2ND;
rightKerningGroup = _KERN_D_1ST;
unicode = 00D0;
},
{
glyphname = E;
lastChange = "2023-09-29 12:40:24 +0000";
layers = (
{
anchors = (
{
name = top;
position = "{322, 705}";
}
);
guideLines = (
{
position = "{0, 385}";
},
{
position = "{0, 330}";
},
{
angle = 90;
position = "{373, 0}";
}
);
layerId = "E67231B9-FA09-451D-8B80-B70CA73DDE32";
paths = (
{
closed = 1;
nodes = (
"408 330 LINE",
"427 241 LINE",
"439 238 OFFCURVE",
"455 238 OFFCURVE",
"467 243 CURVE",
"464 275 OFFCURVE",
"463 318 OFFCURVE",
"463 361 CURVE SMOOTH",
"463 400 OFFCURVE",
"464 439 OFFCURVE",
"467 468 CURVE",
"455 477 OFFCURVE",
"439 477 OFFCURVE",
"427 473 CURVE",
"408 385 LINE",
"222 385 LINE",
"222 655 LINE",
"479 655 LINE",
"505 522 LINE",
"521 520 OFFCURVE",
"528 520 OFFCURVE",
"541 525 CURVE",
"551 582 OFFCURVE",
"553 641 OFFCURVE",
"552 700 CURVE",
"167 700 LINE SMOOTH",
"130 700 OFFCURVE",
"81 703 OFFCURVE",
"45 705 CURVE",
"39 693 OFFCURVE",
"38 682 OFFCURVE",
"40 670 CURVE",
"117 650 LINE",
"117 50 LINE",
"92 40 OFFCURVE",
"66 35 OFFCURVE",
"41 30 CURVE",
"37 18 OFFCURVE",
"37 7 OFFCURVE",
"39 -5 CURVE",
"76 -3 OFFCURVE",
"134 0 OFFCURVE",
"172 0 CURVE SMOOTH",
"580 0 LINE",
"580 10 OFFCURVE",
"580 21 OFFCURVE",
"580 31 CURVE SMOOTH",
"580 79 OFFCURVE",
"578 127 OFFCURVE",
"568 175 CURVE",
"555 180 OFFCURVE",
"549 180 OFFCURVE",
"533 178 CURVE",
"512 45 LINE",
"222 45 LINE",
"222 330 LINE"
);
}
);
width = 625;
}
);
leftKerningGroup = _KERN_I_2ND;
rightKerningGroup = _KERN_E_1ST;
unicode = 0045;
},
{
glyphname = F;
lastChange = "2023-09-29 12:40:24 +0000";
layers = (
{
layerId = "E67231B9-FA09-451D-8B80-B70CA73DDE32";
paths = (
{
closed = 1;
nodes = (
"222 340 LINE",
"379 340 LINE",
"398 251 LINE",
"410 248 OFFCURVE",
"426 248 OFFCURVE",
"438 253 CURVE",
"435 285 OFFCURVE",
"434 328 OFFCURVE",
"434 371 CURVE SMOOTH",
"434 410 OFFCURVE",
"435 449 OFFCURVE",
"438 478 CURVE",
"426 487 OFFCURVE",
"410 487 OFFCURVE",
"398 483 CURVE",
"379 395 LINE",
"222 395 LINE",
"222 655 LINE",
"470 655 LINE",
"495 522 LINE",
"511 520 OFFCURVE",
"518 520 OFFCURVE",
"531 525 CURVE",
"538 569 OFFCURVE",
"543 614 OFFCURVE",
"543 661 CURVE SMOOTH",
"543 674 OFFCURVE",
"543 687 OFFCURVE",
"542 700 CURVE",
"167 700 LINE SMOOTH",
"130 700 OFFCURVE",
"81 703 OFFCURVE",
"45 705 CURVE",
"39 693 OFFCURVE",
"38 682 OFFCURVE",
"40 670 CURVE",
"117 650 LINE",
"117 50 LINE",
"92 37 OFFCURVE",
"71 35 OFFCURVE",
"49 30 CURVE",
"45 18 OFFCURVE",
"45 7 OFFCURVE",
"47 -5 CURVE",
"84 -3 OFFCURVE",
"129 0 OFFCURVE",
"167 0 CURVE SMOOTH",
"204 0 OFFCURVE",
"276 -3 OFFCURVE",
"312 -5 CURVE",
"318 7 OFFCURVE",
"319 18 OFFCURVE",
"317 30 CURVE",
"222 49 LINE"
);
}
);
width = 561;
}
);
leftKerningGroup = _KERN_I_2ND;
unicode = 0046;
},
{
glyphname = G;
lastChange = "2023-09-29 12:40:24 +0000";
layers = (
{
layerId = "E67231B9-FA09-451D-8B80-B70CA73DDE32";
paths = (
{
closed = 1;
nodes = (
"620 250 LINE",
"646 263 OFFCURVE",
"671 267 OFFCURVE",
"697 270 CURVE",
"697 274 OFFCURVE",
"698 277 OFFCURVE",
"698 281 CURVE SMOOTH",
"698 289 OFFCURVE",
"696 297 OFFCURVE",
"692 305 CURVE",
"656 303 OFFCURVE",
"606 300 OFFCURVE",
"569 300 CURVE SMOOTH",
"532 300 OFFCURVE",
"479 303 OFFCURVE",
"443 305 CURVE",
"439 297 OFFCURVE",
"437 289 OFFCURVE",
"437 281 CURVE SMOOTH",
"437 277 OFFCURVE",
"437 274 OFFCURVE",
"438 270 CURVE",
"515 250 LINE",
"515 58 LINE",
"474 41 OFFCURVE",
"443 33 OFFCURVE",
"397 33 CURVE SMOOTH",
"240 33 OFFCURVE",
"160 166 OFFCURVE",
"160 350 CURVE SMOOTH",
"160 523 OFFCURVE",
"254 668 OFFCURVE",
"417 668 CURVE SMOOTH",
"455 668 OFFCURVE",
"502 659 OFFCURVE",
"544 643 CURVE",
"555 507 LINE",
"564 503 OFFCURVE",
"575 501 OFFCURVE",
"586 501 CURVE SMOOTH",
"590 501 OFFCURVE",
"595 501 OFFCURVE",
"599 502 CURVE",
"617 560 OFFCURVE",
"630 618 OFFCURVE",
"630 677 CURVE",
"564 709 OFFCURVE",
"493 720 OFFCURVE",
"424 720 CURVE SMOOTH",
"203 720 OFFCURVE",
"44 583 OFFCURVE",
"44 350 CURVE SMOOTH",
"44 100 OFFCURVE",
"202 -20 OFFCURVE",
"378 -20 CURVE SMOOTH",
"459 -20 OFFCURVE",
"544 5 OFFCURVE",
"620 49 CURVE"
);
}
);
width = 716;
}
);
leftKerningGroup = _KERN_O_2ND;
unicode = 0047;
},
{
glyphname = H;
lastChange = "2023-09-29 12:40:24 +0000";
layers = (
{
layerId = "E67231B9-FA09-451D-8B80-B70CA73DDE32";
paths = (
{
closed = 1;
nodes = (
"662 650 LINE",
"689 660 OFFCURVE",
"715 665 OFFCURVE",
"742 670 CURVE",
"746 682 OFFCURVE",
"746 693 OFFCURVE",
"744 705 CURVE",
"707 703 OFFCURVE",
"645 700 OFFCURVE",
"607 700 CURVE SMOOTH",
"570 700 OFFCURVE",
"521 703 OFFCURVE",
"485 705 CURVE",
"479 693 OFFCURVE",
"478 682 OFFCURVE",
"480 670 CURVE",
"557 650 LINE",
"557 395 LINE",
"222 395 LINE",
"222 650 LINE",
"249 660 OFFCURVE",
"275 665 OFFCURVE",
"302 670 CURVE",
"306 682 OFFCURVE",
"306 693 OFFCURVE",
"304 705 CURVE",
"267 703 OFFCURVE",
"205 700 OFFCURVE",
"167 700 CURVE SMOOTH",
"130 700 OFFCURVE",
"81 703 OFFCURVE",
"45 705 CURVE",
"39 693 OFFCURVE",
"38 682 OFFCURVE",
"40 670 CURVE",
"117 650 LINE",
"117 50 LINE",
"92 40 OFFCURVE",
"65 35 OFFCURVE",
"37 30 CURVE",
"33 18 OFFCURVE",
"33 7 OFFCURVE",
"35 -5 CURVE",
"72 -3 OFFCURVE",
"134 0 OFFCURVE",
"172 0 CURVE SMOOTH",
"209 0 OFFCURVE",
"258 -3 OFFCURVE",
"294 -5 CURVE",
"300 7 OFFCURVE",
"301 18 OFFCURVE",
"299 30 CURVE",
"222 50 LINE",
"222 340 LINE",
"557 340 LINE",
"557 50 LINE",
"531 40 OFFCURVE",
"505 34 OFFCURVE",
"477 30 CURVE",
"473 18 OFFCURVE",
"473 7 OFFCURVE",
"475 -5 CURVE",
"512 -3 OFFCURVE",
"574 0 OFFCURVE",
"612 0 CURVE SMOOTH",
"649 0 OFFCURVE",
"698 -3 OFFCURVE",
"734 -5 CURVE",
"740 7 OFFCURVE",
"741 18 OFFCURVE",
"739 30 CURVE",
"662 50 LINE"
);
}
);
width = 779;
}
);
leftKerningGroup = _KERN_I_2ND;
rightKerningGroup = _KERN_I_1ST;
unicode = 0048;
},
{
glyphname = I;
lastChange = "2023-09-29 12:40:24 +0000";
layers = (
{
anchors = (
{
name = top;
position = "{169, 706}";
}
);
layerId = "E67231B9-FA09-451D-8B80-B70CA73DDE32";
paths = (
{
closed = 1;
nodes = (
"222 650 LINE",
"249 660 OFFCURVE",
"275 665 OFFCURVE",
"302 670 CURVE",
"306 682 OFFCURVE",
"306 693 OFFCURVE",
"304 705 CURVE",
"267 703 OFFCURVE",
"205 700 OFFCURVE",
"167 700 CURVE SMOOTH",
"130 700 OFFCURVE",
"81 703 OFFCURVE",
"45 705 CURVE",
"39 693 OFFCURVE",
"38 682 OFFCURVE",
"40 670 CURVE",
"117 650 LINE",
"117 50 LINE",
"92 38 OFFCURVE",
"65 34 OFFCURVE",
"37 30 CURVE",
"33 18 OFFCURVE",
"33 7 OFFCURVE",
"35 -5 CURVE",
"72 -3 OFFCURVE",
"134 0 OFFCURVE",
"172 0 CURVE SMOOTH",
"209 0 OFFCURVE",
"258 -3 OFFCURVE",
"294 -5 CURVE",
"300 7 OFFCURVE",
"301 18 OFFCURVE",
"299 30 CURVE",
"222 50 LINE"
);
}
);
width = 339;
}
);
leftKerningGroup = _KERN_I_2ND;
rightKerningGroup = _KERN_I_1ST;
unicode = 0049;
},
{
glyphname = J;
lastChange = "2023-09-29 12:40:24 +0000";
layers = (
{
layerId = "E67231B9-FA09-451D-8B80-B70CA73DDE32";
paths = (
{
closed = 1;
nodes = (
"111 139 LINE SMOOTH",
"111 32 OFFCURVE",
"70 -40 OFFCURVE",
"-9 -81 CURVE",
"-9 -91 OFFCURVE",
"2 -105 OFFCURVE",
"11 -106 CURVE",
"148 -53 OFFCURVE",
"216 22 OFFCURVE",
"216 139 CURVE SMOOTH",
"216 650 LINE",
"243 662 OFFCURVE",
"269 666 OFFCURVE",
"296 670 CURVE",
"300 682 OFFCURVE",
"300 693 OFFCURVE",
"298 705 CURVE",
"261 703 OFFCURVE",
"199 700 OFFCURVE",
"161 700 CURVE SMOOTH",
"124 700 OFFCURVE",
"75 703 OFFCURVE",
"39 705 CURVE",
"33 693 OFFCURVE",
"32 682 OFFCURVE",
"34 670 CURVE",
"111 650 LINE"
);
}
);
width = 324;
}
);
unicode = 004A;
},
{
glyphname = K;
lastChange = "2023-09-29 12:40:24 +0000";
layers = (
{
layerId = "E67231B9-FA09-451D-8B80-B70CA73DDE32";
paths = (
{
closed = 1;
nodes = (
"542 628 LINE",
"569 658 OFFCURVE",
"624 668 OFFCURVE",
"646 670 CURVE",
"650 682 OFFCURVE",
"650 693 OFFCURVE",
"648 705 CURVE",
"611 703 OFFCURVE",
"582 700 OFFCURVE",
"544 700 CURVE SMOOTH",
"507 700 OFFCURVE",
"456 703 OFFCURVE",
"420 705 CURVE",
"414 693 OFFCURVE",
"413 682 OFFCURVE",
"415 670 CURVE",
"444 666 OFFCURVE",
"471 662 OFFCURVE",
"492 650 CURVE",
"260 365 LINE",
"222 365 LINE",
"222 650 LINE",
"246 661 OFFCURVE",
"273 667 OFFCURVE",
"302 670 CURVE",
"306 682 OFFCURVE",
"306 693 OFFCURVE",
"304 705 CURVE",
"267 703 OFFCURVE",
"205 700 OFFCURVE",
"167 700 CURVE SMOOTH",
"130 700 OFFCURVE",
"81 703 OFFCURVE",
"45 705 CURVE",
"39 693 OFFCURVE",
"38 682 OFFCURVE",
"40 670 CURVE",
"117 650 LINE",
"117 50 LINE",
"90 40 OFFCURVE",
"64 34 OFFCURVE",
"37 30 CURVE",
"33 18 OFFCURVE",
"33 7 OFFCURVE",
"35 -5 CURVE",
"72 -3 OFFCURVE",
"134 0 OFFCURVE",
"172 0 CURVE SMOOTH",
"209 0 OFFCURVE",
"258 -3 OFFCURVE",
"294 -5 CURVE",
"300 7 OFFCURVE",
"301 18 OFFCURVE",
"299 30 CURVE",
"222 50 LINE",
"222 310 LINE",
"288 310 LINE",
"480 50 LINE",
"455 37 OFFCURVE",
"428 33 OFFCURVE",
"400 30 CURVE",
"396 18 OFFCURVE",
"396 7 OFFCURVE",
"398 -5 CURVE",
"435 -3 OFFCURVE",
"512 0 OFFCURVE",
"550 0 CURVE SMOOTH",
"587 0 OFFCURVE",
"636 -3 OFFCURVE",
"672 -5 CURVE",
"678 7 OFFCURVE",
"679 18 OFFCURVE",
"677 30 CURVE",
"652 32 OFFCURVE",
"594 44 OFFCURVE",
"581 62 CURVE SMOOTH",
"340 389 LINE"
);
}
);
width = 666;
}
);
leftKerningGroup = _KERN_I_2ND;
unicode = 004B;
},
{
glyphname = L;
lastChange = "2023-09-29 12:40:24 +0000";
layers = (
{
layerId = "E67231B9-FA09-451D-8B80-B70CA73DDE32";
paths = (
{
closed = 1;
nodes = (
"222 55 LINE",
"222 650 LINE",
"249 664 OFFCURVE",
"275 667 OFFCURVE",
"302 670 CURVE",
"306 682 OFFCURVE",
"306 693 OFFCURVE",
"304 705 CURVE",
"267 703 OFFCURVE",
"205 700 OFFCURVE",
"167 700 CURVE SMOOTH",
"130 700 OFFCURVE",
"81 703 OFFCURVE",
"45 705 CURVE",
"39 693 OFFCURVE",
"38 682 OFFCURVE",
"40 670 CURVE",
"117 650 LINE",
"117 50 LINE",
"97 41 OFFCURVE",
"70 36 OFFCURVE",
"41 30 CURVE",
"37 18 OFFCURVE",
"37 7 OFFCURVE",
"39 -5 CURVE",
"76 -3 OFFCURVE",
"134 0 OFFCURVE",
"172 0 CURVE SMOOTH",
"535 0 LINE",
"535 58 OFFCURVE",
"533 117 OFFCURVE",
"525 175 CURVE",
"512 180 OFFCURVE",
"505 180 OFFCURVE",
"489 178 CURVE",
"462 55 LINE"
);
}
);
width = 548;
}
);
leftKerningGroup = _KERN_I_2ND;
unicode = 004C;
},
{
glyphname = M;
lastChange = "2023-09-29 12:40:24 +0000";
layers = (
{
guideLines = (
{
position = "{0, 570}";
},
{
position = "{0, 590}";
},
{
position = "{0, 488}";
}
);
layerId = "E67231B9-FA09-451D-8B80-B70CA73DDE32";
paths = (
{
closed = 1;
nodes = (
"494 265 LINE SMOOTH",
"479 226 OFFCURVE",
"468 189 OFFCURVE",
"457 147 CURVE",
"455 147 LINE",
"445 188 OFFCURVE",
"436 224 OFFCURVE",
"419 265 CURVE",
"256 680 LINE",
"256 700 LINE",
"191 700 LINE SMOOTH",
"154 700 OFFCURVE",
"105 703 OFFCURVE",
"69 705 CURVE",
"63 693 OFFCURVE",
"62 682 OFFCURVE",
"64 670 CURVE",
"141 650 LINE",
"101 50 LINE",
"76 40 OFFCURVE",
"50 34 OFFCURVE",
"23 30 CURVE",
"19 18 OFFCURVE",
"19 7 OFFCURVE",
"21 -5 CURVE",
"58 -3 OFFCURVE",
"90 0 OFFCURVE",
"128 0 CURVE SMOOTH",
"165 0 OFFCURVE",
"197 -4 OFFCURVE",
"233 -6 CURVE",
"239 6 OFFCURVE",
"240 17 OFFCURVE",
"238 29 CURVE",
"161 49 LINE",
"186 487 LINE",
"189 590 LINE",
"192 590 LINE",
"203 552 OFFCURVE",
"213 518 OFFCURVE",
"225 488 CURVE SMOOTH",
"422 21 LINE",
"434 20 OFFCURVE",
"446 24 OFFCURVE",
"458 31 CURVE",
"639 488 LINE SMOOTH",
"652 522 OFFCURVE",
"662 556 OFFCURVE",
"671 590 CURVE",
"674 590 LINE",
"673 575 OFFCURVE",
"673 559 OFFCURVE",
"673 544 CURVE SMOOTH",
"673 525 OFFCURVE",
"673 507 OFFCURVE",
"675 488 CURVE SMOOTH",
"717 50 LINE",
"696 37 OFFCURVE",
"666 35 OFFCURVE",
"637 30 CURVE",
"633 18 OFFCURVE",
"633 7 OFFCURVE",
"635 -5 CURVE",
"672 -3 OFFCURVE",
"734 0 OFFCURVE",
"772 0 CURVE SMOOTH",
"809 0 OFFCURVE",
"858 -3 OFFCURVE",
"894 -5 CURVE",
"900 7 OFFCURVE",
"901 18 OFFCURVE",
"899 30 CURVE",
"822 50 LINE",
"772 650 LINE",
"796 660 OFFCURVE",
"823 665 OFFCURVE",
"852 670 CURVE",
"856 682 OFFCURVE",
"856 693 OFFCURVE",
"854 705 CURVE",
"817 703 OFFCURVE",
"755 700 OFFCURVE",
"717 700 CURVE SMOOTH",
"657 700 LINE",
"657 680 LINE"
);
}
);
width = 918;
}
);
unicode = 004D;
},
{
glyphname = N;
lastChange = "2023-09-29 12:40:24 +0000";
layers = (
{
anchors = (
{
name = top;
position = "{373, 705}";
}
);
layerId = "E67231B9-FA09-451D-8B80-B70CA73DDE32";
paths = (
{
closed = 1;
nodes = (
"206 700 LINE",
"166 700 LINE SMOOTH",
"129 700 OFFCURVE",
"80 703 OFFCURVE",
"44 705 CURVE",
"38 693 OFFCURVE",
"37 682 OFFCURVE",
"39 670 CURVE",
"116 650 LINE",
"116 50 LINE",
"91 41 OFFCURVE",
"65 34 OFFCURVE",
"38 30 CURVE",
"34 18 OFFCURVE",
"34 7 OFFCURVE",
"36 -5 CURVE",
"73 -3 OFFCURVE",
"100 0 OFFCURVE",
"138 0 CURVE SMOOTH",
"175 0 OFFCURVE",
"207 -4 OFFCURVE",
"243 -6 CURVE",
"249 6 OFFCURVE",
"250 17 OFFCURVE",
"248 29 CURVE",
"171 50 LINE",
"171 472 LINE SMOOTH",
"171 501 OFFCURVE",
"171 539 OFFCURVE",
"166 570 CURVE",
"169 570 LINE",
"189 535 OFFCURVE",
"206 503 OFFCURVE",
"228 475 CURVE SMOOTH",
"626 -30 LINE",
"634 -27 OFFCURVE",
"641 -23 OFFCURVE",
"646 -20 CURVE",
"646 650 LINE",
"673 660 OFFCURVE",
"699 665 OFFCURVE",
"726 670 CURVE",
"730 682 OFFCURVE",
"730 693 OFFCURVE",
"728 705 CURVE",
"691 703 OFFCURVE",
"656 700 OFFCURVE",
"618 700 CURVE SMOOTH",
"581 700 OFFCURVE",
"554 703 OFFCURVE",
"518 705 CURVE",
"512 693 OFFCURVE",
"511 682 OFFCURVE",
"513 670 CURVE",
"590 650 LINE",
"591 249 LINE SMOOTH",
"591 211 OFFCURVE",
"595 185 OFFCURVE",
"597 153 CURVE",
"594 153 LINE",
"578 188 OFFCURVE",
"562 222 OFFCURVE",
"540 251 CURVE SMOOTH",
"231 648 LINE"
);
}
);
width = 757;
}
);
leftKerningGroup = _KERN_I_2ND;
rightKerningGroup = _KERN_N_1ST;
unicode = 004E;
},
{
glyphname = O;
lastChange = "2023-09-29 12:40:24 +0000";
layers = (
{
anchors = (
{
name = top;
position = "{373, 705}";
}
);
layerId = "E67231B9-FA09-451D-8B80-B70CA73DDE32";
paths = (
{
closed = 1;
nodes = (
"44 130 OFFCURVE",
"172 -20 OFFCURVE",
"375 -20 CURVE SMOOTH",
"578 -20 OFFCURVE",
"709 130 OFFCURVE",
"709 351 CURVE SMOOTH",
"709 565 OFFCURVE",
"578 720 OFFCURVE",
"375 720 CURVE SMOOTH",
"172 720 OFFCURVE",
"44 565 OFFCURVE",
"44 351 CURVE SMOOTH"
);
},
{
closed = 1;
nodes = (
"594 180 OFFCURVE",
"530 26 OFFCURVE",
"386 26 CURVE SMOOTH",
"233 26 OFFCURVE",
"159 181 OFFCURVE",
"159 342 CURVE SMOOTH",
"159 513 OFFCURVE",
"218 674 OFFCURVE",
"372 674 CURVE SMOOTH",
"517 674 OFFCURVE",
"594 515 OFFCURVE",
"594 358 CURVE SMOOTH"
);
}
);
width = 753;
}
);
leftKerningGroup = _KERN_O_2ND;
rightKerningGroup = _KERN_O_1ST;
unicode = 004F;
},
{
glyphname = Oslash;
lastChange = "2023-09-29 12:40:24 +0000";
layers = (
{
layerId = "E67231B9-FA09-451D-8B80-B70CA73DDE32";
paths = (
{
closed = 1;
nodes = (
"40 213 OFFCURVE",
"88 111 OFFCURVE",
"167 47 CURVE",
"118 -40 LINE",
"135 -47 OFFCURVE",
"151 -50 OFFCURVE",
"179 -50 CURVE",
"215 16 LINE",
"259 -7 OFFCURVE",
"311 -20 OFFCURVE",
"370 -20 CURVE SMOOTH",
"570 -20 OFFCURVE",
"705 130 OFFCURVE",
"705 351 CURVE SMOOTH",
"705 489 OFFCURVE",
"656 583 OFFCURVE",
"579 649 CURVE",
"641 755 LINE",
"631 764 OFFCURVE",
"611 767 OFFCURVE",
"582 765 CURVE",
"532 681 LINE",
"486 707 OFFCURVE",
"430 720 OFFCURVE",
"370 720 CURVE SMOOTH",
"170 720 OFFCURVE",
"40 565 OFFCURVE",
"40 351 CURVE SMOOTH"
);
},
{
closed = 1;
nodes = (
"155 513 OFFCURVE",
"217 674 OFFCURVE",
"367 674 CURVE SMOOTH",
"417 674 OFFCURVE",
"460 656 OFFCURVE",
"493 623 CURVE",
"214 120 LINE",
"176 179 OFFCURVE",
"155 260 OFFCURVE",
"155 342 CURVE SMOOTH"
);
},
{
closed = 1;
nodes = (
"590 180 OFFCURVE",
"522 26 OFFCURVE",
"381 26 CURVE SMOOTH",
"329 26 OFFCURVE",
"288 44 OFFCURVE",
"254 74 CURVE",
"532 577 LINE",
"568 517 OFFCURVE",
"590 436 OFFCURVE",
"590 358 CURVE SMOOTH"
);
}
);
width = 743;
}
);
leftKerningGroup = _KERN_O_2ND;
rightKerningGroup = _KERN_O_1ST;
unicode = 00D8;
},
{
glyphname = OE;
lastChange = "2023-09-29 12:40:24 +0000";
layers = (
{
guideLines = (
{
angle = 90;
position = "{586, 0}";
}
);
layerId = "E67231B9-FA09-451D-8B80-B70CA73DDE32";
paths = (
{
closed = 1;
nodes = (
"44 130 OFFCURVE",
"172 -20 OFFCURVE",
"375 -20 CURVE SMOOTH",
"463 -20 OFFCURVE",
"533 10 OFFCURVE",
"584 63 CURVE",
"584 0 LINE",
"1037 0 LINE",
"1037 10 OFFCURVE",
"1037 21 OFFCURVE",
"1037 31 CURVE SMOOTH",
"1037 79 OFFCURVE",
"1035 127 OFFCURVE",
"1025 175 CURVE",
"1012 180 OFFCURVE",
"1006 180 OFFCURVE",
"990 178 CURVE",
"969 45 LINE",
"679 45 LINE",
"679 330 LINE",
"865 330 LINE",
"884 241 LINE",
"896 238 OFFCURVE",
"912 238 OFFCURVE",
"924 243 CURVE",
"921 275 OFFCURVE",
"920 318 OFFCURVE",
"920 361 CURVE SMOOTH",
"920 400 OFFCURVE",
"921 439 OFFCURVE",
"924 468 CURVE",
"912 477 OFFCURVE",
"896 477 OFFCURVE",
"884 473 CURVE",
"865 385 LINE",
"679 385 LINE",
"679 655 LINE",
"936 655 LINE",
"962 522 LINE",
"978 520 OFFCURVE",
"985 520 OFFCURVE",
"998 525 CURVE",
"1008 582 OFFCURVE",
"1010 641 OFFCURVE",
"1009 700 CURVE",
"584 700 LINE",
"584 635 LINE",
"533 688 OFFCURVE",
"463 720 OFFCURVE",
"375 720 CURVE SMOOTH",
"172 720 OFFCURVE",
"44 565 OFFCURVE",
"44 351 CURVE SMOOTH"
);
},
{
closed = 1;
nodes = (
"584 344 LINE",
"581 172 OFFCURVE",
"519 26 OFFCURVE",
"386 26 CURVE SMOOTH",
"233 26 OFFCURVE",
"159 181 OFFCURVE",
"159 342 CURVE SMOOTH",
"159 513 OFFCURVE",
"218 674 OFFCURVE",
"372 674 CURVE SMOOTH",
"510 674 OFFCURVE",
"584 515 OFFCURVE",
"584 358 CURVE"
);
}
);
width = 1082;
}
);
leftKerningGroup = _KERN_O_2ND;
rightKerningGroup = _KERN_E_1ST;
unicode = 0152;
},
{
glyphname = P;
lastChange = "2023-09-29 12:40:24 +0000";
layers = (
{
layerId = "E67231B9-FA09-451D-8B80-B70CA73DDE32";
paths = (
{
closed = 1;
nodes = (
"418 279 OFFCURVE",
"567 339 OFFCURVE",
"567 502 CURVE SMOOTH",
"567 631 OFFCURVE",
"468 709 OFFCURVE",
"302 709 CURVE SMOOTH",
"268 709 OFFCURVE",
"226 700 OFFCURVE",
"167 700 CURVE SMOOTH",
"130 700 OFFCURVE",
"81 703 OFFCURVE",
"45 705 CURVE",
"39 693 OFFCURVE",
"38 682 OFFCURVE",
"40 670 CURVE",
"117 650 LINE",
"117 50 LINE",
"93 38 OFFCURVE",
"66 34 OFFCURVE",
"37 30 CURVE",
"33 18 OFFCURVE",
"33 7 OFFCURVE",
"35 -5 CURVE",
"72 -3 OFFCURVE",
"134 0 OFFCURVE",
"172 0 CURVE SMOOTH",
"209 0 OFFCURVE",
"278 -3 OFFCURVE",
"314 -5 CURVE",
"320 7 OFFCURVE",
"321 18 OFFCURVE",
"319 30 CURVE",
"222 50 LINE",
"222 282 LINE",
"239 281 OFFCURVE",
"258 279 OFFCURVE",
"276 279 CURVE SMOOTH"
);
},
{
closed = 1;
nodes = (
"387 664 OFFCURVE",
"460 601 OFFCURVE",
"460 496 CURVE SMOOTH",
"460 374 OFFCURVE",
"382 325 OFFCURVE",
"284 325 CURVE SMOOTH",
"265 325 OFFCURVE",
"243 327 OFFCURVE",
"222 331 CURVE",
"222 655 LINE",
"247 661 OFFCURVE",
"272 664 OFFCURVE",
"295 664 CURVE SMOOTH"
);
}
);
width = 590;
}
);
leftKerningGroup = _KERN_I_2ND;
unicode = 0050;
},
{
glyphname = Thorn;
lastChange = "2023-09-29 12:40:24 +0000";
layers = (
{
associatedMasterId = "E67231B9-FA09-451D-8B80-B70CA73DDE32";
layerId = "37E99AEB-8AF4-41FE-81C5-9E9421C04E2B";
name = public.background;
width = 574;
},
{
layerId = "E67231B9-FA09-451D-8B80-B70CA73DDE32";
paths = (
{
closed = 1;
nodes = (
"222 650 LINE",
"249 660 OFFCURVE",
"275 665 OFFCURVE",
"302 670 CURVE",
"306 682 OFFCURVE",
"306 693 OFFCURVE",
"304 705 CURVE",
"267 703 OFFCURVE",
"205 700 OFFCURVE",
"167 700 CURVE SMOOTH",
"130 700 OFFCURVE",
"81 703 OFFCURVE",
"45 705 CURVE",
"39 693 OFFCURVE",
"38 682 OFFCURVE",
"40 670 CURVE",
"117 650 LINE",
"117 50 LINE",
"92 38 OFFCURVE",
"65 34 OFFCURVE",
"37 30 CURVE",
"33 18 OFFCURVE",
"33 7 OFFCURVE",
"35 -5 CURVE",
"72 -3 OFFCURVE",
"134 0 OFFCURVE",
"172 0 CURVE SMOOTH",
"209 0 OFFCURVE",
"268 -3 OFFCURVE",
"304 -5 CURVE",
"310 7 OFFCURVE",
"311 18 OFFCURVE",
"309 30 CURVE",
"222 50 LINE",
"222 150 LINE",
"233 149 OFFCURVE",
"246 149 OFFCURVE",
"258 149 CURVE SMOOTH",
"400 149 OFFCURVE",
"549 208 OFFCURVE",
"549 371 CURVE SMOOTH",
"549 500 OFFCURVE",
"439 574 OFFCURVE",
"273 574 CURVE",
"222 571 LINE"
);
},
{
closed = 1;
nodes = (
"369 533 OFFCURVE",
"434 470 OFFCURVE",
"434 365 CURVE SMOOTH",
"434 261 OFFCURVE",
"364 194 OFFCURVE",
"266 194 CURVE SMOOTH",
"252 194 OFFCURVE",
"237 195 OFFCURVE",
"222 198 CURVE",
"222 526 LINE",
"241 530 OFFCURVE",
"259 533 OFFCURVE",
"277 533 CURVE SMOOTH"
);
}
);
width = 574;
}
);
leftKerningGroup = _KERN_I_2ND;
unicode = 00DE;
},
{
glyphname = Q;
lastChange = "2023-09-29 12:40:24 +0000";
layers = (
{
layerId = "E67231B9-FA09-451D-8B80-B70CA73DDE32";
paths = (
{
closed = 1;
nodes = (
"44 141 OFFCURVE",
"159 -5 OFFCURVE",
"345 -19 CURVE",
"430 -104 OFFCURVE",
"558 -208 OFFCURVE",
"663 -208 CURVE SMOOTH",
"718 -208 OFFCURVE",
"779 -165 OFFCURVE",
"816 -133 CURVE",
"817 -128 OFFCURVE",
"807 -112 OFFCURVE",
"804 -111 CURVE",
"785 -120 OFFCURVE",
"754 -128 OFFCURVE",
"721 -128 CURVE SMOOTH",
"611 -128 OFFCURVE",
"510 -85 OFFCURVE",
"425 -16 CURVE",
"599 6 OFFCURVE",
"709 149 OFFCURVE",
"709 351 CURVE SMOOTH",
"709 565 OFFCURVE",
"578 720 OFFCURVE",
"375 720 CURVE SMOOTH",
"172 720 OFFCURVE",
"44 565 OFFCURVE",
"44 351 CURVE SMOOTH"
);
},
{
closed = 1;
nodes = (
"594 180 OFFCURVE",
"530 26 OFFCURVE",
"386 26 CURVE SMOOTH",
"233 26 OFFCURVE",
"159 181 OFFCURVE",
"159 342 CURVE SMOOTH",
"159 513 OFFCURVE",
"218 674 OFFCURVE",
"372 674 CURVE SMOOTH",
"517 674 OFFCURVE",
"594 515 OFFCURVE",
"594 358 CURVE SMOOTH"
);
}
);
width = 743;
}
);
leftKerningGroup = _KERN_O_2ND;
rightKerningGroup = _KERN_O_1ST;
unicode = 0051;
},
{
glyphname = R;
lastChange = "2023-09-29 12:40:24 +0000";
layers = (
{
layerId = "E67231B9-FA09-451D-8B80-B70CA73DDE32";
paths = (
{
closed = 1;
nodes = (
"222 315 LINE",
"238 314 OFFCURVE",
"255 313 OFFCURVE",
"272 313 CURVE SMOOTH",
"295 313 OFFCURVE",
"317 314 OFFCURVE",
"339 316 CURVE",
"413 167 OFFCURVE",
"433 83 OFFCURVE",
"472 37 CURVE SMOOTH",
"501 2 OFFCURVE",
"536 -15 OFFCURVE",
"581 -15 CURVE SMOOTH",
"593 -15 OFFCURVE",
"636 -14 OFFCURVE",
"647 0 CURVE",
"648 11 OFFCURVE",
"648 21 OFFCURVE",
"641 32 CURVE",
"629 31 LINE",
"559 31 OFFCURVE",
"553 64 OFFCURVE",
"446 300 CURVE SMOOTH",
"441 311 OFFCURVE",
"433 326 OFFCURVE",
"424 332 CURVE",
"424 336 LINE",
"513 366 OFFCURVE",
"561 421 OFFCURVE",
"561 512 CURVE SMOOTH",
"561 641 OFFCURVE",
"453 715 OFFCURVE",
"281 706 CURVE",
"187 700 LINE SMOOTH",
"144 698 OFFCURVE",
"81 703 OFFCURVE",
"45 705 CURVE",
"39 693 OFFCURVE",
"38 682 OFFCURVE",
"40 670 CURVE",
"117 650 LINE",
"117 50 LINE",
"91 39 OFFCURVE",
"65 33 OFFCURVE",
"37 30 CURVE",
"33 18 OFFCURVE",
"33 7 OFFCURVE",
"35 -5 CURVE",
"72 -3 OFFCURVE",
"134 0 OFFCURVE",
"172 0 CURVE SMOOTH",
"209 0 OFFCURVE",
"258 -3 OFFCURVE",
"294 -5 CURVE",
"300 7 OFFCURVE",
"301 18 OFFCURVE",
"299 30 CURVE",
"222 50 LINE"
);
},
{
closed = 1;
nodes = (
"463 413 OFFCURVE",
"398 354 OFFCURVE",
"282 354 CURVE SMOOTH",
"263 354 OFFCURVE",
"243 356 OFFCURVE",
"222 361 CURVE",
"222 649 LINE",
"248 656 OFFCURVE",
"272 660 OFFCURVE",
"295 660 CURVE SMOOTH",
"388 660 OFFCURVE",
"463 607 OFFCURVE",
"463 506 CURVE SMOOTH"
);
}
);
width = 652;
}
);
leftKerningGroup = _KERN_I_2ND;
unicode = 0052;
},
{
glyphname = S;
lastChange = "2023-09-29 12:40:24 +0000";
layers = (
{
layerId = "E67231B9-FA09-451D-8B80-B70CA73DDE32";
paths = (
{
closed = 1;
nodes = (
"381 -19 OFFCURVE",
"512 43 OFFCURVE",
"512 174 CURVE SMOOTH",
"512 299 OFFCURVE",
"445 340 OFFCURVE",
"290 409 CURVE SMOOTH",
"166 464 OFFCURVE",
"147 496 OFFCURVE",
"147 553 CURVE SMOOTH",
"147 636 OFFCURVE",
"224 668 OFFCURVE",
"303 668 CURVE SMOOTH",
"334 668 OFFCURVE",
"365 663 OFFCURVE",
"393 655 CURVE",
"404 522 LINE",
"413 518 OFFCURVE",
"424 516 OFFCURVE",
"435 516 CURVE SMOOTH",
"439 516 OFFCURVE",
"444 516 OFFCURVE",
"448 517 CURVE",
"467 570 OFFCURVE",
"481 625 OFFCURVE",
"479 686 CURVE",
"428 706 OFFCURVE",
"368 716 OFFCURVE",
"309 716 CURVE SMOOTH",
"177 716 OFFCURVE",
"52 662 OFFCURVE",
"52 536 CURVE SMOOTH",
"52 453 OFFCURVE",
"68 391 OFFCURVE",
"213 328 CURVE SMOOTH",
"391 250 OFFCURVE",
"407 216 OFFCURVE",
"407 146 CURVE SMOOTH",
"407 58 OFFCURVE",
"315 37 OFFCURVE",
"243 37 CURVE SMOOTH",
"198 37 OFFCURVE",
"160 46 OFFCURVE",
"135 52 CURVE",
"119 185 LINE",
"110 189 OFFCURVE",
"98 191 OFFCURVE",
"88 191 CURVE SMOOTH",
"83 191 OFFCURVE",
"79 190 OFFCURVE",
"75 190 CURVE",
"57 131 OFFCURVE",
"49 73 OFFCURVE",
"49 16 CURVE",
"104 -10 OFFCURVE",
"182 -19 OFFCURVE",
"258 -19 CURVE SMOOTH"
);
}
);
width = 545;
}
);
unicode = 0053;
},
{
glyphname = T;
lastChange = "2023-09-29 12:40:24 +0000";
layers = (
{
layerId = "E67231B9-FA09-451D-8B80-B70CA73DDE32";
paths = (
{
closed = 1;
nodes = (
"256 50 LINE",
"231 41 OFFCURVE",
"206 34 OFFCURVE",
"176 30 CURVE",
"172 18 OFFCURVE",
"172 7 OFFCURVE",
"174 -5 CURVE",
"211 -3 OFFCURVE",
"273 0 OFFCURVE",
"311 0 CURVE SMOOTH",
"348 0 OFFCURVE",
"403 -3 OFFCURVE",
"439 -5 CURVE",
"445 7 OFFCURVE",
"446 18 OFFCURVE",
"444 30 CURVE",
"361 50 LINE",
"361 655 LINE",
"526 655 LINE",
"555 512 LINE",
"571 510 OFFCURVE",
"582 510 OFFCURVE",
"595 515 CURVE",
"603 577 OFFCURVE",
"608 638 OFFCURVE",
"606 700 CURVE",
"21 700 LINE",
"19 632 OFFCURVE",
"25 572 OFFCURVE",
"31 515 CURVE",
"44 510 OFFCURVE",
"55 510 OFFCURVE",
"71 512 CURVE",
"100 655 LINE",
"256 655 LINE"
);
}
);
width = 623;
}
);
unicode = 0054;
},
{
glyphname = U;
lastChange = "2023-09-29 12:40:24 +0000";
layers = (
{
anchors = (
{
name = top;
position = "{397, 704}";
}
);
layerId = "E67231B9-FA09-451D-8B80-B70CA73DDE32";
paths = (
{
closed = 1;
nodes = (
"641 650 LINE",
"662 660 OFFCURVE",
"689 665 OFFCURVE",
"721 670 CURVE",
"725 682 OFFCURVE",
"725 693 OFFCURVE",
"723 705 CURVE",
"686 703 OFFCURVE",
"654 700 OFFCURVE",
"616 700 CURVE SMOOTH",
"579 700 OFFCURVE",
"550 703 OFFCURVE",
"514 705 CURVE",
"508 693 OFFCURVE",
"507 682 OFFCURVE",
"509 670 CURVE",
"586 650 LINE",
"586 305 LINE SMOOTH",
"586 180 OFFCURVE",
"582 30 OFFCURVE",
"407 30 CURVE SMOOTH",
"277 30 OFFCURVE",
"206 92 OFFCURVE",
"206 235 CURVE SMOOTH",
"206 650 LINE",
"233 662 OFFCURVE",
"259 666 OFFCURVE",
"286 670 CURVE",
"290 682 OFFCURVE",
"290 693 OFFCURVE",
"288 705 CURVE",
"251 703 OFFCURVE",
"189 700 OFFCURVE",
"151 700 CURVE SMOOTH",
"114 700 OFFCURVE",
"65 703 OFFCURVE",
"29 705 CURVE",
"23 693 OFFCURVE",
"22 682 OFFCURVE",
"24 670 CURVE",
"101 650 LINE",
"101 265 LINE SMOOTH",
"101 32 OFFCURVE",
"202 -20 OFFCURVE",
"382 -20 CURVE SMOOTH",
"551 -20 OFFCURVE",
"641 35 OFFCURVE",
"641 275 CURVE SMOOTH"
);
}
);
width = 745;
}
);
leftKerningGroup = _KERN_U;
rightKerningGroup = _KERN_U;
unicode = 0055;
},
{
glyphname = V;
lastChange = "2023-09-29 12:40:24 +0000";
layers = (
{
layerId = "E67231B9-FA09-451D-8B80-B70CA73DDE32";
paths = (
{
closed = 1;
nodes = (
"605 650 LINE",
"628 661 OFFCURVE",
"659 666 OFFCURVE",
"687 670 CURVE",
"691 682 OFFCURVE",
"691 693 OFFCURVE",
"689 705 CURVE",
"652 703 OFFCURVE",
"619 700 OFFCURVE",
"581 700 CURVE SMOOTH",
"544 700 OFFCURVE",
"514 703 OFFCURVE",
"478 705 CURVE",
"472 693 OFFCURVE",
"471 682 OFFCURVE",
"473 670 CURVE",
"550 650 LINE",
"417 267 LINE",
"401 217 OFFCURVE",
"385 165 OFFCURVE",
"371 117 CURVE",
"369 117 LINE",
"361 163 OFFCURVE",
"347 207 OFFCURVE",
"327 262 CURVE SMOOTH",
"182 650 LINE",
"208 660 OFFCURVE",
"234 666 OFFCURVE",
"262 670 CURVE",
"266 682 OFFCURVE",
"266 693 OFFCURVE",
"264 705 CURVE",
"227 703 OFFCURVE",
"165 700 OFFCURVE",
"127 700 CURVE SMOOTH",
"90 700 OFFCURVE",
"26 703 OFFCURVE",
"-10 705 CURVE",
"-16 693 OFFCURVE",
"-17 682 OFFCURVE",
"-15 670 CURVE",
"62 650 LINE",
"329 -30 LINE",
"341 -30 OFFCURVE",
"355 -26 OFFCURVE",
"365 -20 CURVE"
);
}
);
width = 673;
}
);
unicode = 0056;
},
{
glyphname = W;
lastChange = "2023-09-29 12:40:24 +0000";
layers = (
{
guideLines = (
{
position = "{0, 390}";
},
{
position = "{0, 262}";
},
{
position = "{0, 106}";
}
);
layerId = "E67231B9-FA09-451D-8B80-B70CA73DDE32";
paths = (
{
closed = 1;
nodes = (
"363 254 LINE",
"344 199 OFFCURVE",
"328 146 OFFCURVE",
"320 95 CURVE",
"318 95 LINE",
"309 146 OFFCURVE",
"292 205 OFFCURVE",
"278 257 CURVE SMOOTH",
"173 650 LINE",
"200 661 OFFCURVE",
"228 667 OFFCURVE",
"257 670 CURVE",
"261 682 OFFCURVE",
"261 693 OFFCURVE",
"259 705 CURVE",
"222 703 OFFCURVE",
"160 700 OFFCURVE",
"122 700 CURVE SMOOTH",
"85 700 OFFCURVE",
"21 703 OFFCURVE",
"-15 705 CURVE",
"-21 693 OFFCURVE",
"-22 682 OFFCURVE",
"-20 670 CURVE",
"57 650 LINE",
"278 -30 LINE",
"290 -30 OFFCURVE",
"315 -26 OFFCURVE",
"325 -20 CURVE",
"488 487 LINE",
"674 -30 LINE",
"686 -30 OFFCURVE",
"715 -26 OFFCURVE",
"725 -20 CURVE",
"910 650 LINE",
"937 660 OFFCURVE",
"965 665 OFFCURVE",
"992 670 CURVE",
"996 682 OFFCURVE",
"996 693 OFFCURVE",
"994 705 CURVE",
"957 703 OFFCURVE",
"925 700 OFFCURVE",
"887 700 CURVE SMOOTH",
"850 700 OFFCURVE",
"810 703 OFFCURVE",
"774 705 CURVE",
"768 693 OFFCURVE",
"767 682 OFFCURVE",
"769 670 CURVE",
"856 650 LINE",
"754 262 LINE SMOOTH",
"740 211 OFFCURVE",
"726 156 OFFCURVE",
"717 106 CURVE",
"715 106 LINE",
"707 152 OFFCURVE",
"687 215 OFFCURVE",
"672 262 CURVE SMOOTH",
"548 650 LINE",
"575 664 OFFCURVE",
"602 665 OFFCURVE",
"629 670 CURVE",
"633 682 OFFCURVE",
"633 693 OFFCURVE",
"631 705 CURVE",
"594 703 OFFCURVE",
"532 700 OFFCURVE",
"494 700 CURVE SMOOTH",
"457 700 OFFCURVE",
"393 703 OFFCURVE",
"357 705 CURVE",
"351 693 OFFCURVE",
"350 682 OFFCURVE",
"352 670 CURVE",
"429 650 LINE",
"460 564 LINE"
);
}
);
width = 992;
}
);
unicode = 0057;
},
{
glyphname = X;
lastChange = "2023-09-29 12:40:24 +0000";
layers = (
{
layerId = "E67231B9-FA09-451D-8B80-B70CA73DDE32";
paths = (
{
closed = 1;
nodes = (
"575 650 LINE",
"601 661 OFFCURVE",
"635 668 OFFCURVE",
"657 670 CURVE",
"661 682 OFFCURVE",
"661 693 OFFCURVE",
"659 705 CURVE",
"622 703 OFFCURVE",
"590 700 OFFCURVE",
"552 700 CURVE SMOOTH",
"515 700 OFFCURVE",
"482 703 OFFCURVE",
"446 705 CURVE",
"440 693 OFFCURVE",
"439 682 OFFCURVE",
"441 670 CURVE",
"518 650 LINE",
"354 422 LINE",
"212 650 LINE",
"234 660 OFFCURVE",
"264 665 OFFCURVE",
"293 670 CURVE",
"297 682 OFFCURVE",
"297 693 OFFCURVE",
"295 705 CURVE",
"258 703 OFFCURVE",
"193 700 OFFCURVE",
"155 700 CURVE SMOOTH",
"118 700 OFFCURVE",
"54 703 OFFCURVE",
"18 705 CURVE",
"12 693 OFFCURVE",
"11 682 OFFCURVE",
"13 670 CURVE",
"90 650 LINE",
"285 343 LINE",
"74 50 LINE",
"50 38 OFFCURVE",
"23 34 OFFCURVE",
"-6 30 CURVE",
"-10 18 OFFCURVE",
"-10 7 OFFCURVE",
"-8 -5 CURVE",
"29 -3 OFFCURVE",
"56 0 OFFCURVE",
"94 0 CURVE SMOOTH",
"131 0 OFFCURVE",
"173 -3 OFFCURVE",
"209 -5 CURVE",
"215 7 OFFCURVE",
"216 18 OFFCURVE",
"214 30 CURVE",
"137 50 LINE",
"312 299 LINE",
"471 50 LINE",
"449 42 OFFCURVE",
"422 36 OFFCURVE",
"390 30 CURVE",
"386 18 OFFCURVE",
"386 7 OFFCURVE",
"388 -5 CURVE",
"425 -3 OFFCURVE",
"502 0 OFFCURVE",
"540 0 CURVE SMOOTH",
"577 0 OFFCURVE",
"637 -3 OFFCURVE",
"673 -5 CURVE",
"679 7 OFFCURVE",
"680 18 OFFCURVE",
"678 30 CURVE",
"653 32 OFFCURVE",
"603 40 OFFCURVE",
"585 58 CURVE",
"382 381 LINE"
);
}
);
width = 671;
}
);
unicode = 0058;
},
{
glyphname = Y;
lastChange = "2023-09-29 12:40:24 +0000";
layers = (
{
anchors = (
{
name = top;
position = "{334, 705}";
}
);
layerId = "E67231B9-FA09-451D-8B80-B70CA73DDE32";
paths = (
{
closed = 1;
nodes = (
"384 321 LINE",
"576 650 LINE",
"601 662 OFFCURVE",
"633 666 OFFCURVE",
"661 670 CURVE",
"665 682 OFFCURVE",
"665 693 OFFCURVE",
"663 705 CURVE",
"626 703 OFFCURVE",
"594 700 OFFCURVE",
"556 700 CURVE SMOOTH",
"519 700 OFFCURVE",
"479 703 OFFCURVE",
"443 705 CURVE",
"437 693 OFFCURVE",
"436 682 OFFCURVE",
"438 670 CURVE",
"515 650 LINE",
"349 366 LINE",
"345 366 LINE",
"180 650 LINE",
"207 663 OFFCURVE",
"234 666 OFFCURVE",
"261 670 CURVE",
"265 682 OFFCURVE",
"265 693 OFFCURVE",
"263 705 CURVE",
"226 703 OFFCURVE",
"161 700 OFFCURVE",
"123 700 CURVE SMOOTH",
"86 700 OFFCURVE",
"28 703 OFFCURVE",
"-8 705 CURVE",
"-14 693 OFFCURVE",
"-15 682 OFFCURVE",
"-13 670 CURVE",
"64 650 LINE",
"279 301 LINE",
"279 50 LINE",
"252 37 OFFCURVE",
"226 34 OFFCURVE",
"199 30 CURVE",
"195 18 OFFCURVE",
"195 7 OFFCURVE",
"197 -5 CURVE",
"234 -3 OFFCURVE",
"296 0 OFFCURVE",
"334 0 CURVE SMOOTH",
"371 0 OFFCURVE",
"430 -3 OFFCURVE",
"466 -5 CURVE",
"472 7 OFFCURVE",
"473 18 OFFCURVE",
"471 30 CURVE",
"384 50 LINE"
);
}
);
width = 655;
}
);
leftKerningGroup = _KERN_Y;
rightKerningGroup = _KERN_Y;
unicode = 0059;
},
{
glyphname = Z;
lastChange = "2023-09-29 12:40:24 +0000";
layers = (
{
guideLines = (
{
position = "{0, 45}";
}
);
layerId = "E67231B9-FA09-451D-8B80-B70CA73DDE32";
paths = (
{
closed = 1;
nodes = (
"552 0 LINE",
"552 10 OFFCURVE",
"552 19 OFFCURVE",
"552 29 CURVE SMOOTH",
"552 82 OFFCURVE",
"551 134 OFFCURVE",
"542 185 CURVE",
"529 190 OFFCURVE",
"518 190 OFFCURVE",
"502 188 CURVE",
"473 45 LINE",
"154 45 LINE",
"547 660 LINE",
"550 672 OFFCURVE",
"550 686 OFFCURVE",
"547 700 CURVE",
"51 700 LINE",
"51 638 OFFCURVE",
"56 577 OFFCURVE",
"61 515 CURVE",
"74 510 OFFCURVE",
"85 510 OFFCURVE",
"101 512 CURVE",
"130 655 LINE",
"431 655 LINE",
"34 45 LINE",
"31 30 OFFCURVE",
"32 15 OFFCURVE",
"34 0 CURVE"
);
}
);
width = 595;
}
);
unicode = 005A;
},
{
glyphname = a;
lastChange = "2023-09-29 12:40:24 +0000";
layers = (
{
anchors = (
{
name = top;
position = "{241, 505}";
}
);
layerId = "E67231B9-FA09-451D-8B80-B70CA73DDE32";
paths = (
{
closed = 1;
nodes = (
"130 201 OFFCURVE",
"180 230 OFFCURVE",
"317 230 CURVE",
"317 95 LINE",
"297 65 OFFCURVE",
"247 38 OFFCURVE",
"210 38 CURVE SMOOTH",
"162 38 OFFCURVE",
"130 65 OFFCURVE",
"130 120 CURVE SMOOTH"
);
},
{
closed = 1;
nodes = (
"415 317 LINE SMOOTH",
"415 475 OFFCURVE",
"368 520 OFFCURVE",
"257 520 CURVE SMOOTH",
"182 520 OFFCURVE",
"122 509 OFFCURVE",
"59 480 CURVE",
"58 439 OFFCURVE",
"67 394 OFFCURVE",
"79 350 CURVE",
"89 348 OFFCURVE",
"112 349 OFFCURVE",
"123 354 CURVE",
"136 460 LINE",
"166 471 OFFCURVE",
"196 475 OFFCURVE",
"230 475 CURVE SMOOTH",
"290 475 OFFCURVE",
"319 432 OFFCURVE",
"318 358 CURVE SMOOTH",
"317 270 LINE",
"176 273 OFFCURVE",
"30 244 OFFCURVE",
"30 110 CURVE SMOOTH",
"30 25 OFFCURVE",
"92 -17 OFFCURVE",
"172 -17 CURVE SMOOTH",
"239 -17 OFFCURVE",
"287 10 OFFCURVE",
"321 45 CURVE",
"325 45 LINE",
"339 -7 LINE",
"355 -11 OFFCURVE",
"375 -13 OFFCURVE",
"396 -13 CURVE SMOOTH",
"427 -13 OFFCURVE",
"459 -10 OFFCURVE",
"480 -6 CURVE",
"486 6 OFFCURVE",
"487 17 OFFCURVE",
"485 29 CURVE",
"462 35 OFFCURVE",
"438 38 OFFCURVE",
"415 49 CURVE"
);
}
);
width = 496;
}
);
leftKerningGroup = _KERN_a_2ND;
rightKerningGroup = _KERN_a_1ST;
unicode = 0061;
},
{
glyphname = ae;
lastChange = "2023-09-29 12:40:24 +0000";
layers = (
{
layerId = "E67231B9-FA09-451D-8B80-B70CA73DDE32";
paths = (
{
closed = 1;
nodes = (
"425 270 LINE",
"736 267 LINE",
"750 278 LINE",
"751 287 OFFCURVE",
"752 295 OFFCURVE",
"752 304 CURVE SMOOTH",
"752 429 OFFCURVE",
"692 520 OFFCURVE",
"567 520 CURVE SMOOTH",
"486 520 OFFCURVE",
"425 487 OFFCURVE",
"390 427 CURVE",
"372 487 OFFCURVE",
"333 520 OFFCURVE",
"257 520 CURVE SMOOTH",
"182 520 OFFCURVE",
"122 509 OFFCURVE",
"59 480 CURVE",
"59 438 OFFCURVE",
"66 394 OFFCURVE",
"79 350 CURVE",
"89 348 OFFCURVE",
"112 349 OFFCURVE",
"123 354 CURVE",
"136 460 LINE",
"166 471 OFFCURVE",
"196 475 OFFCURVE",
"230 475 CURVE SMOOTH",
"293 475 OFFCURVE",
"319 430 OFFCURVE",
"318 356 CURVE SMOOTH",
"317 270 LINE",
"176 273 OFFCURVE",
"30 242 OFFCURVE",
"30 108 CURVE SMOOTH",
"30 29 OFFCURVE",
"97 -21 OFFCURVE",
"177 -21 CURVE SMOOTH",
"259 -21 OFFCURVE",
"322 11 OFFCURVE",
"363 81 CURVE",
"407 16 OFFCURVE",
"481 -20 OFFCURVE",
"572 -20 CURVE SMOOTH",
"638 -20 OFFCURVE",
"695 9 OFFCURVE",
"734 57 CURVE",
"733 67 OFFCURVE",
"728 76 OFFCURVE",
"716 81 CURVE",
"663 45 OFFCURVE",
"640 37 OFFCURVE",
"575 37 CURVE SMOOTH",
"482 37 OFFCURVE",
"425 115 OFFCURVE",
"425 250 CURVE SMOOTH"
);
},
{
closed = 1;
nodes = (
"130 199 OFFCURVE",
"180 230 OFFCURVE",
"317 230 CURVE",
"320 95 OFFCURVE",
"286 38 OFFCURVE",
"210 38 CURVE SMOOTH",
"162 38 OFFCURVE",
"130 63 OFFCURVE",
"130 118 CURVE SMOOTH"
);
},
{
closed = 1;
nodes = (
"629 473 OFFCURVE",
"657 426 OFFCURVE",
"657 323 CURVE",
"430 311 LINE",
"441 420 OFFCURVE",
"484 473 OFFCURVE",
"560 473 CURVE SMOOTH"
);
}
);
width = 786;
}
);
leftKerningGroup = _KERN_a_2ND;
rightKerningGroup = _KERN_e_1ST;
unicode = 00E6;
},
{
glyphname = b;
lastChange = "2023-09-29 12:40:24 +0000";
layers = (
{
layerId = "E67231B9-FA09-451D-8B80-B70CA73DDE32";
paths = (
{
closed = 1;
nodes = (
"167 745 LINE",
"154 751 OFFCURVE",
"140 755 OFFCURVE",
"127 756 CURVE",
"85 745 OFFCURVE",
"42 736 OFFCURVE",
"-6 729 CURVE",
"-12 718 OFFCURVE",
"-13 707 OFFCURVE",
"-11 694 CURVE",
"72 686 LINE",
"72 18 LINE",
"128 -6 OFFCURVE",
"207 -20 OFFCURVE",
"262 -20 CURVE SMOOTH",
"421 -20 OFFCURVE",
"532 74 OFFCURVE",
"532 249 CURVE SMOOTH",
"532 408 OFFCURVE",
"451 510 OFFCURVE",
"322 510 CURVE SMOOTH",
"277 510 OFFCURVE",
"225 497 OFFCURVE",
"172 450 CURVE",
"167 455 LINE"
);
},
{
closed = 1;
nodes = (
"172 392 LINE",
"190 417 OFFCURVE",
"242 451 OFFCURVE",
"292 451 CURVE SMOOTH",
"364 451 OFFCURVE",
"425 389 OFFCURVE",
"425 249 CURVE SMOOTH",
"425 104 OFFCURVE",
"366 20 OFFCURVE",
"272 20 CURVE SMOOTH",
"227 20 OFFCURVE",
"201 29 OFFCURVE",
"172 43 CURVE"
);
}
);
width = 572;
}
);
leftKerningGroup = _KERN_b_2ND;
rightKerningGroup = _KERN_o_1ST;
unicode = 0062;
},
{
glyphname = c;
lastChange = "2023-09-29 12:40:24 +0000";
layers = (
{
anchors = (
{
name = bottom;
position = "{279, -20}";
}
);
layerId = "E67231B9-FA09-451D-8B80-B70CA73DDE32";
paths = (
{
closed = 1;
nodes = (
"390 354 LINE",
"399 350 OFFCURVE",
"408 349 OFFCURVE",
"418 349 CURVE SMOOTH",
"423 349 OFFCURVE",
"428 349 OFFCURVE",
"434 350 CURVE",
"447 390 OFFCURVE",
"454 435 OFFCURVE",
"454 486 CURVE",
"402 509 OFFCURVE",
"349 518 OFFCURVE",
"299 518 CURVE SMOOTH",
"156 518 OFFCURVE",
"37 426 OFFCURVE",
"37 250 CURVE SMOOTH",
"37 79 OFFCURVE",
"156 -17 OFFCURVE",
"281 -17 CURVE SMOOTH",
"341 -17 OFFCURVE",
"402 6 OFFCURVE",
"452 58 CURVE",
"449 68 OFFCURVE",
"445 77 OFFCURVE",
"434 84 CURVE",
"388 54 OFFCURVE",
"340 37 OFFCURVE",
"296 37 CURVE SMOOTH",
"212 37 OFFCURVE",
"144 100 OFFCURVE",
"144 250 CURVE SMOOTH",
"144 381 OFFCURVE",
"196 474 OFFCURVE",
"302 474 CURVE SMOOTH",
"325 474 OFFCURVE",
"357 469 OFFCURVE",
"377 460 CURVE"
);
}
);
width = 484;
}
);
leftKerningGroup = _KERN_o_2ND;
rightKerningGroup = _KERN_c_1ST;
unicode = 0063;
},
{
glyphname = ccedilla;
lastChange = "2023-09-29 12:40:24 +0000";
layers = (
{
associatedMasterId = "E67231B9-FA09-451D-8B80-B70CA73DDE32";
layerId = "DA51D0F6-E92C-4977-9AEE-C0B7DC2D6803";
name = img;
width = 484;
},
{
layerId = "E67231B9-FA09-451D-8B80-B70CA73DDE32";
paths = (
{
closed = 1;
nodes = (
"287 -17 LINE",
"345 -15 OFFCURVE",
"404 8 OFFCURVE",
"452 58 CURVE",
"449 68 OFFCURVE",
"445 77 OFFCURVE",
"434 84 CURVE",
"388 54 OFFCURVE",
"340 37 OFFCURVE",
"296 37 CURVE SMOOTH",
"212 37 OFFCURVE",
"144 100 OFFCURVE",
"144 250 CURVE SMOOTH",
"144 381 OFFCURVE",
"196 474 OFFCURVE",
"302 474 CURVE SMOOTH",
"325 474 OFFCURVE",
"357 469 OFFCURVE",
"377 460 CURVE",
"390 354 LINE",
"399 350 OFFCURVE",
"408 349 OFFCURVE",
"418 349 CURVE SMOOTH",
"423 349 OFFCURVE",
"428 349 OFFCURVE",
"434 350 CURVE",
"447 390 OFFCURVE",
"454 435 OFFCURVE",
"454 486 CURVE",
"402 509 OFFCURVE",
"349 518 OFFCURVE",
"299 518 CURVE SMOOTH",
"156 518 OFFCURVE",
"37 426 OFFCURVE",
"37 250 CURVE SMOOTH",
"37 93 OFFCURVE",
"137 0 OFFCURVE",
"250 -15 CURVE",
"252 -105 LINE",
"308 -105 OFFCURVE",
"342 -126 OFFCURVE",
"342 -163 CURVE SMOOTH",
"342 -188 OFFCURVE",
"312 -213 OFFCURVE",
"268 -213 CURVE SMOOTH",
"251 -213 OFFCURVE",
"231 -210 OFFCURVE",
"208 -201 CURVE",
"199 -208 OFFCURVE",
"194 -217 OFFCURVE",
"193 -230 CURVE",
"218 -239 OFFCURVE",
"252 -243 OFFCURVE",
"274 -243 CURVE SMOOTH",
"360 -243 OFFCURVE",
"410 -198 OFFCURVE",
"410 -141 CURVE SMOOTH",
"410 -85 OFFCURVE",
"372 -56 OFFCURVE",
"293 -56 CURVE"
);
}
);
width = 484;
}
);
leftKerningGroup = _KERN_o_2ND;
rightKerningGroup = _KERN_c_1ST;
unicode = 00E7;
},
{
glyphname = d;
lastChange = "2023-09-29 12:40:24 +0000";
layers = (
{
guideLines = (
{
position = "{0, -42}";
},
{
angle = 90;
position = "{399, 0}";
}
);
layerId = "E67231B9-FA09-451D-8B80-B70CA73DDE32";
paths = (
{
closed = 1;
nodes = (
"194 38 OFFCURVE",
"146 112 OFFCURVE",
"146 250 CURVE SMOOTH",
"146 385 OFFCURVE",
"196 471 OFFCURVE",
"300 471 CURVE SMOOTH",
"338 471 OFFCURVE",
"373 461 OFFCURVE",
"399 439 CURVE",
"399 91 LINE",
"374 64 OFFCURVE",
"337 38 OFFCURVE",
"285 38 CURVE SMOOTH"
);
},
{
closed = 1;
nodes = (
"499 745 LINE",
"486 751 OFFCURVE",
"472 755 OFFCURVE",
"459 756 CURVE",
"417 745 OFFCURVE",
"372 736 OFFCURVE",
"324 729 CURVE",
"318 718 OFFCURVE",
"317 707 OFFCURVE",
"319 694 CURVE",
"402 686 LINE",
"402 494 LINE",
"399 494 LINE",
"370 509 OFFCURVE",
"329 519 OFFCURVE",
"292 519 CURVE SMOOTH",
"138 519 OFFCURVE",
"40 415 OFFCURVE",
"40 241 CURVE SMOOTH",
"40 88 OFFCURVE",
"131 -20 OFFCURVE",
"244 -20 CURVE SMOOTH",
"300 -20 OFFCURVE",
"343 -3 OFFCURVE",
"399 45 CURVE",
"404 45 LINE",
"407 26 OFFCURVE",
"412 9 OFFCURVE",
"423 -8 CURVE",
"439 -12 OFFCURVE",
"459 -14 OFFCURVE",
"480 -14 CURVE SMOOTH",
"511 -14 OFFCURVE",
"543 -11 OFFCURVE",
"564 -7 CURVE",
"570 5 OFFCURVE",
"571 15 OFFCURVE",
"569 28 CURVE",
"544 30 OFFCURVE",
"511 37 OFFCURVE",
"499 48 CURVE"
);
}
);
width = 586;
}
);
unicode = 0064;
},
{
glyphname = eth;
lastChange = "2023-09-29 12:40:24 +0000";
layers = (
{
associatedMasterId = "E67231B9-FA09-451D-8B80-B70CA73DDE32";
layerId = "37E99AEB-8AF4-41FE-81C5-9E9421C04E2B";
name = public.background;
width = 579;
},
{
layerId = "E67231B9-FA09-451D-8B80-B70CA73DDE32";
paths = (
{
closed = 1;
nodes = (
"458 691 LINE",
"459 701 OFFCURVE",
"447 727 OFFCURVE",
"440 739 CURVE",
"335 679 LINE",
"288 709 OFFCURVE",
"234 730 OFFCURVE",
"174 740 CURVE",
"167 725 OFFCURVE",
"169 709 OFFCURVE",
"172 694 CURVE",
"213 681 OFFCURVE",
"248 665 OFFCURVE",
"279 647 CURVE",
"208 606 LINE",
"207 599 OFFCURVE",
"220 567 OFFCURVE",
"227 558 CURVE",
"325 615 LINE",
"373 575 OFFCURVE",
"403 524 OFFCURVE",
"420 459 CURVE",
"381 486 OFFCURVE",
"334 501 OFFCURVE",
"283 501 CURVE SMOOTH",
"143 501 OFFCURVE",
"37 390 OFFCURVE",
"37 240 CURVE SMOOTH",
"37 86 OFFCURVE",
"143 -20 OFFCURVE",
"283 -20 CURVE SMOOTH",
"423 -20 OFFCURVE",
"529 86 OFFCURVE",
"529 240 CURVE SMOOTH",
"529 245 OFFCURVE",
"529 250 OFFCURVE",
"528 256 CURVE",
"529 256 LINE",
"529 429 OFFCURVE",
"474 562 OFFCURVE",
"379 645 CURVE"
);
},
{
closed = 1;
nodes = (
"422 120 OFFCURVE",
"388 24 OFFCURVE",
"285 24 CURVE SMOOTH",
"186 24 OFFCURVE",
"144 121 OFFCURVE",
"144 234 CURVE SMOOTH",
"144 356 OFFCURVE",
"178 457 OFFCURVE",
"281 457 CURVE SMOOTH",
"380 457 OFFCURVE",
"422 355 OFFCURVE",
"422 227 CURVE SMOOTH"
);
}
);
width = 579;
}
);
unicode = 00F0;
},
{
glyphname = e;
lastChange = "2023-09-29 12:40:24 +0000";
layers = (
{
anchors = (
{
name = top;
position = "{275, 503}";
}
);
layerId = "E67231B9-FA09-451D-8B80-B70CA73DDE32";
paths = (
{
closed = 1;
nodes = (
"143 270 LINE",
"445 267 LINE",
"459 278 LINE",
"460 287 OFFCURVE",
"460 295 OFFCURVE",
"460 304 CURVE SMOOTH",
"460 429 OFFCURVE",
"404 517 OFFCURVE",
"286 517 CURVE SMOOTH",
"148 517 OFFCURVE",
"37 420 OFFCURVE",
"37 250 CURVE SMOOTH",
"37 84 OFFCURVE",
"139 -17 OFFCURVE",
"291 -17 CURVE SMOOTH",
"350 -17 OFFCURVE",
"410 11 OFFCURVE",
"452 59 CURVE",
"451 69 OFFCURVE",
"446 78 OFFCURVE",
"434 83 CURVE",
"381 47 OFFCURVE",
"355 38 OFFCURVE",
"294 38 CURVE SMOOTH",
"201 38 OFFCURVE",
"143 115 OFFCURVE",
"143 250 CURVE SMOOTH"
);
},
{
closed = 1;
nodes = (
"347 474 OFFCURVE",
"365 426 OFFCURVE",
"365 323 CURVE",
"147 311 LINE",
"163 421 OFFCURVE",
"227 474 OFFCURVE",
"285 474 CURVE SMOOTH"
);
}
);
width = 495;
}
);
leftKerningGroup = _KERN_o_2ND;
rightKerningGroup = _KERN_e_1ST;
unicode = 0065;
},
{
glyphname = f;
lastChange = "2023-09-29 12:40:24 +0000";
layers = (
{
layerId = "E67231B9-FA09-451D-8B80-B70CA73DDE32";
paths = (
{
closed = 1;
nodes = (
"326 620 LINE",
"337 615 OFFCURVE",
"357 614 OFFCURVE",
"367 616 CURVE",
"376 651 OFFCURVE",
"382 688 OFFCURVE",
"386 725 CURVE",
"350 747 OFFCURVE",
"321 755 OFFCURVE",
"268 755 CURVE SMOOTH",
"166 755 OFFCURVE",
"98 671 OFFCURVE",
"98 535 CURVE SMOOTH",
"98 475 LINE",
"43 475 LINE",
"37 468 OFFCURVE",
"31 438 OFFCURVE",
"33 425 CURVE",
"98 425 LINE",
"98 50 LINE",
"76 40 OFFCURVE",
"52 35 OFFCURVE",
"28 30 CURVE",
"24 18 OFFCURVE",
"24 7 OFFCURVE",
"26 -5 CURVE",
"63 -3 OFFCURVE",
"110 0 OFFCURVE",
"148 0 CURVE SMOOTH",
"185 0 OFFCURVE",
"254 -3 OFFCURVE",
"290 -5 CURVE",
"296 7 OFFCURVE",
"297 18 OFFCURVE",
"295 30 CURVE",
"198 50 LINE",
"198 425 LINE",
"328 425 LINE",
"334 435 OFFCURVE",
"338 459 OFFCURVE",
"338 475 CURVE",
"198 475 LINE",
"198 560 LINE SMOOTH",
"198 657 OFFCURVE",
"223 716 OFFCURVE",
"276 716 CURVE SMOOTH",
"290 716 OFFCURVE",
"301 714 OFFCURVE",
"315 708 CURVE"
);
}
);
width = 352;
}
);
leftKerningGroup = _KERN_f_2ND;
unicode = 0066;
},
{
glyphname = g;
lastChange = "2023-09-29 12:40:24 +0000";
layers = (
{
guideLines = (
{
angle = 90;
position = "{255, 0}";
},
{
angle = 90;
position = "{256, 0}";
}
);
layerId = "E67231B9-FA09-451D-8B80-B70CA73DDE32";
paths = (
{
closed = 1;
nodes = (
"344 167 OFFCURVE",
"464 215 OFFCURVE",
"464 333 CURVE SMOOTH",
"464 400 OFFCURVE",
"433 444 OFFCURVE",
"390 470 CURVE",
"435 473 OFFCURVE",
"481 484 OFFCURVE",
"517 496 CURVE",
"521 515 OFFCURVE",
"504 560 OFFCURVE",
"489 569 CURVE",
"356 487 LINE",
"324 500 OFFCURVE",
"288 505 OFFCURVE",
"256 505 CURVE SMOOTH",
"163 505 OFFCURVE",
"48 462 OFFCURVE",
"48 333 CURVE SMOOTH",
"48 263 OFFCURVE",
"89 218 OFFCURVE",
"142 192 CURVE",
"121 172 OFFCURVE",
"101 145 OFFCURVE",
"101 101 CURVE SMOOTH",
"101 74 OFFCURVE",
"111 55 OFFCURVE",
"134 35 CURVE",
"62 6 OFFCURVE",
"40 -46 OFFCURVE",
"40 -94 CURVE SMOOTH",
"40 -165 OFFCURVE",
"104 -226 OFFCURVE",
"256 -226 CURVE SMOOTH",
"375 -226 OFFCURVE",
"507 -174 OFFCURVE",
"507 -55 CURVE SMOOTH",
"507 49 OFFCURVE",
"437 71 OFFCURVE",
"304 87 CURVE SMOOTH",
"168 103 OFFCURVE",
"162 120 OFFCURVE",
"162 139 CURVE SMOOTH",
"162 147 OFFCURVE",
"166 158 OFFCURVE",
"180 178 CURVE",
"206 170 OFFCURVE",
"232 167 OFFCURVE",
"256 167 CURVE SMOOTH"
);
},
{
closed = 1;
nodes = (
"188 205 OFFCURVE",
"139 259 OFFCURVE",
"139 335 CURVE SMOOTH",
"139 418 OFFCURVE",
"188 467 OFFCURVE",
"256 467 CURVE SMOOTH",
"324 467 OFFCURVE",
"373 418 OFFCURVE",
"373 335 CURVE SMOOTH",
"373 259 OFFCURVE",
"324 205 OFFCURVE",
"256 205 CURVE SMOOTH"
);
},
{
closed = 1;
nodes = (
"347 -4 OFFCURVE",
"417 -22 OFFCURVE",
"417 -81 CURVE SMOOTH",
"417 -132 OFFCURVE",
"359 -188 OFFCURVE",
"261 -188 CURVE SMOOTH",
"170 -188 OFFCURVE",
"121 -136 OFFCURVE",
"121 -80 CURVE SMOOTH",
"121 -29 OFFCURVE",
"138 -4 OFFCURVE",
"170 23 CURVE",
"207 14 OFFCURVE",
"247 11 OFFCURVE",
"271 7 CURVE SMOOTH"
);
}
);
width = 522;
}
);
unicode = 0067;
},
{
glyphname = h;
lastChange = "2023-09-29 12:40:24 +0000";
layers = (
{
layerId = "E67231B9-FA09-451D-8B80-B70CA73DDE32";
paths = (
{
closed = 1;
nodes = (
"184 745 LINE",
"171 751 OFFCURVE",
"159 755 OFFCURVE",
"146 756 CURVE",
"104 745 OFFCURVE",
"59 736 OFFCURVE",
"11 729 CURVE",
"5 718 OFFCURVE",
"4 707 OFFCURVE",
"6 694 CURVE",
"89 686 LINE",
"89 50 LINE",
"70 41 OFFCURVE",
"44 36 OFFCURVE",
"19 30 CURVE",
"15 18 OFFCURVE",
"15 7 OFFCURVE",
"17 -5 CURVE",
"54 -3 OFFCURVE",
"101 0 OFFCURVE",
"139 0 CURVE SMOOTH",
"176 0 OFFCURVE",
"215 -3 OFFCURVE",
"251 -5 CURVE",
"257 7 OFFCURVE",
"258 18 OFFCURVE",
"256 30 CURVE",
"189 50 LINE",
"189 392 LINE",
"220 427 OFFCURVE",
"270 450 OFFCURVE",
"313 450 CURVE SMOOTH",
"367 450 OFFCURVE",
"410 433 OFFCURVE",
"410 349 CURVE SMOOTH",
"410 50 LINE",
"389 40 OFFCURVE",
"364 35 OFFCURVE",
"340 30 CURVE",
"336 18 OFFCURVE",
"336 7 OFFCURVE",
"338 -5 CURVE",
"375 -3 OFFCURVE",
"422 0 OFFCURVE",
"460 0 CURVE SMOOTH",
"497 0 OFFCURVE",
"541 -3 OFFCURVE",
"577 -5 CURVE",
"583 7 OFFCURVE",
"584 18 OFFCURVE",
"582 30 CURVE",
"510 50 LINE",
"510 364 LINE SMOOTH",
"510 457 OFFCURVE",
"462 520 OFFCURVE",
"353 520 CURVE SMOOTH",
"308 520 OFFCURVE",
"249 500 OFFCURVE",
"189 445 CURVE",
"184 445 LINE"
);
}
);
width = 598;
}
);
leftKerningGroup = _KERN_h_2ND;
rightKerningGroup = _KERN_n_1ST;
unicode = 0068;
},
{
glyphname = i;
lastChange = "2023-09-29 12:40:24 +0000";
layers = (
{
layerId = "E67231B9-FA09-451D-8B80-B70CA73DDE32";
paths = (
{
closed = 1;
nodes = (
"66 641 OFFCURVE",
"93 601 OFFCURVE",
"127 601 CURVE SMOOTH",
"161 601 OFFCURVE",
"198 633 OFFCURVE",
"198 660 CURVE SMOOTH",
"198 687 OFFCURVE",
"173 728 OFFCURVE",
"137 728 CURVE SMOOTH",
"104 728 OFFCURVE",
"66 695 OFFCURVE",
"66 669 CURVE SMOOTH"
);
},
{
closed = 1;
nodes = (
"204 499 LINE",
"191 505 OFFCURVE",
"179 509 OFFCURVE",
"166 510 CURVE",
"124 499 OFFCURVE",
"74 490 OFFCURVE",
"26 483 CURVE",
"20 472 OFFCURVE",
"19 461 OFFCURVE",
"21 448 CURVE",
"104 440 LINE",
"104 50 LINE",
"85 41 OFFCURVE",
"59 36 OFFCURVE",
"34 30 CURVE",
"30 18 OFFCURVE",
"30 7 OFFCURVE",
"32 -5 CURVE",
"69 -3 OFFCURVE",
"116 0 OFFCURVE",
"154 0 CURVE SMOOTH",
"191 0 OFFCURVE",
"230 -3 OFFCURVE",
"266 -5 CURVE",
"272 7 OFFCURVE",
"273 18 OFFCURVE",
"271 30 CURVE",
"204 50 LINE"
);
}
);
width = 290;
}
);
leftKerningGroup = _KERN_i;
rightKerningGroup = _KERN_i;
unicode = 0069;
},
{
glyphname = idotless;
lastChange = "2023-09-29 12:40:24 +0000";
layers = (
{
anchors = (
{
name = top;
position = "{142, 505}";
}
);
layerId = "E67231B9-FA09-451D-8B80-B70CA73DDE32";
paths = (
{
closed = 1;
nodes = (
"204 499 LINE",
"191 505 OFFCURVE",
"179 509 OFFCURVE",
"166 510 CURVE",
"124 499 OFFCURVE",
"74 490 OFFCURVE",
"26 483 CURVE",
"20 472 OFFCURVE",
"19 461 OFFCURVE",
"21 448 CURVE",
"104 440 LINE",
"104 50 LINE",
"85 41 OFFCURVE",
"59 36 OFFCURVE",
"34 30 CURVE",
"30 18 OFFCURVE",
"30 7 OFFCURVE",
"32 -5 CURVE",
"69 -3 OFFCURVE",
"116 0 OFFCURVE",
"154 0 CURVE SMOOTH",
"191 0 OFFCURVE",
"230 -3 OFFCURVE",
"266 -5 CURVE",
"272 7 OFFCURVE",
"273 18 OFFCURVE",
"271 30 CURVE",
"204 50 LINE"
);
}
);
width = 290;
}
);
leftKerningGroup = _KERN_i;
rightKerningGroup = _KERN_i;
unicode = 0131;
},
{
glyphname = j;
lastChange = "2023-09-29 12:40:24 +0000";
layers = (
{
layerId = "E67231B9-FA09-451D-8B80-B70CA73DDE32";
paths = (
{
closed = 1;
nodes = (
"52 641 OFFCURVE",
"79 601 OFFCURVE",
"113 601 CURVE SMOOTH",
"147 601 OFFCURVE",
"184 633 OFFCURVE",
"184 660 CURVE SMOOTH",
"184 687 OFFCURVE",
"159 728 OFFCURVE",
"123 728 CURVE SMOOTH",
"90 728 OFFCURVE",
"52 695 OFFCURVE",
"52 669 CURVE SMOOTH"
);
},
{
closed = 1;
nodes = (
"190 499 LINE",
"177 505 OFFCURVE",
"165 509 OFFCURVE",
"152 510 CURVE",
"110 499 OFFCURVE",
"60 490 OFFCURVE",
"12 483 CURVE",
"6 472 OFFCURVE",
"5 461 OFFCURVE",
"7 448 CURVE",
"90 440 LINE",
"90 30 LINE SMOOTH",
"90 -76 OFFCURVE",
"76 -145 OFFCURVE",
"-24 -203 CURVE",
"-25 -220 OFFCURVE",
"-17 -237 OFFCURVE",
"-5 -246 CURVE",
"115 -181 OFFCURVE",
"190 -97 OFFCURVE",
"190 34 CURVE"
);
}
);
width = 261;
}
);
unicode = 006A;
},
{
glyphname = k;
lastChange = "2023-09-29 12:40:24 +0000";
layers = (
{
guideLines = (
{
position = "{0, 50}";
},
{
position = "{0, 30}";
},
{
position = "{0, -5}";
}
);
layerId = "E67231B9-FA09-451D-8B80-B70CA73DDE32";
paths = (
{
closed = 1;
nodes = (
"187 745 LINE",
"174 751 OFFCURVE",
"162 755 OFFCURVE",
"149 756 CURVE",
"107 745 OFFCURVE",
"57 736 OFFCURVE",
"9 729 CURVE",
"5 721 OFFCURVE",
"3 713 OFFCURVE",
"3 705 CURVE SMOOTH",
"3 702 OFFCURVE",
"3 698 OFFCURVE",
"4 694 CURVE",
"87 686 LINE",
"87 50 LINE",
"68 41 OFFCURVE",
"42 36 OFFCURVE",
"17 30 CURVE",
"15 23 OFFCURVE",
"14 16 OFFCURVE",
"14 9 CURVE SMOOTH",
"14 5 OFFCURVE",
"14 0 OFFCURVE",
"15 -5 CURVE",
"52 -3 OFFCURVE",
"99 0 OFFCURVE",
"137 0 CURVE SMOOTH",
"174 0 OFFCURVE",
"213 -3 OFFCURVE",
"249 -5 CURVE",
"253 3 OFFCURVE",
"255 11 OFFCURVE",
"255 19 CURVE SMOOTH",
"255 23 OFFCURVE",
"254 26 OFFCURVE",
"254 30 CURVE",
"187 50 LINE",
"187 237 LINE",
"233 237 LINE",
"376 33 LINE",
"327 30 LINE",
"325 23 OFFCURVE",
"324 16 OFFCURVE",
"324 9 CURVE SMOOTH",
"324 5 OFFCURVE",
"324 0 OFFCURVE",
"325 -5 CURVE",
"357 -2 OFFCURVE",
"387 -1 OFFCURVE",
"416 -1 CURVE SMOOTH",
"457 -1 OFFCURVE",
"496 -3 OFFCURVE",
"535 -5 CURVE",
"539 3 OFFCURVE",
"541 11 OFFCURVE",
"541 19 CURVE SMOOTH",
"541 23 OFFCURVE",
"540 26 OFFCURVE",
"540 30 CURVE",
"515 32 OFFCURVE",
"485 39 OFFCURVE",
"473 50 CURVE",
"288 299 LINE",
"424 445 LINE",
"444 460 OFFCURVE",
"477 468 OFFCURVE",
"499 470 CURVE",
"501 477 OFFCURVE",
"502 484 OFFCURVE",
"502 490 CURVE SMOOTH",
"502 495 OFFCURVE",
"502 500 OFFCURVE",
"501 505 CURVE",
"464 503 OFFCURVE",
"445 500 OFFCURVE",
"407 500 CURVE SMOOTH",
"370 500 OFFCURVE",
"341 503 OFFCURVE",
"305 505 CURVE",
"301 497 OFFCURVE",
"299 489 OFFCURVE",
"299 481 CURVE SMOOTH",
"299 477 OFFCURVE",
"299 474 OFFCURVE",
"300 470 CURVE",
"373 455 LINE",
"213 277 LINE",
"187 277 LINE"
);
}
);
width = 542;
}
);
leftKerningGroup = _KERN_h_2ND;
unicode = 006B;
},
{
glyphname = l;
lastChange = "2023-09-29 12:40:24 +0000";
layers = (
{
guideLines = (
{
position = "{0, 45}";
}
);
layerId = "E67231B9-FA09-451D-8B80-B70CA73DDE32";
paths = (
{
closed = 1;
nodes = (
"189 745 LINE",
"176 751 OFFCURVE",
"164 755 OFFCURVE",
"151 756 CURVE",
"109 745 OFFCURVE",
"59 736 OFFCURVE",
"11 729 CURVE",
"5 718 OFFCURVE",
"4 707 OFFCURVE",
"6 694 CURVE",
"89 686 LINE",
"89 50 LINE",
"70 41 OFFCURVE",
"44 36 OFFCURVE",
"19 30 CURVE",
"15 18 OFFCURVE",
"15 7 OFFCURVE",
"17 -5 CURVE",
"54 -3 OFFCURVE",
"101 0 OFFCURVE",
"139 0 CURVE SMOOTH",
"176 0 OFFCURVE",
"225 -3 OFFCURVE",
"261 -5 CURVE",
"267 7 OFFCURVE",
"268 18 OFFCURVE",
"266 30 CURVE",
"189 50 LINE"
);
}
);
width = 279;
}
);
unicode = 006C;
},
{
glyphname = m;
lastChange = "2023-09-29 12:40:24 +0000";
layers = (
{
guideLines = (
{
angle = 90;
position = "{18, 0}";
}
);
layerId = "E67231B9-FA09-451D-8B80-B70CA73DDE32";
paths = (
{
closed = 1;
nodes = (
"195 501 LINE",
"182 507 OFFCURVE",
"174 509 OFFCURVE",
"161 510 CURVE",
"118 500 OFFCURVE",
"71 491 OFFCURVE",
"22 483 CURVE",
"16 472 OFFCURVE",
"15 461 OFFCURVE",
"17 448 CURVE",
"100 440 LINE",
"100 50 LINE",
"78 42 OFFCURVE",
"54 36 OFFCURVE",
"30 30 CURVE",
"26 18 OFFCURVE",
"26 7 OFFCURVE",
"28 -5 CURVE",
"65 -3 OFFCURVE",
"112 0 OFFCURVE",
"150 0 CURVE SMOOTH",
"187 0 OFFCURVE",
"226 -3 OFFCURVE",
"262 -5 CURVE",
"268 7 OFFCURVE",
"269 18 OFFCURVE",
"267 30 CURVE",
"200 50 LINE",
"200 386 LINE",
"247 427 OFFCURVE",
"292 446 OFFCURVE",
"324 446 CURVE SMOOTH",
"385 446 OFFCURVE",
"412 416 OFFCURVE",
"412 326 CURVE SMOOTH",
"412 50 LINE",
"392 42 OFFCURVE",
"372 35 OFFCURVE",
"346 30 CURVE",
"342 18 OFFCURVE",
"342 7 OFFCURVE",
"344 -5 CURVE",
"381 -3 OFFCURVE",
"424 0 OFFCURVE",
"462 0 CURVE SMOOTH",
"499 0 OFFCURVE",
"541 -3 OFFCURVE",
"577 -5 CURVE",
"583 7 OFFCURVE",
"584 18 OFFCURVE",
"582 30 CURVE",
"512 50 LINE",
"511 371 LINE",
"511 379 LINE",
"552 427 OFFCURVE",
"594 444 OFFCURVE",
"624 444 CURVE SMOOTH",
"685 444 OFFCURVE",
"712 416 OFFCURVE",
"712 326 CURVE SMOOTH",
"712 50 LINE",
"692 42 OFFCURVE",
"672 35 OFFCURVE",
"646 30 CURVE",
"642 18 OFFCURVE",
"642 7 OFFCURVE",
"644 -5 CURVE",
"681 -3 OFFCURVE",
"724 0 OFFCURVE",
"762 0 CURVE SMOOTH",
"799 0 OFFCURVE",
"841 -3 OFFCURVE",
"877 -5 CURVE",
"883 7 OFFCURVE",
"884 18 OFFCURVE",
"882 30 CURVE",
"812 50 LINE",
"811 371 LINE SMOOTH",
"811 466 OFFCURVE",
"758 516 OFFCURVE",
"671 516 CURVE SMOOTH",
"615 516 OFFCURVE",
"559 496 OFFCURVE",
"502 432 CURVE",
"483 487 OFFCURVE",
"436 516 OFFCURVE",
"371 516 CURVE SMOOTH",
"323 516 OFFCURVE",
"254 496 OFFCURVE",
"193 432 CURVE",
"192 433 LINE"
);
}
);
width = 891;
}
);
leftKerningGroup = _KERN_n_2ND;
rightKerningGroup = _KERN_n_1ST;
unicode = 006D;
},
{
glyphname = n;
lastChange = "2023-09-29 12:40:24 +0000";
layers = (
{
anchors = (
{
name = top;
position = "{280, 505}";
}
);
guideLines = (
{
angle = 90;
position = "{20, 0}";
}
);
layerId = "E67231B9-FA09-451D-8B80-B70CA73DDE32";
paths = (
{
closed = 1;
nodes = (
"195 501 LINE",
"182 507 OFFCURVE",
"174 509 OFFCURVE",
"161 510 CURVE",
"118 500 OFFCURVE",
"71 491 OFFCURVE",
"22 483 CURVE",
"16 472 OFFCURVE",
"15 461 OFFCURVE",
"17 448 CURVE",
"100 440 LINE",
"100 50 LINE",
"78 42 OFFCURVE",
"54 36 OFFCURVE",
"30 30 CURVE",
"26 18 OFFCURVE",
"26 7 OFFCURVE",
"28 -5 CURVE",
"65 -3 OFFCURVE",
"112 0 OFFCURVE",
"150 0 CURVE SMOOTH",
"187 0 OFFCURVE",
"226 -3 OFFCURVE",
"262 -5 CURVE",
"268 7 OFFCURVE",
"269 18 OFFCURVE",
"267 30 CURVE",
"200 50 LINE",
"200 386 LINE",
"236 427 OFFCURVE",
"284 446 OFFCURVE",
"334 446 CURVE SMOOTH",
"395 446 OFFCURVE",
"422 416 OFFCURVE",
"422 326 CURVE SMOOTH",
"422 50 LINE",
"402 42 OFFCURVE",
"382 35 OFFCURVE",
"356 30 CURVE",
"352 18 OFFCURVE",
"352 7 OFFCURVE",
"354 -5 CURVE",
"391 -3 OFFCURVE",
"434 0 OFFCURVE",
"472 0 CURVE SMOOTH",
"509 0 OFFCURVE",
"551 -3 OFFCURVE",
"587 -5 CURVE",
"593 7 OFFCURVE",
"594 18 OFFCURVE",
"592 30 CURVE",
"522 50 LINE",
"521 371 LINE SMOOTH",
"521 466 OFFCURVE",
"468 516 OFFCURVE",
"381 516 CURVE SMOOTH",
"330 516 OFFCURVE",
"257 496 OFFCURVE",
"193 432 CURVE",
"192 433 LINE"
);
}
);
width = 603;
}
);
leftKerningGroup = _KERN_n_2ND;
rightKerningGroup = _KERN_n_1ST;
unicode = 006E;
},
{
glyphname = o;
lastChange = "2023-09-29 12:40:24 +0000";
layers = (
{
anchors = (
{
name = top;
position = "{289, 506}";
}
);
layerId = "E67231B9-FA09-451D-8B80-B70CA73DDE32";
paths = (
{
closed = 1;
nodes = (
"36 90 OFFCURVE",
"133 -20 OFFCURVE",
"288 -20 CURVE SMOOTH",
"443 -20 OFFCURVE",
"540 90 OFFCURVE",
"540 250 CURVE SMOOTH",
"540 405 OFFCURVE",
"443 520 OFFCURVE",
"288 520 CURVE SMOOTH",
"133 520 OFFCURVE",
"36 405 OFFCURVE",
"36 250 CURVE SMOOTH"
);
},
{
closed = 1;
nodes = (
"432 125 OFFCURVE",
"397 23 OFFCURVE",
"290 23 CURVE SMOOTH",
"187 23 OFFCURVE",
"144 126 OFFCURVE",
"144 243 CURVE SMOOTH",
"144 370 OFFCURVE",
"179 477 OFFCURVE",
"286 477 CURVE SMOOTH",
"389 477 OFFCURVE",
"432 369 OFFCURVE",
"432 236 CURVE SMOOTH"
);
}
);
width = 576;
}
);
leftKerningGroup = _KERN_o_2ND;
rightKerningGroup = _KERN_o_1ST;
unicode = 006F;
},
{
glyphname = oslash;
lastChange = "2023-09-29 12:40:24 +0000";
layers = (
{
layerId = "E67231B9-FA09-451D-8B80-B70CA73DDE32";
paths = (
{
closed = 1;
nodes = (
"76 -40 LINE",
"92 -49 OFFCURVE",
"111 -52 OFFCURVE",
"133 -51 CURVE",
"169 6 LINE",
"203 -11 OFFCURVE",
"243 -20 OFFCURVE",
"288 -20 CURVE SMOOTH",
"443 -20 OFFCURVE",
"540 90 OFFCURVE",
"540 250 CURVE SMOOTH",
"540 335 OFFCURVE",
"510 408 OFFCURVE",
"458 457 CURVE",
"525 563 LINE",
"511 571 OFFCURVE",
"496 577 OFFCURVE",
"469 572 CURVE",
"416 488 LINE",
"380 508 OFFCURVE",
"337 520 OFFCURVE",
"288 520 CURVE SMOOTH",
"133 520 OFFCURVE",
"36 405 OFFCURVE",
"36 250 CURVE SMOOTH",
"36 158 OFFCURVE",
"68 83 OFFCURVE",
"124 36 CURVE"
);
},
{
closed = 1;
nodes = (
"144 370 OFFCURVE",
"179 477 OFFCURVE",
"286 477 CURVE SMOOTH",
"324 477 OFFCURVE",
"353 462 OFFCURVE",
"376 437 CURVE",
"171 102 LINE",
"152 141 OFFCURVE",
"144 190 OFFCURVE",
"144 243 CURVE SMOOTH"
);
},
{
closed = 1;
nodes = (
"432 125 OFFCURVE",
"397 23 OFFCURVE",
"290 23 CURVE SMOOTH",
"255 23 OFFCURVE",
"227 34 OFFCURVE",
"205 55 CURVE",
"407 386 LINE",
"424 345 OFFCURVE",
"432 293 OFFCURVE",
"432 236 CURVE SMOOTH"
);
}
);
width = 582;
}
);
leftKerningGroup = _KERN_o_2ND;
rightKerningGroup = _KERN_o_1ST;
unicode = 00F8;
},
{
glyphname = oe;
lastChange = "2023-09-29 12:40:24 +0000";
layers = (
{
associatedMasterId = "E67231B9-FA09-451D-8B80-B70CA73DDE32";
layerId = "37E99AEB-8AF4-41FE-81C5-9E9421C04E2B";
name = public.background;
width = 884;
},
{
layerId = "E67231B9-FA09-451D-8B80-B70CA73DDE32";
paths = (
{
closed = 1;
nodes = (
"527 270 LINE",
"834 267 LINE",
"848 278 LINE",
"849 287 OFFCURVE",
"849 295 OFFCURVE",
"849 304 CURVE SMOOTH",
"849 429 OFFCURVE",
"790 520 OFFCURVE",
"665 520 CURVE SMOOTH",
"587 520 OFFCURVE",
"510 489 OFFCURVE",
"477 424 CURVE",
"468 442 OFFCURVE",
"458 458 OFFCURVE",
"445 468 CURVE SMOOTH",
"403 501 OFFCURVE",
"350 520 OFFCURVE",
"291 520 CURVE SMOOTH",
"146 520 OFFCURVE",
"36 405 OFFCURVE",
"36 250 CURVE SMOOTH",
"36 90 OFFCURVE",
"146 -20 OFFCURVE",
"291 -20 CURVE SMOOTH",
"365 -20 OFFCURVE",
"432 9 OFFCURVE",
"478 59 CURVE",
"523 8 OFFCURVE",
"589 -20 OFFCURVE",
"670 -20 CURVE SMOOTH",
"736 -20 OFFCURVE",
"796 8 OFFCURVE",
"835 56 CURVE",
"834 66 OFFCURVE",
"829 75 OFFCURVE",
"817 80 CURVE",
"764 44 OFFCURVE",
"738 35 OFFCURVE",
"673 35 CURVE SMOOTH",
"580 35 OFFCURVE",
"527 115 OFFCURVE",
"527 250 CURVE SMOOTH"
);
},
{
closed = 1;
nodes = (
"435 125 OFFCURVE",
"400 26 OFFCURVE",
"293 26 CURVE SMOOTH",
"190 26 OFFCURVE",
"147 126 OFFCURVE",
"147 243 CURVE SMOOTH",
"147 370 OFFCURVE",
"182 474 OFFCURVE",
"289 474 CURVE SMOOTH",
"392 474 OFFCURVE",
"435 369 OFFCURVE",
"435 236 CURVE SMOOTH"
);
},
{
closed = 1;
nodes = (
"734 480 OFFCURVE",
"755 426 OFFCURVE",
"755 323 CURVE",
"532 311 LINE",
"543 420 OFFCURVE",
"589 480 OFFCURVE",
"665 480 CURVE SMOOTH"
);
}
);
width = 884;
}
);
leftKerningGroup = _KERN_o_2ND;
rightKerningGroup = _KERN_e_1ST;
unicode = 0153;
},
{
glyphname = p;
lastChange = "2023-09-29 12:40:24 +0000";
layers = (
{
layerId = "E67231B9-FA09-451D-8B80-B70CA73DDE32";
paths = (
{
closed = 1;
nodes = (
"185 502 LINE",
"174 506 OFFCURVE",
"164 509 OFFCURVE",
"150 510 CURVE",
"75 492 OFFCURVE",
"23 484 OFFCURVE",
"12 483 CURVE",
"6 472 OFFCURVE",
"5 461 OFFCURVE",
"7 448 CURVE",
"89 440 LINE",
"89 -200 LINE",
"66 -210 OFFCURVE",
"42 -215 OFFCURVE",
"19 -220 CURVE",
"15 -232 OFFCURVE",
"15 -243 OFFCURVE",
"17 -255 CURVE",
"54 -253 OFFCURVE",
"101 -250 OFFCURVE",
"139 -250 CURVE SMOOTH",
"176 -250 OFFCURVE",
"235 -253 OFFCURVE",
"271 -255 CURVE",
"277 -243 OFFCURVE",
"278 -232 OFFCURVE",
"276 -220 CURVE",
"189 -200 LINE",
"189 3 LINE",
"221 -10 OFFCURVE",
"265 -19 OFFCURVE",
"291 -19 CURVE SMOOTH",
"450 -19 OFFCURVE",
"547 78 OFFCURVE",
"547 263 CURVE SMOOTH",
"547 395 OFFCURVE",
"474 520 OFFCURVE",
"339 520 CURVE SMOOTH",
"294 520 OFFCURVE",
"242 504 OFFCURVE",
"189 457 CURVE",
"184 462 LINE"
);
},
{
closed = 1;
nodes = (
"189 404 LINE",
"207 429 OFFCURVE",
"259 460 OFFCURVE",
"309 460 CURVE SMOOTH",
"390 460 OFFCURVE",
"441 394 OFFCURVE",
"441 257 CURVE SMOOTH",
"441 112 OFFCURVE",
"389 27 OFFCURVE",
"289 27 CURVE SMOOTH",
"244 27 OFFCURVE",
"214 42 OFFCURVE",
"189 59 CURVE"
);
}
);
width = 587;
}
);
rightKerningGroup = _KERN_o_1ST;
unicode = 0070;
},
{
glyphname = thorn;
lastChange = "2023-09-29 12:40:24 +0000";
layers = (
{
layerId = "E67231B9-FA09-451D-8B80-B70CA73DDE32";
paths = (
{
closed = 1;
nodes = (
"166 745 LINE",
"155 749 OFFCURVE",
"145 752 OFFCURVE",
"131 753 CURVE",
"56 735 OFFCURVE",
"4 727 OFFCURVE",
"-7 726 CURVE",
"-13 715 OFFCURVE",
"-14 704 OFFCURVE",
"-12 691 CURVE",
"70 683 LINE",
"70 -200 LINE",
"47 -210 OFFCURVE",
"23 -215 OFFCURVE",
"0 -220 CURVE",
"-4 -232 OFFCURVE",
"-4 -243 OFFCURVE",
"-2 -255 CURVE",
"35 -253 OFFCURVE",
"82 -250 OFFCURVE",
"120 -250 CURVE SMOOTH",
"157 -250 OFFCURVE",
"216 -253 OFFCURVE",
"252 -255 CURVE",
"258 -243 OFFCURVE",
"259 -232 OFFCURVE",
"257 -220 CURVE",
"170 -200 LINE",
"170 3 LINE",
"202 -10 OFFCURVE",
"246 -19 OFFCURVE",
"272 -19 CURVE SMOOTH",
"431 -19 OFFCURVE",
"528 78 OFFCURVE",
"528 263 CURVE SMOOTH",
"528 395 OFFCURVE",
"455 520 OFFCURVE",
"320 520 CURVE SMOOTH",
"275 520 OFFCURVE",
"223 504 OFFCURVE",
"170 457 CURVE",
"165 462 LINE"
);
},
{
closed = 1;
nodes = (
"170 404 LINE",
"188 429 OFFCURVE",
"240 460 OFFCURVE",
"290 460 CURVE SMOOTH",
"371 460 OFFCURVE",
"422 394 OFFCURVE",
"422 257 CURVE SMOOTH",
"422 112 OFFCURVE",
"370 27 OFFCURVE",
"270 27 CURVE SMOOTH",
"225 27 OFFCURVE",
"195 42 OFFCURVE",
"170 59 CURVE"
);
}
);
width = 568;
}
);
leftKerningGroup = _KERN_b_2ND;
rightKerningGroup = _KERN_o_1ST;
unicode = 00FE;
},
{
glyphname = q;
lastChange = "2023-09-29 12:40:24 +0000";
layers = (
{
layerId = "E67231B9-FA09-451D-8B80-B70CA73DDE32";
paths = (
{
closed = 1;
nodes = (
"499 465 LINE",
"415 516 OFFCURVE",
"345 520 OFFCURVE",
"309 520 CURVE SMOOTH",
"137 520 OFFCURVE",
"40 415 OFFCURVE",
"40 240 CURVE SMOOTH",
"40 118 OFFCURVE",
"99 -20 OFFCURVE",
"249 -20 CURVE SMOOTH",
"294 -20 OFFCURVE",
"346 -10 OFFCURVE",
"399 37 CURVE",
"399 -200 LINE",
"374 -211 OFFCURVE",
"347 -215 OFFCURVE",
"319 -220 CURVE",
"315 -232 OFFCURVE",
"315 -243 OFFCURVE",
"317 -255 CURVE",
"354 -253 OFFCURVE",
"411 -250 OFFCURVE",
"449 -250 CURVE SMOOTH",
"486 -250 OFFCURVE",
"525 -253 OFFCURVE",
"561 -255 CURVE",
"567 -243 OFFCURVE",
"568 -232 OFFCURVE",
"566 -220 CURVE",
"499 -200 LINE"
);
},
{
closed = 1;
nodes = (
"399 95 LINE",
"381 70 OFFCURVE",
"329 40 OFFCURVE",
"279 40 CURVE SMOOTH",
"171 40 OFFCURVE",
"147 150 OFFCURVE",
"147 240 CURVE SMOOTH",
"147 385 OFFCURVE",
"196 471 OFFCURVE",
"299 471 CURVE SMOOTH",
"352 471 OFFCURVE",
"379 454 OFFCURVE",
"399 438 CURVE"
);
}
);
width = 566;
}
);
unicode = 0071;
},
{
glyphname = r;
lastChange = "2023-09-29 12:40:24 +0000";
layers = (
{
guideLines = (
{
position = "{0, 509}";
}
);
layerId = "E67231B9-FA09-451D-8B80-B70CA73DDE32";
paths = (
{
closed = 1;
nodes = (
"200 337 LINE",
"239 427 OFFCURVE",
"288 456 OFFCURVE",
"335 456 CURVE",
"349 356 LINE",
"360 351 OFFCURVE",
"384 350 OFFCURVE",
"394 352 CURVE",
"408 399 OFFCURVE",
"416 447 OFFCURVE",
"414 502 CURVE",
"392 515 OFFCURVE",
"370 517 OFFCURVE",
"348 517 CURVE SMOOTH",
"289 517 OFFCURVE",
"237 468 OFFCURVE",
"196 407 CURVE",
"195 408 LINE",
"195 499 LINE",
"182 505 OFFCURVE",
"175 509 OFFCURVE",
"162 510 CURVE",
"120 499 OFFCURVE",
"70 490 OFFCURVE",
"22 483 CURVE",
"16 472 OFFCURVE",
"15 461 OFFCURVE",
"17 448 CURVE",
"100 440 LINE",
"100 50 LINE",
"81 41 OFFCURVE",
"55 36 OFFCURVE",
"30 30 CURVE",
"26 18 OFFCURVE",
"26 7 OFFCURVE",
"28 -5 CURVE",
"65 -3 OFFCURVE",
"112 0 OFFCURVE",
"150 0 CURVE SMOOTH",
"187 0 OFFCURVE",
"256 -3 OFFCURVE",
"292 -5 CURVE",
"298 7 OFFCURVE",
"299 18 OFFCURVE",
"297 30 CURVE",
"200 50 LINE"
);
}
);
width = 431;
}
);
leftKerningGroup = _KERN_n_2ND;
unicode = 0072;
},
{
glyphname = s;
lastChange = "2023-09-29 12:40:24 +0000";
layers = (
{
layerId = "E67231B9-FA09-451D-8B80-B70CA73DDE32";
paths = (
{
closed = 1;
nodes = (
"99 150 LINE",
"90 153 OFFCURVE",
"79 155 OFFCURVE",
"66 155 CURVE SMOOTH",
"61 155 OFFCURVE",
"62 155 OFFCURVE",
"56 154 CURVE",
"41 110 OFFCURVE",
"38 73 OFFCURVE",
"38 37 CURVE SMOOTH",
"38 20 LINE",
"93 -14 OFFCURVE",
"144 -20 OFFCURVE",
"207 -20 CURVE SMOOTH",
"305 -20 OFFCURVE",
"397 23 OFFCURVE",
"397 125 CURVE SMOOTH",
"397 196 OFFCURVE",
"358 236 OFFCURVE",
"252 287 CURVE SMOOTH",
"150 336 OFFCURVE",
"133 363 OFFCURVE",
"133 402 CURVE SMOOTH",
"133 457 OFFCURVE",
"183 474 OFFCURVE",
"230 474 CURVE SMOOTH",
"252 474 OFFCURVE",
"277 470 OFFCURVE",
"294 465 CURVE",
"310 357 LINE",
"320 353 OFFCURVE",
"330 351 OFFCURVE",
"340 351 CURVE SMOOTH",
"345 351 OFFCURVE",
"350 352 OFFCURVE",
"355 353 CURVE",
"367 387 OFFCURVE",
"374 430 OFFCURVE",
"374 468 CURVE SMOOTH",
"374 475 OFFCURVE",
"373 483 OFFCURVE",
"373 490 CURVE",
"333 507 OFFCURVE",
"279 518 OFFCURVE",
"227 518 CURVE SMOOTH",
"136 518 OFFCURVE",
"50 483 OFFCURVE",
"50 382 CURVE SMOOTH",
"50 298 OFFCURVE",
"95 257 OFFCURVE",
"172 221 CURVE SMOOTH",
"277 172 OFFCURVE",
"305 144 OFFCURVE",
"305 102 CURVE SMOOTH",
"305 48 OFFCURVE",
"254 26 OFFCURVE",
"200 26 CURVE SMOOTH",
"164 26 OFFCURVE",
"137 30 OFFCURVE",
"109 44 CURVE"
);
}
);
width = 432;
}
);
unicode = 0073;
},
{
glyphname = germandbls;
lastChange = "2023-09-29 12:40:24 +0000";
layers = (
{
layerId = "E67231B9-FA09-451D-8B80-B70CA73DDE32";
paths = (
{
closed = 1;
nodes = (
"195 560 LINE SMOOTH",
"195 648 OFFCURVE",
"213 716 OFFCURVE",
"327 716 CURVE SMOOTH",
"423 716 OFFCURVE",
"456 659 OFFCURVE",
"468 612 CURVE SMOOTH",
"481 563 OFFCURVE",
"460 530 OFFCURVE",
"393 507 CURVE SMOOTH",
"313 480 OFFCURVE",
"286 446 OFFCURVE",
"286 382 CURVE SMOOTH",
"286 298 OFFCURVE",
"330 257 OFFCURVE",
"407 221 CURVE SMOOTH",
"512 172 OFFCURVE",
"522 144 OFFCURVE",
"522 102 CURVE SMOOTH",
"522 48 OFFCURVE",
"479 26 OFFCURVE",
"425 26 CURVE SMOOTH",
"396 26 OFFCURVE",
"378 30 OFFCURVE",
"357 43 CURVE",
"344 150 LINE",
"331 155 OFFCURVE",
"312 157 OFFCURVE",
"294 154 CURVE",
"277 104 OFFCURVE",
"275 61 OFFCURVE",
"276 19 CURVE",
"331 -15 OFFCURVE",
"369 -20 OFFCURVE",
"432 -20 CURVE SMOOTH",
"530 -20 OFFCURVE",
"612 23 OFFCURVE",
"612 125 CURVE SMOOTH",
"612 196 OFFCURVE",
"593 236 OFFCURVE",
"487 287 CURVE SMOOTH",
"385 336 OFFCURVE",
"372 366 OFFCURVE",
"372 400 CURVE SMOOTH",
"372 435 OFFCURVE",
"382 455 OFFCURVE",
"438 474 CURVE SMOOTH",
"529 505 OFFCURVE",
"548 544 OFFCURVE",
"538 604 CURVE SMOOTH",
"526 674 OFFCURVE",
"465 765 OFFCURVE",
"325 765 CURVE SMOOTH",
"170 765 OFFCURVE",
"95 671 OFFCURVE",
"95 535 CURVE",
"40 535 LINE",
"35 529 OFFCURVE",
"29 505 OFFCURVE",
"29 491 CURVE",
"29 489 OFFCURVE",
"30 487 OFFCURVE",
"30 485 CURVE",
"95 485 LINE",
"95 50 LINE",
"72 42 OFFCURVE",
"48 36 OFFCURVE",
"25 30 CURVE",
"23 23 OFFCURVE",
"22 16 OFFCURVE",
"22 9 CURVE SMOOTH",
"22 5 OFFCURVE",
"22 0 OFFCURVE",
"23 -5 CURVE",
"60 -3 OFFCURVE",
"157 0 OFFCURVE",
"195 0 CURVE"
);
}
);
width = 630;
}
);
leftKerningGroup = _KERN_f_2ND;
unicode = 00DF;
},
{
glyphname = t;
lastChange = "2023-09-29 12:40:24 +0000";
layers = (
{
layerId = "E67231B9-FA09-451D-8B80-B70CA73DDE32";
paths = (
{
closed = 1;
nodes = (
"258 -16 OFFCURVE",
"298 7 OFFCURVE",
"313 24 CURVE",
"312 38 OFFCURVE",
"307 48 OFFCURVE",
"298 54 CURVE",
"279 43 OFFCURVE",
"259 34 OFFCURVE",
"238 34 CURVE SMOOTH",
"200 34 OFFCURVE",
"188 52 OFFCURVE",
"188 144 CURVE SMOOTH",
"188 438 LINE",
"293 438 LINE",
"303 456 OFFCURVE",
"302 475 OFFCURVE",
"293 493 CURVE",
"188 493 LINE",
"188 605 LINE",
"135 605 LINE",
"108 512 OFFCURVE",
"99 483 OFFCURVE",
"15 483 CURVE",
"12 468 OFFCURVE",
"12 453 OFFCURVE",
"20 438 CURVE",
"90 438 LINE",
"90 119 LINE SMOOTH",
"90 14 OFFCURVE",
"138 -16 OFFCURVE",
"203 -16 CURVE SMOOTH"
);
}
);
width = 323;
}
);
unicode = 0074;
},
{
glyphname = u;
lastChange = "2023-09-29 12:40:24 +0000";
layers = (
{
anchors = (
{
name = top;
position = "{280, 504}";
}
);
layerId = "E67231B9-FA09-451D-8B80-B70CA73DDE32";
paths = (
{
closed = 1;
nodes = (
"503 499 LINE",
"490 505 OFFCURVE",
"478 509 OFFCURVE",
"465 510 CURVE",
"423 499 OFFCURVE",
"383 490 OFFCURVE",
"335 483 CURVE",
"329 472 OFFCURVE",
"328 461 OFFCURVE",
"330 448 CURVE",
"403 440 LINE",
"403 118 LINE",
"372 83 OFFCURVE",
"321 54 OFFCURVE",
"278 54 CURVE SMOOTH",
"224 54 OFFCURVE",
"184 65 OFFCURVE",
"184 149 CURVE SMOOTH",
"184 499 LINE",
"171 505 OFFCURVE",
"159 509 OFFCURVE",
"146 510 CURVE",
"104 499 OFFCURVE",
"64 490 OFFCURVE",
"16 483 CURVE",
"10 472 OFFCURVE",
"9 461 OFFCURVE",
"11 448 CURVE",
"84 440 LINE",
"84 134 LINE SMOOTH",
"84 41 OFFCURVE",
"123 -16 OFFCURVE",
"219 -16 CURVE SMOOTH",
"287 -16 OFFCURVE",
"340 5 OFFCURVE",
"408 66 CURVE",
"413 66 LINE",
"430 -8 LINE",
"446 -12 OFFCURVE",
"466 -14 OFFCURVE",
"486 -14 CURVE SMOOTH",
"516 -14 OFFCURVE",
"547 -11 OFFCURVE",
"568 -7 CURVE",
"574 6 OFFCURVE",
"575 15 OFFCURVE",
"573 28 CURVE",
"550 33 OFFCURVE",
"526 35 OFFCURVE",
"503 48 CURVE"
);
}
);
width = 590;
}
);
leftKerningGroup = _KERN_u;
rightKerningGroup = _KERN_u;
unicode = 0075;
},
{
glyphname = v;
lastChange = "2023-09-29 12:40:24 +0000";
layers = (
{
guideLines = (
{
position = "{0, 450}";
}
);
layerId = "E67231B9-FA09-451D-8B80-B70CA73DDE32";
paths = (
{
closed = 1;
nodes = (
"269 -30 LINE",
"281 -30 OFFCURVE",
"304 -23 OFFCURVE",
"314 -17 CURVE",
"498 450 LINE",
"518 461 OFFCURVE",
"543 465 OFFCURVE",
"569 470 CURVE",
"573 482 OFFCURVE",
"573 493 OFFCURVE",
"571 505 CURVE",
"534 503 OFFCURVE",
"505 500 OFFCURVE",
"467 500 CURVE SMOOTH",
"430 500 OFFCURVE",
"400 503 OFFCURVE",
"364 505 CURVE",
"358 493 OFFCURVE",
"357 482 OFFCURVE",
"359 470 CURVE",
"438 450 LINE",
"343 207 LINE",
"329 168 OFFCURVE",
"320 132 OFFCURVE",
"310 94 CURVE",
"307 94 LINE",
"298 139 OFFCURVE",
"283 184 OFFCURVE",
"265 230 CURVE SMOOTH",
"179 450 LINE",
"200 461 OFFCURVE",
"224 465 OFFCURVE",
"248 470 CURVE",
"252 482 OFFCURVE",
"252 493 OFFCURVE",
"250 505 CURVE",
"213 503 OFFCURVE",
"159 500 OFFCURVE",
"121 500 CURVE SMOOTH",
"84 500 OFFCURVE",
"35 503 OFFCURVE",
"-1 505 CURVE",
"-7 493 OFFCURVE",
"-8 482 OFFCURVE",
"-6 470 CURVE",
"71 450 LINE"
);
}
);
width = 565;
}
);
unicode = 0076;
},
{
glyphname = w;
lastChange = "2023-09-29 12:40:24 +0000";
layers = (
{
guideLines = (
{
position = "{0, 93}";
}
);
layerId = "E67231B9-FA09-451D-8B80-B70CA73DDE32";
paths = (
{
closed = 1;
nodes = (
"554 -28 LINE",
"566 -28 OFFCURVE",
"592 -20 OFFCURVE",
"602 -14 CURVE",
"762 450 LINE",
"782 461 OFFCURVE",
"807 465 OFFCURVE",
"833 470 CURVE",
"837 482 OFFCURVE",
"837 493 OFFCURVE",
"835 505 CURVE",
"798 503 OFFCURVE",
"767 500 OFFCURVE",
"729 500 CURVE SMOOTH",
"692 500 OFFCURVE",
"665 503 OFFCURVE",
"629 505 CURVE",
"623 493 OFFCURVE",
"622 482 OFFCURVE",
"624 470 CURVE",
"701 450 LINE",
"630 224 LINE SMOOTH",
"615 178 OFFCURVE",
"601 134 OFFCURVE",
"591 89 CURVE",
"588 89 LINE",
"576 137 OFFCURVE",
"561 183 OFFCURVE",
"546 232 CURVE SMOOTH",
"479 450 LINE",
"496 460 OFFCURVE",
"524 464 OFFCURVE",
"548 470 CURVE",
"552 482 OFFCURVE",
"552 493 OFFCURVE",
"550 505 CURVE",
"513 503 OFFCURVE",
"473 500 OFFCURVE",
"435 500 CURVE SMOOTH",
"398 500 OFFCURVE",
"352 503 OFFCURVE",
"316 505 CURVE",
"310 493 OFFCURVE",
"309 482 OFFCURVE",
"311 470 CURVE",
"388 450 LINE",
"402 408 LINE",
"338 237 LINE SMOOTH",
"323 195 OFFCURVE",
"309 145 OFFCURVE",
"297 99 CURVE",
"294 99 LINE",
"283 144 OFFCURVE",
"268 195 OFFCURVE",
"252 241 CURVE SMOOTH",
"178 450 LINE",
"196 459 OFFCURVE",
"223 464 OFFCURVE",
"247 470 CURVE",
"251 482 OFFCURVE",
"251 493 OFFCURVE",
"249 505 CURVE",
"212 503 OFFCURVE",
"161 500 OFFCURVE",
"123 500 CURVE SMOOTH",
"86 500 OFFCURVE",
"37 503 OFFCURVE",
"1 505 CURVE",
"-5 493 OFFCURVE",
"-6 482 OFFCURVE",
"-4 470 CURVE",
"73 450 LINE",
"257 -27 LINE",
"269 -27 OFFCURVE",
"294 -20 OFFCURVE",
"304 -14 CURVE",
"428 333 LINE"
);
}
);
width = 832;
}
);
unicode = 0077;
},
{
glyphname = x;
lastChange = "2023-09-29 12:40:24 +0000";
layers = (
{
layerId = "E67231B9-FA09-451D-8B80-B70CA73DDE32";
paths = (
{
closed = 1;
nodes = (
"472 450 LINE",
"493 460 OFFCURVE",
"518 465 OFFCURVE",
"544 470 CURVE",
"548 482 OFFCURVE",
"548 493 OFFCURVE",
"546 505 CURVE",
"509 503 OFFCURVE",
"479 500 OFFCURVE",
"441 500 CURVE SMOOTH",
"404 500 OFFCURVE",
"368 503 OFFCURVE",
"332 505 CURVE",
"326 493 OFFCURVE",
"325 482 OFFCURVE",
"327 470 CURVE",
"406 450 LINE",
"292 308 LINE",
"194 450 LINE",
"206 457 OFFCURVE",
"235 466 OFFCURVE",
"261 470 CURVE",
"265 482 OFFCURVE",
"265 493 OFFCURVE",
"263 505 CURVE",
"226 503 OFFCURVE",
"172 500 OFFCURVE",
"134 500 CURVE SMOOTH",
"97 500 OFFCURVE",
"48 503 OFFCURVE",
"12 505 CURVE",
"6 493 OFFCURVE",
"5 482 OFFCURVE",
"7 470 CURVE",
"84 450 LINE",
"232 233 LINE",
"85 50 LINE",
"66 38 OFFCURVE",
"40 34 OFFCURVE",
"13 30 CURVE",
"9 18 OFFCURVE",
"9 7 OFFCURVE",
"11 -5 CURVE",
"48 -3 OFFCURVE",
"75 0 OFFCURVE",
"113 0 CURVE SMOOTH",
"150 0 OFFCURVE",
"175 -3 OFFCURVE",
"211 -5 CURVE",
"217 7 OFFCURVE",
"218 18 OFFCURVE",
"216 30 CURVE",
"149 50 LINE",
"261 190 LINE",
"360 47 LINE",
"300 30 LINE",
"296 18 OFFCURVE",
"296 7 OFFCURVE",
"298 -5 CURVE",
"335 -3 OFFCURVE",
"382 0 OFFCURVE",
"420 0 CURVE SMOOTH",
"457 0 OFFCURVE",
"496 -3 OFFCURVE",
"532 -5 CURVE",
"538 7 OFFCURVE",
"539 18 OFFCURVE",
"537 30 CURVE",
"515 36 OFFCURVE",
"492 38 OFFCURVE",
"470 50 CURVE",
"321 265 LINE"
);
}
);
width = 538;
}
);
unicode = 0078;
},
{
glyphname = y;
lastChange = "2023-09-29 12:40:24 +0000";
layers = (
{
anchors = (
{
name = top;
position = "{315, 504}";
}
);
guideLines = (
{
position = "{0, 450}";
},
{
angle = 71.74;
position = "{348, 0}";
},
{
angle = 71.74;
position = "{282, 0}";
}
);
layerId = "E67231B9-FA09-451D-8B80-B70CA73DDE32";
paths = (
{
closed = 1;
nodes = (
"183 -270 OFFCURVE",
"255 -179 OFFCURVE",
"307 -47 CURVE SMOOTH",
"503 450 LINE",
"522 461 OFFCURVE",
"548 464 OFFCURVE",
"572 470 CURVE",
"576 482 OFFCURVE",
"576 493 OFFCURVE",
"574 505 CURVE",
"537 503 OFFCURVE",
"515 500 OFFCURVE",
"477 500 CURVE SMOOTH",
"440 500 OFFCURVE",
"415 503 OFFCURVE",
"379 505 CURVE",
"373 493 OFFCURVE",
"372 482 OFFCURVE",
"374 470 CURVE",
"443 450 LINE",
"358 227 LINE SMOOTH",
"332 161 OFFCURVE",
"327 124 OFFCURVE",
"319 94 CURVE",
"316 94 LINE",
"304 158 OFFCURVE",
"275 224 OFFCURVE",
"265 249 CURVE SMOOTH",
"182 450 LINE",
"203 461 OFFCURVE",
"227 464 OFFCURVE",
"251 470 CURVE",
"255 482 OFFCURVE",
"255 493 OFFCURVE",
"253 505 CURVE",
"216 503 OFFCURVE",
"167 500 OFFCURVE",
"129 500 CURVE SMOOTH",
"92 500 OFFCURVE",
"47 503 OFFCURVE",
"11 505 CURVE",
"5 493 OFFCURVE",
"4 482 OFFCURVE",
"6 470 CURVE",
"83 450 LINE",
"265 -4 LINE",
"232 -94 OFFCURVE",
"192 -168 OFFCURVE",
"156 -202 CURVE",
"92 -127 LINE",
"80 -127 OFFCURVE",
"62 -135 OFFCURVE",
"54 -141 CURVE",
"60 -186 OFFCURVE",
"88 -235 OFFCURVE",
"111 -269 CURVE"
);
}
);
width = 573;
}
);
leftKerningGroup = _KERN_y;
rightKerningGroup = _KERN_y;
unicode = 0079;
},
{
glyphname = z;
lastChange = "2023-09-29 12:40:24 +0000";
layers = (
{
layerId = "E67231B9-FA09-451D-8B80-B70CA73DDE32";
paths = (
{
closed = 1;
nodes = (
"137 45 LINE",
"426 463 LINE",
"424 475 OFFCURVE",
"420 488 OFFCURVE",
"412 500 CURVE",
"37 500 LINE",
"39 445 OFFCURVE",
"45 394 OFFCURVE",
"53 347 CURVE",
"63 345 OFFCURVE",
"87 346 OFFCURVE",
"98 351 CURVE",
"116 455 LINE",
"301 455 LINE",
"26 34 LINE",
"28 19 OFFCURVE",
"32 7 OFFCURVE",
"36 0 CURVE",
"430 0 LINE",
"431 20 OFFCURVE",
"431 41 OFFCURVE",
"431 61 CURVE SMOOTH",
"431 95 OFFCURVE",
"430 129 OFFCURVE",
"424 163 CURVE",
"414 165 OFFCURVE",
"390 164 OFFCURVE",
"379 159 CURVE",
"351 45 LINE"
);
}
);
width = 469;
}
);
unicode = 007A;
},
{
glyphname = ordfeminine;
lastChange = "2023-09-29 12:40:24 +0000";
layers = (
{
associatedMasterId = "E67231B9-FA09-451D-8B80-B70CA73DDE32";
layerId = "37E99AEB-8AF4-41FE-81C5-9E9421C04E2B";
name = public.background;
width = 393;
},
{
layerId = "E67231B9-FA09-451D-8B80-B70CA73DDE32";
paths = (
{
closed = 1;
nodes = (
"113 529 OFFCURVE",
"149 541 OFFCURVE",
"235 541 CURVE",
"235 463 LINE",
"222 444 OFFCURVE",
"191 425 OFFCURVE",
"168 425 CURVE SMOOTH",
"138 425 OFFCURVE",
"113 444 OFFCURVE",
"113 478 CURVE SMOOTH"
);
},
{
closed = 1;
nodes = (
"307 584 LINE",
"303 683 OFFCURVE",
"286 720 OFFCURVE",
"197 720 CURVE SMOOTH",
"150 720 OFFCURVE",
"105 714 OFFCURVE",
"63 696 CURVE",
"64 677 OFFCURVE",
"66 632 OFFCURVE",
"75 612 CURVE",
"81 611 OFFCURVE",
"100 611 OFFCURVE",
"107 615 CURVE",
"116 673 LINE",
"136 679 OFFCURVE",
"156 683 OFFCURVE",
"177 683 CURVE SMOOTH",
"220 683 OFFCURVE",
"235 670 OFFCURVE",
"235 582 CURVE",
"147 584 OFFCURVE",
"45 556 OFFCURVE",
"45 472 CURVE SMOOTH",
"45 425 OFFCURVE",
"68 380 OFFCURVE",
"144 380 CURVE SMOOTH",
"186 380 OFFCURVE",
"217 400 OFFCURVE",
"239 422 CURVE",
"243 422 LINE",
"254 384 LINE",
"265 381 OFFCURVE",
"281 380 OFFCURVE",
"297 380 CURVE SMOOTH",
"316 380 OFFCURVE",
"336 381 OFFCURVE",
"348 383 CURVE",
"352 391 OFFCURVE",
"352 408 OFFCURVE",
"351 416 CURVE",
"336 418 OFFCURVE",
"322 421 OFFCURVE",
"307 428 CURVE"
);
}
);
width = 393;
}
);
unicode = 00AA;
},
{
glyphname = ordmasculine;
lastChange = "2023-09-29 12:40:24 +0000";
layers = (
{
associatedMasterId = "E67231B9-FA09-451D-8B80-B70CA73DDE32";
layerId = "37E99AEB-8AF4-41FE-81C5-9E9421C04E2B";
name = public.background;
width = 413;
},
{
guideLines = (
{
position = "{0, 378}";
}
);
layerId = "E67231B9-FA09-451D-8B80-B70CA73DDE32";
paths = (
{
closed = 1;
nodes = (
"96 723 OFFCURVE",
"40 635 OFFCURVE",
"40 547 CURVE SMOOTH",
"40 460 OFFCURVE",
"96 375 OFFCURVE",
"208 375 CURVE SMOOTH",
"313 375 OFFCURVE",
"373 461 OFFCURVE",
"373 554 CURVE SMOOTH",
"373 639 OFFCURVE",
"321 723 OFFCURVE",
"212 723 CURVE SMOOTH"
);
},
{
closed = 1;
nodes = (
"270 686 OFFCURVE",
"305 624 OFFCURVE",
"305 552 CURVE SMOOTH",
"305 480 OFFCURVE",
"270 413 OFFCURVE",
"208 413 CURVE SMOOTH",
"142 413 OFFCURVE",
"109 480 OFFCURVE",
"109 552 CURVE SMOOTH",
"109 624 OFFCURVE",
"142 686 OFFCURVE",
"208 686 CURVE SMOOTH"
);
}
);
width = 413;
}
);
unicode = 00BA;
},
{
glyphname = zero;
lastChange = "2023-09-29 12:40:24 +0000";
layers = (
{
guideLines = (
{
angle = 90;
position = "{305, 0}";
}
);
layerId = "E67231B9-FA09-451D-8B80-B70CA73DDE32";
paths = (
{
closed = 1;
nodes = (
"195 25 OFFCURVE",
"158 190 OFFCURVE",
"158 342 CURVE SMOOTH",
"158 484 OFFCURVE",
"192 673 OFFCURVE",
"305 673 CURVE SMOOTH",
"418 673 OFFCURVE",
"452 484 OFFCURVE",
"452 342 CURVE SMOOTH",
"452 190 OFFCURVE",
"415 25 OFFCURVE",
"305 25 CURVE SMOOTH"
);
},
{
closed = 1;
nodes = (
"438 -15 OFFCURVE",
"558 80 OFFCURVE",
"558 338 CURVE SMOOTH",
"558 567 OFFCURVE",
"458 713 OFFCURVE",
"305 713 CURVE SMOOTH",
"152 713 OFFCURVE",
"52 567 OFFCURVE",
"52 338 CURVE SMOOTH",
"52 80 OFFCURVE",
"172 -15 OFFCURVE",
"305 -15 CURVE SMOOTH"
);
}
);
width = 610;
}
);
unicode = 0030;
},
{
glyphname = one;
lastChange = "2023-09-29 12:40:24 +0000";
layers = (
{
layerId = "E67231B9-FA09-451D-8B80-B70CA73DDE32";
paths = (
{
closed = 1;
nodes = (
"238 690 LINE",
"225 696 OFFCURVE",
"211 700 OFFCURVE",
"198 701 CURVE",
"151 683 OFFCURVE",
"97 668 OFFCURVE",
"34 656 CURVE",
"28 645 OFFCURVE",
"27 634 OFFCURVE",
"29 621 CURVE",
"138 611 LINE",
"138 50 LINE",
"106 37 OFFCURVE",
"78 35 OFFCURVE",
"49 30 CURVE",
"45 18 OFFCURVE",
"45 7 OFFCURVE",
"47 -5 CURVE",
"84 -3 OFFCURVE",
"151 0 OFFCURVE",
"189 0 CURVE SMOOTH",
"226 0 OFFCURVE",
"295 -3 OFFCURVE",
"331 -5 CURVE",
"337 7 OFFCURVE",
"338 18 OFFCURVE",
"336 30 CURVE",
"238 50 LINE"
);
}
);
width = 360;
}
);
unicode = 0031;
},
{
glyphname = two;
lastChange = "2023-09-29 12:40:24 +0000";
layers = (
{
layerId = "E67231B9-FA09-451D-8B80-B70CA73DDE32";
paths = (
{
closed = 1;
nodes = (
"130 75 LINE",
"127 78 LINE",
"185 144 OFFCURVE",
"460 381 OFFCURVE",
"460 532 CURVE SMOOTH",
"460 700 OFFCURVE",
"335 713 OFFCURVE",
"237 713 CURVE SMOOTH",
"175 713 OFFCURVE",
"99 694 OFFCURVE",
"49 670 CURVE",
"48 610 OFFCURVE",
"59 558 OFFCURVE",
"71 506 CURVE",
"83 502 OFFCURVE",
"105 505 OFFCURVE",
"113 509 CURVE",
"126 640 LINE",
"154 651 OFFCURVE",
"187 660 OFFCURVE",
"222 660 CURVE SMOOTH",
"291 660 OFFCURVE",
"350 633 OFFCURVE",
"350 535 CURVE SMOOTH",
"350 370 OFFCURVE",
"139 173 OFFCURVE",
"39 55 CURVE",
"39 0 LINE",
"481 0 LINE",
"481 58 OFFCURVE",
"479 117 OFFCURVE",
"471 175 CURVE",
"458 180 OFFCURVE",
"451 180 OFFCURVE",
"435 178 CURVE",
"413 75 LINE"
);
}
);
width = 518;
}
);
unicode = 0032;
},
{
glyphname = three;
lastChange = "2023-09-29 12:40:24 +0000";
layers = (
{
guideLines = (
{
angle = 90;
position = "{443, 0}";
}
);
layerId = "E67231B9-FA09-451D-8B80-B70CA73DDE32";
paths = (
{
closed = 1;
nodes = (
"459 295 OFFCURVE",
"396 351 OFFCURVE",
"278 368 CURVE",
"278 372 LINE",
"355 390 OFFCURVE",
"430 454 OFFCURVE",
"430 543 CURVE SMOOTH",
"430 669 OFFCURVE",
"342 713 OFFCURVE",
"245 713 CURVE SMOOTH",
"182 713 OFFCURVE",
"116 697 OFFCURVE",
"64 674 CURVE",
"64 618 OFFCURVE",
"74 566 OFFCURVE",
"87 515 CURVE",
"91 514 OFFCURVE",
"94 514 OFFCURVE",
"98 514 CURVE SMOOTH",
"106 514 OFFCURVE",
"115 516 OFFCURVE",
"123 520 CURVE",
"142 645 LINE",
"167 656 OFFCURVE",
"195 663 OFFCURVE",
"222 663 CURVE SMOOTH",
"284 663 OFFCURVE",
"338 628 OFFCURVE",
"338 535 CURVE SMOOTH",
"338 451 OFFCURVE",
"271 387 OFFCURVE",
"169 383 CURVE",
"169 343 LINE",
"283 341 OFFCURVE",
"353 291 OFFCURVE",
"353 178 CURVE SMOOTH",
"353 82 OFFCURVE",
"287 35 OFFCURVE",
"214 35 CURVE SMOOTH",
"184 35 OFFCURVE",
"153 41 OFFCURVE",
"124 51 CURVE",
"107 180 LINE",
"99 183 OFFCURVE",
"91 186 OFFCURVE",
"82 186 CURVE SMOOTH",
"78 186 OFFCURVE",
"75 186 OFFCURVE",
"71 185 CURVE",
"53 130 OFFCURVE",
"48 76 OFFCURVE",
"46 21 CURVE",
"98 -3 OFFCURVE",
"163 -17 OFFCURVE",
"225 -17 CURVE SMOOTH",
"346 -17 OFFCURVE",
"459 55 OFFCURVE",
"459 180 CURVE SMOOTH"
);
}
);
width = 512;
}
);
unicode = 0033;
},
{
glyphname = four;
lastChange = "2023-09-29 12:40:24 +0000";
layers = (
{
guideLines = (
{
angle = 81.25;
position = "{458, 0}";
}
);
layerId = "E67231B9-FA09-451D-8B80-B70CA73DDE32";
paths = (
{
closed = 1;
nodes = (
"342 598 LINE",
"344 598 LINE",
"339 494 LINE",
"339 272 LINE",
"116 272 LINE",
"282 506 LINE"
);
},
{
closed = 1;
nodes = (
"339 50 LINE",
"313 40 OFFCURVE",
"287 34 OFFCURVE",
"259 30 CURVE",
"255 18 OFFCURVE",
"255 7 OFFCURVE",
"257 -5 CURVE",
"294 -3 OFFCURVE",
"351 0 OFFCURVE",
"389 0 CURVE SMOOTH",
"426 0 OFFCURVE",
"475 -3 OFFCURVE",
"511 -5 CURVE",
"517 7 OFFCURVE",
"518 18 OFFCURVE",
"516 30 CURVE",
"434 50 LINE",
"434 204 LINE",
"529 204 LINE",
"541 225 OFFCURVE",
"543 253 OFFCURVE",
"539 272 CURVE",
"434 272 LINE",
"434 738 LINE",
"406 736 OFFCURVE",
"386 730 OFFCURVE",
"364 720 CURVE",
"30 239 LINE",
"29 226 OFFCURVE",
"33 215 OFFCURVE",
"37 204 CURVE",
"339 204 LINE"
);
}
);
width = 560;
}
);
unicode = 0034;
},
{
glyphname = five;
lastChange = "2023-09-29 12:40:24 +0000";
layers = (
{
guideLines = (
{
angle = 81.25;
position = "{318, 0}";
}
);
layerId = "E67231B9-FA09-451D-8B80-B70CA73DDE32";
paths = (
{
closed = 1;
nodes = (
"467 350 OFFCURVE",
"374 429 OFFCURVE",
"242 429 CURVE SMOOTH",
"207 429 OFFCURVE",
"171 425 OFFCURVE",
"133 416 CURVE",
"137 610 LINE",
"410 610 LINE",
"422 632 OFFCURVE",
"426 657 OFFCURVE",
"426 677 CURVE SMOOTH",
"426 686 OFFCURVE",
"425 694 OFFCURVE",
"424 700 CURVE",
"76 700 LINE",
"76 355 LINE",
"114 361 OFFCURVE",
"148 365 OFFCURVE",
"180 365 CURVE SMOOTH",
"293 365 OFFCURVE",
"365 320 OFFCURVE",
"365 203 CURVE SMOOTH",
"365 94 OFFCURVE",
"296 36 OFFCURVE",
"215 36 CURVE SMOOTH",
"186 36 OFFCURVE",
"155 43 OFFCURVE",
"124 58 CURVE",
"105 189 LINE",
"96 193 OFFCURVE",
"78 195 OFFCURVE",
"70 195 CURVE",
"57 140 OFFCURVE",
"49 85 OFFCURVE",
"46 30 CURVE",
"95 -3 OFFCURVE",
"151 -18 OFFCURVE",
"207 -18 CURVE SMOOTH",
"341 -18 OFFCURVE",
"467 83 OFFCURVE",
"467 222 CURVE SMOOTH"
);
}
);
width = 502;
}
);
unicode = 0035;
},
{
glyphname = six;
lastChange = "2023-09-29 12:40:24 +0000";
layers = (
{
layerId = "E67231B9-FA09-451D-8B80-B70CA73DDE32";
paths = (
{
closed = 1;
nodes = (
"443 668 OFFCURVE",
"443 672 OFFCURVE",
"443 677 CURVE SMOOTH",
"443 692 OFFCURVE",
"440 715 OFFCURVE",
"436 720 CURVE",
"206 687 OFFCURVE",
"42 562 OFFCURVE",
"42 295 CURVE SMOOTH",
"42 110 OFFCURVE",
"128 -15 OFFCURVE",
"296 -15 CURVE SMOOTH",
"417 -15 OFFCURVE",
"524 75 OFFCURVE",
"524 217 CURVE SMOOTH",
"524 385 OFFCURVE",
"422 463 OFFCURVE",
"314 463 CURVE SMOOTH",
"266 463 OFFCURVE",
"199 445 OFFCURVE",
"148 410 CURVE",
"175 558 OFFCURVE",
"278 643 OFFCURVE",
"442 666 CURVE"
);
},
{
closed = 1;
nodes = (
"140 336 OFFCURVE",
"140 349 OFFCURVE",
"141 362 CURVE",
"186 392 OFFCURVE",
"243 408 OFFCURVE",
"286 408 CURVE SMOOTH",
"363 408 OFFCURVE",
"424 347 OFFCURVE",
"424 218 CURVE SMOOTH",
"424 110 OFFCURVE",
"373 28 OFFCURVE",
"295 28 CURVE SMOOTH",
"210 28 OFFCURVE",
"140 115 OFFCURVE",
"140 323 CURVE SMOOTH"
);
}
);
width = 546;
}
);
unicode = 0036;
},
{
glyphname = seven;
lastChange = "2023-09-29 12:40:24 +0000";
layers = (
{
layerId = "E67231B9-FA09-451D-8B80-B70CA73DDE32";
paths = (
{
closed = 1;
nodes = (
"383 625 LINE",
"386 622 LINE",
"99 0 LINE",
"189 0 LINE",
"465 660 LINE",
"467 673 OFFCURVE",
"469 687 OFFCURVE",
"465 700 CURVE",
"26 700 LINE",
"28 631 OFFCURVE",
"35 573 OFFCURVE",
"42 520 CURVE",
"54 516 OFFCURVE",
"67 516 OFFCURVE",
"81 520 CURVE",
"99 625 LINE"
);
}
);
width = 475;
}
);
unicode = 0037;
},
{
glyphname = eight;
lastChange = "2023-09-29 12:40:24 +0000";
layers = (
{
layerId = "E67231B9-FA09-451D-8B80-B70CA73DDE32";
paths = (
{
closed = 1;
nodes = (
"508 280 OFFCURVE",
"429 333 OFFCURVE",
"352 375 CURVE",
"439 431 OFFCURVE",
"470 485 OFFCURVE",
"470 547 CURVE SMOOTH",
"470 639 OFFCURVE",
"399 712 OFFCURVE",
"278 712 CURVE SMOOTH",
"149 712 OFFCURVE",
"72 628 OFFCURVE",
"72 534 CURVE SMOOTH",
"72 459 OFFCURVE",
"119 402 OFFCURVE",
"185 361 CURVE",
"97 322 OFFCURVE",
"38 277 OFFCURVE",
"38 178 CURVE SMOOTH",
"38 57 OFFCURVE",
"138 -15 OFFCURVE",
"264 -15 CURVE SMOOTH",
"381 -15 OFFCURVE",
"508 57 OFFCURVE",
"508 188 CURVE SMOOTH"
);
},
{
closed = 1;
nodes = (
"130 244 OFFCURVE",
"168 299 OFFCURVE",
"229 336 CURVE",
"322 292 OFFCURVE",
"419 242 OFFCURVE",
"419 159 CURVE SMOOTH",
"419 72 OFFCURVE",
"356 26 OFFCURVE",
"277 26 CURVE SMOOTH",
"197 26 OFFCURVE",
"130 79 OFFCURVE",
"130 183 CURVE SMOOTH"
);
},
{
closed = 1;
nodes = (
"382 473 OFFCURVE",
"345 431 OFFCURVE",
"308 401 CURVE",
"228 440 OFFCURVE",
"157 477 OFFCURVE",
"157 560 CURVE SMOOTH",
"157 629 OFFCURVE",
"199 671 OFFCURVE",
"265 671 CURVE SMOOTH",
"318 671 OFFCURVE",
"382 639 OFFCURVE",
"382 540 CURVE SMOOTH"
);
}
);
width = 547;
}
);
unicode = 0038;
},
{
glyphname = fraction;
lastChange = "2023-09-29 12:40:24 +0000";
layers = (
{
associatedMasterId = "E67231B9-FA09-451D-8B80-B70CA73DDE32";
layerId = "37E99AEB-8AF4-41FE-81C5-9E9421C04E2B";
name = public.background;
width = 334;
},
{
layerId = "E67231B9-FA09-451D-8B80-B70CA73DDE32";
paths = (
{
closed = 1;
nodes = (
"345 706 LINE",
"322 710 OFFCURVE",
"299 707 OFFCURVE",
"278 700 CURVE",
"-12 -7 LINE",
"12 -11 OFFCURVE",
"39 -6 OFFCURVE",
"55 0 CURVE"
);
}
);
width = 334;
}
);
unicode = 2044;
},
{
glyphname = onesuperior;
lastChange = "2023-09-29 12:40:24 +0000";
layers = (
{
associatedMasterId = "E67231B9-FA09-451D-8B80-B70CA73DDE32";
layerId = "37E99AEB-8AF4-41FE-81C5-9E9421C04E2B";
name = public.background;
width = 325;
},
{
guideLines = (
{
angle = 90;
position = "{46, 0}";
}
);
layerId = "E67231B9-FA09-451D-8B80-B70CA73DDE32";
paths = (
{
closed = 1;
nodes = (
"210 713 LINE",
"180 720 LINE",
"143 699 OFFCURVE",
"90 684 OFFCURVE",
"45 675 CURVE",
"44 663 OFFCURVE",
"46 654 OFFCURVE",
"50 646 CURVE",
"130 642 LINE",
"130 364 LINE",
"51 344 LINE",
"47 332 OFFCURVE",
"47 321 OFFCURVE",
"49 309 CURVE",
"86 311 OFFCURVE",
"132 314 OFFCURVE",
"170 314 CURVE SMOOTH",
"207 314 OFFCURVE",
"252 311 OFFCURVE",
"288 309 CURVE",
"294 321 OFFCURVE",
"295 332 OFFCURVE",
"293 344 CURVE",
"210 364 LINE"
);
}
);
width = 325;
}
);
unicode = 00B9;
},
{
glyphname = twosuperior;
lastChange = "2023-09-29 12:40:24 +0000";
layers = (
{
associatedMasterId = "E67231B9-FA09-451D-8B80-B70CA73DDE32";
layerId = "37E99AEB-8AF4-41FE-81C5-9E9421C04E2B";
name = public.background;
width = 389;
},
{
guideLines = (
{
position = "{0, 843}";
}
);
layerId = "E67231B9-FA09-451D-8B80-B70CA73DDE32";
paths = (
{
closed = 1;
nodes = (
"104 377 LINE",
"104 380 LINE",
"213 463 OFFCURVE",
"312 527 OFFCURVE",
"312 615 CURVE SMOOTH",
"312 679 OFFCURVE",
"276 727 OFFCURVE",
"186 727 CURVE SMOOTH",
"134 727 OFFCURVE",
"93 718 OFFCURVE",
"56 700 CURVE",
"54 663 OFFCURVE",
"59 629 OFFCURVE",
"65 597 CURVE",
"69 596 OFFCURVE",
"75 595 OFFCURVE",
"81 595 CURVE SMOOTH",
"88 595 OFFCURVE",
"95 596 OFFCURVE",
"99 597 CURVE",
"112 677 LINE",
"129 686 OFFCURVE",
"156 690 OFFCURVE",
"176 690 CURVE SMOOTH",
"213 690 OFFCURVE",
"234 661 OFFCURVE",
"234 608 CURVE SMOOTH",
"234 528 OFFCURVE",
"163 467 OFFCURVE",
"45 377 CURVE",
"45 314 LINE",
"326 314 LINE",
"327 329 OFFCURVE",
"328 345 OFFCURVE",
"328 360 CURVE SMOOTH",
"328 390 OFFCURVE",
"326 419 OFFCURVE",
"321 449 CURVE",
"316 449 OFFCURVE",
"310 450 OFFCURVE",
"305 450 CURVE SMOOTH",
"300 450 OFFCURVE",
"296 450 OFFCURVE",
"291 449 CURVE",
"275 377 LINE"
);
}
);
width = 389;
}
);
unicode = 00B2;
},
{
glyphname = threesuperior;
lastChange = "2023-09-29 12:40:24 +0000";
layers = (
{
associatedMasterId = "E67231B9-FA09-451D-8B80-B70CA73DDE32";
layerId = "37E99AEB-8AF4-41FE-81C5-9E9421C04E2B";
name = public.background;
width = 385;
},
{
guideLines = (
{
angle = 90;
position = "{55, 0}";
}
);
layerId = "E67231B9-FA09-451D-8B80-B70CA73DDE32";
paths = (
{
closed = 1;
nodes = (
"262 369 OFFCURVE",
"235 343 OFFCURVE",
"184 343 CURVE SMOOTH",
"164 343 OFFCURVE",
"127 347 OFFCURVE",
"110 356 CURVE",
"97 434 LINE",
"93 435 OFFCURVE",
"86 436 OFFCURVE",
"79 436 CURVE SMOOTH",
"73 436 OFFCURVE",
"67 435 OFFCURVE",
"63 434 CURVE",
"57 402 OFFCURVE",
"52 368 OFFCURVE",
"54 331 CURVE",
"91 313 OFFCURVE",
"130 304 OFFCURVE",
"182 304 CURVE SMOOTH",
"272 304 OFFCURVE",
"340 344 OFFCURVE",
"340 422 CURVE SMOOTH",
"340 493 OFFCURVE",
"293 517 OFFCURVE",
"225 528 CURVE",
"225 530 LINE",
"283 546 OFFCURVE",
"321 572 OFFCURVE",
"321 631 CURVE SMOOTH",
"321 695 OFFCURVE",
"275 727 OFFCURVE",
"185 727 CURVE SMOOTH",
"133 727 OFFCURVE",
"97 718 OFFCURVE",
"60 700 CURVE",
"58 663 OFFCURVE",
"63 629 OFFCURVE",
"69 597 CURVE",
"73 596 OFFCURVE",
"79 595 OFFCURVE",
"85 595 CURVE SMOOTH",
"92 595 OFFCURVE",
"99 596 OFFCURVE",
"103 597 CURVE",
"116 677 LINE",
"133 686 OFFCURVE",
"151 690 OFFCURVE",
"171 690 CURVE SMOOTH",
"213 690 OFFCURVE",
"246 671 OFFCURVE",
"246 618 CURVE SMOOTH",
"246 571 OFFCURVE",
"210 542 OFFCURVE",
"144 542 CURVE",
"144 501 LINE",
"227 501 OFFCURVE",
"262 477 OFFCURVE",
"262 420 CURVE SMOOTH"
);
}
);
width = 385;
}
);
unicode = 00B3;
},
{
glyphname = foursuperior;
lastChange = "2023-09-29 12:40:24 +0000";
layers = (
{
associatedMasterId = "E67231B9-FA09-451D-8B80-B70CA73DDE32";
layerId = "37E99AEB-8AF4-41FE-81C5-9E9421C04E2B";
name = public.background;
width = 389;
},
{
guideLines = (
{
angle = 90;
position = "{22, 0}";
},
{
angle = 90;
position = "{65, 0}";
}
);
layerId = "E67231B9-FA09-451D-8B80-B70CA73DDE32";
paths = (
{
closed = 1;
nodes = (
"271 364 LINE",
"271 419 LINE",
"329 419 LINE",
"340 438 OFFCURVE",
"342 451 OFFCURVE",
"338 468 CURVE",
"271 468 LINE",
"271 715 LINE",
"254 723 OFFCURVE",
"233 729 OFFCURVE",
"205 729 CURVE",
"19 437 LINE",
"25 419 LINE",
"191 419 LINE",
"191 364 LINE",
"122 344 LINE",
"118 332 OFFCURVE",
"118 321 OFFCURVE",
"120 309 CURVE",
"157 311 OFFCURVE",
"193 314 OFFCURVE",
"231 314 CURVE SMOOTH",
"268 314 OFFCURVE",
"303 311 OFFCURVE",
"339 309 CURVE",
"345 321 OFFCURVE",
"346 332 OFFCURVE",
"344 344 CURVE"
);
},
{
closed = 1;
nodes = (
"91 468 LINE",
"155 567 LINE",
"189 630 LINE",
"191 628 LINE",
"191 468 LINE"
);
}
);
width = 389;
}
);
unicode = 2074;
},
{
glyphname = .notdef;
lastChange = "2023-09-29 12:40:24 +0000";
layers = (
{
associatedMasterId = "E67231B9-FA09-451D-8B80-B70CA73DDE32";
layerId = "37E99AEB-8AF4-41FE-81C5-9E9421C04E2B";
name = public.background;
paths = (
{
closed = 1;
nodes = (
"675 231 OFFCURVE",
"678 272 OFFCURVE",
"675 291 CURVE",
"674 296 OFFCURVE",
"673 293 OFFCURVE",
"673 291 CURVE",
"668 265 OFFCURVE",
"659 249 OFFCURVE",
"648 240 CURVE",
"640 252 OFFCURVE",
"637 266 OFFCURVE",
"637 284 CURVE",
"656 292 OFFCURVE",
"666 328 OFFCURVE",
"666 357 CURVE SMOOTH",
"666 389 OFFCURVE",
"658 402 OFFCURVE",
"628 407 CURVE",
"608 370 OFFCURVE",
"602 306 OFFCURVE",
"612 258 CURVE",
"613 255 LINE",
"610 251 OFFCURVE",
"605 239 OFFCURVE",
"599 240 CURVE",
"592 266 OFFCURVE",
"594 308 OFFCURVE",
"598 335 CURVE",
"594 340 OFFCURVE",
"581 344 OFFCURVE",
"575 343 CURVE",
"574 341 OFFCURVE",
"571 328 OFFCURVE",
"571 325 CURVE",
"564 327 OFFCURVE",
"557 328 OFFCURVE",
"552 328 CURVE",
"539 315 OFFCURVE",
"536 298 OFFCURVE",
"535 280 CURVE",
"535 266 LINE",
"531 257 OFFCURVE",
"525 246 OFFCURVE",
"516 241 CURVE",
"512 245 OFFCURVE",
"509 252 OFFCURVE",
"507 259 CURVE",
"521 264 OFFCURVE",
"529 283 OFFCURVE",
"529 300 CURVE SMOOTH",
"529 326 OFFCURVE",
"513 335 OFFCURVE",
"491 333 CURVE",
"485 323 OFFCURVE",
"481 300 OFFCURVE",
"480 281 CURVE SMOOTH",
"479 256 OFFCURVE",
"488 234 OFFCURVE",
"515 234 CURVE",
"527 235 OFFCURVE",
"534 242 OFFCURVE",
"538 249 CURVE",
"541 240 OFFCURVE",
"548 233 OFFCURVE",
"562 234 CURVE",
"568 234 OFFCURVE",
"577 239 OFFCURVE",
"579 247 CURVE",
"581 239 OFFCURVE",
"589 231 OFFCURVE",
"599 231 CURVE SMOOTH",
"608 231 OFFCURVE",
"614 238 OFFCURVE",
"616 247 CURVE",
"622 236 OFFCURVE",
"631 231 OFFCURVE",
"644 231 CURVE SMOOTH"
);
},
{
closed = 1;
nodes = (
"391 339 OFFCURVE",
"377 344 OFFCURVE",
"368 343 CURVE",
"370 323 OFFCURVE",
"378 285 OFFCURVE",
"371 253 CURVE",
"370 251 OFFCURVE",
"369 247 OFFCURVE",
"366 246 CURVE",
"359 270 OFFCURVE",
"359 296 OFFCURVE",
"360 323 CURVE",
"353 330 OFFCURVE",
"341 332 OFFCURVE",
"335 333 CURVE",
"333 328 OFFCURVE",
"331 318 OFFCURVE",
"331 306 CURVE SMOOTH",
"331 292 OFFCURVE",
"332 278 OFFCURVE",
"335 266 CURVE",
"332 257 OFFCURVE",
"323 243 OFFCURVE",
"309 238 CURVE",
"277 262 OFFCURVE",
"289 365 OFFCURVE",
"306 382 CURVE",
"310 376 OFFCURVE",
"316 355 OFFCURVE",
"314 341 CURVE",
"313 340 OFFCURVE",
"313 337 OFFCURVE",
"316 340 CURVE",
"326 348 OFFCURVE",
"333 359 OFFCURVE",
"333 371 CURVE SMOOTH",
"333 403 OFFCURVE",
"309 409 OFFCURVE",
"293 412 CURVE",
"265 388 OFFCURVE",
"255 345 OFFCURVE",
"256 304 CURVE SMOOTH",
"257 267 OFFCURVE",
"271 230 OFFCURVE",
"311 230 CURVE SMOOTH",
"328 230 OFFCURVE",
"336 241 OFFCURVE",
"340 252 CURVE",
"345 240 OFFCURVE",
"354 233 OFFCURVE",
"367 233 CURVE",
"369 233 OFFCURVE",
"373 236 OFFCURVE",
"374 238 CURVE",
"370 204 OFFCURVE",
"369 181 OFFCURVE",
"348 167 CURVE",
"345 178 OFFCURVE",
"347 190 OFFCURVE",
"349 200 CURVE",
"342 207 OFFCURVE",
"332 210 OFFCURVE",
"323 210 CURVE",
"321 203 OFFCURVE",
"319 195 OFFCURVE",
"319 187 CURVE SMOOTH",
"319 168 OFFCURVE",
"324 158 OFFCURVE",
"343 158 CURVE SMOOTH",
"393 158 OFFCURVE",
"408 249 OFFCURVE",
"398 331 CURVE"
);
},
{
closed = 1;
nodes = (
"413 308 OFFCURVE",
"414 263 OFFCURVE",
"416 232 CURVE",
"428 230 OFFCURVE",
"435 238 OFFCURVE",
"437 248 CURVE",
"440 255 OFFCURVE",
"440 271 OFFCURVE",
"440 279 CURVE",
"443 289 OFFCURVE",
"449 296 OFFCURVE",
"453 303 CURVE",
"454 289 OFFCURVE",
"463 283 OFFCURVE",
"477 287 CURVE",
"475 299 OFFCURVE",
"476 316 OFFCURVE",
"479 329 CURVE",
"474 335 OFFCURVE",
"464 339 OFFCURVE",
"453 339 CURVE",
"452 335 OFFCURVE",
"449 327 OFFCURVE",
"449 323 CURVE",
"447 315 OFFCURVE",
"444 308 OFFCURVE",
"437 297 CURVE",
"436 311 OFFCURVE",
"434 321 OFFCURVE",
"429 328 CURVE",
"426 332 OFFCURVE",
"419 333 QCURVE",
"412 335 OFFCURVE",
"402 335 QCURVE"
);
},
{
closed = 1;
nodes = (
"555 264 OFFCURVE",
"561 304 OFFCURVE",
"569 313 CURVE",
"568 304 OFFCURVE",
"568 280 OFFCURVE",
"573 261 CURVE",
"572 254 OFFCURVE",
"565 247 OFFCURVE",
"561 243 CURVE"
);
},
{
closed = 1;
nodes = (
"638 323 OFFCURVE",
"643 353 OFFCURVE",
"648 374 CURVE",
"652 354 OFFCURVE",
"648 313 OFFCURVE",
"637 296 CURVE"
);
},
{
closed = 1;
nodes = (
"516 311 OFFCURVE",
"519 305 OFFCURVE",
"519 297 CURVE SMOOTH",
"519 284 OFFCURVE",
"514 270 OFFCURVE",
"507 268 CURVE",
"507 285 OFFCURVE",
"509 300 OFFCURVE",
"513 314 CURVE"
);
},
{
closed = 1;
nodes = (
"445 98 LINE",
"444 94 OFFCURVE",
"436 79 OFFCURVE",
"426 79 CURVE",
"432 74 OFFCURVE",
"437 69 OFFCURVE",
"437 64 CURVE SMOOTH",
"437 57 OFFCURVE",
"393 49 OFFCURVE",
"350 26 CURVE",
"370 20 OFFCURVE",
"380 19 OFFCURVE",
"393 5 CURVE",
"392 -1 OFFCURVE",
"390 1 OFFCURVE",
"387 -1 CURVE",
"364 10 OFFCURVE",
"358 12 OFFCURVE",
"336 13 CURVE SMOOTH",
"311 14 OFFCURVE",
"290 -1 OFFCURVE",
"272 -19 CURVE",
"269 -18 OFFCURVE",
"265 -17 OFFCURVE",
"263 -13 CURVE",
"273 3 OFFCURVE",
"287 11 OFFCURVE",
"300 17 CURVE",
"275 19 OFFCURVE",
"260 13 OFFCURVE",
"242 4 CURVE",
"239 6 OFFCURVE",
"238 6 OFFCURVE",
"238 11 CURVE",
"268 33 OFFCURVE",
"300 29 OFFCURVE",
"321 29 CURVE",
"351 44 OFFCURVE",
"386 57 OFFCURVE",
"416 67 CURVE",
"404 79 LINE",
"390 79 OFFCURVE",
"386 97 OFFCURVE",
"386 103 CURVE",
"253 122 OFFCURVE",
"182 190 OFFCURVE",
"174 311 CURVE SMOOTH",
"169 387 OFFCURVE",
"165 441 OFFCURVE",
"121 467 CURVE",
"36 483 LINE",
"36 483 OFFCURVE",
"30 483 OFFCURVE",
"33 488 CURVE",
"95 517 LINE",
"95 566 OFFCURVE",
"138 619 OFFCURVE",
"203 619 CURVE SMOOTH",
"260 619 OFFCURVE",
"299 591 OFFCURVE",
"339 521 CURVE",
"368 479 OFFCURVE",
"567 471 OFFCURVE",
"794 426 CURVE",
"836 428 OFFCURVE",
"1114 458 OFFCURVE",
"1121 458 CURVE",
"1131 460 OFFCURVE",
"1136 444 OFFCURVE",
"1127 436 CURVE SMOOTH",
"1066 380 OFFCURVE",
"912 388 OFFCURVE",
"870 345 CURVE SMOOTH",
"808 281 OFFCURVE",
"719 163 OFFCURVE",
"586 117 CURVE",
"587 109 OFFCURVE",
"588 94 OFFCURVE",
"579 85 CURVE",
"587 79 OFFCURVE",
"592 77 OFFCURVE",
"592 71 CURVE SMOOTH",
"592 60 OFFCURVE",
"551 43 OFFCURVE",
"517 14 CURVE",
"538 13 OFFCURVE",
"558 12 OFFCURVE",
"574 2 CURVE",
"574 -1 OFFCURVE",
"574 -2 OFFCURVE",
"571 -6 CURVE",
"546 0 OFFCURVE",
"524 2 OFFCURVE",
"501 -1 CURVE",
"477 -6 OFFCURVE",
"461 -27 OFFCURVE",
"448 -48 CURVE",
"443 -49 OFFCURVE",
"441 -48 OFFCURVE",
"440 -44 CURVE",
"445 -26 OFFCURVE",
"454 -13 OFFCURVE",
"467 -5 CURVE",
"441 -9 OFFCURVE",
"434 -14 OFFCURVE",
"418 -28 CURVE",
"415 -26 OFFCURVE",
"413 -26 OFFCURVE",
"413 -21 CURVE",
"436 10 OFFCURVE",
"464 7 OFFCURVE",
"485 12 CURVE",
"513 34 OFFCURVE",
"543 52 OFFCURVE",
"569 69 CURVE",
"567 72 OFFCURVE",
"561 75 OFFCURVE",
"554 79 CURVE",
"538 77 OFFCURVE",
"529 94 OFFCURVE",
"527 102 CURVE",
"509 99 OFFCURVE",
"491 98 OFFCURVE",
"472 98 CURVE SMOOTH"
);
}
);
width = 965;
},
{
hints = (
{
place = "{34, 911}";
type = Stem;
},
{
horizontal = 1;
place = "{-1, 21}";
target = up;
type = BottomGhost;
},
{
horizontal = 1;
place = "{37, 12}";
type = Stem;
},
{
horizontal = 1;
place = "{-4, 21}";
target = up;
type = BottomGhost;
},
{
horizontal = 1;
place = "{-16, 84}";
type = Stem;
}
);
layerId = "E67231B9-FA09-451D-8B80-B70CA73DDE32";
paths = (
{
closed = 1;
nodes = (
"662 158 LINE",
"667 159 OFFCURVE",
"690 187 OFFCURVE",
"689 192 CURVE",
"673 207 OFFCURVE",
"638 235 OFFCURVE",
"599 270 CURVE",
"631 313 OFFCURVE",
"659 348 OFFCURVE",
"672 367 CURVE",
"664 374 OFFCURVE",
"648 387 OFFCURVE",
"635 393 CURVE",
"561 300 LINE",
"521 332 OFFCURVE",
"483 360 OFFCURVE",
"464 373 CURVE",
"457 365 OFFCURVE",
"444 350 OFFCURVE",
"438 334 CURVE",
"529 262 LINE",
"457 169 LINE",
"458 163 OFFCURVE",
"486 141 OFFCURVE",
"491 142 CURVE",
"569 230 LINE"
);
},
{
closed = 1;
nodes = (
"881 471 LINE",
"880 472 LINE",
"879 373 OFFCURVE",
"849 216 OFFCURVE",
"639 73 CURVE",
"639 66 OFFCURVE",
"636 49 OFFCURVE",
"621 49 CURVE",
"609 37 LINE",
"640 26 OFFCURVE",
"673 14 OFFCURVE",
"704 -1 CURVE",
"725 -1 OFFCURVE",
"756 4 OFFCURVE",
"787 -19 CURVE",
"787 -24 OFFCURVE",
"786 -23 OFFCURVE",
"783 -26 CURVE",
"764 -17 OFFCURVE",
"750 -10 OFFCURVE",
"725 -13 CURVE",
"738 -20 OFFCURVE",
"751 -27 OFFCURVE",
"762 -43 CURVE",
"761 -46 OFFCURVE",
"758 -48 OFFCURVE",
"753 -49 CURVE",
"734 -30 OFFCURVE",
"714 -16 OFFCURVE",
"689 -17 CURVE",
"667 -17 OFFCURVE",
"661 -21 OFFCURVE",
"638 -31 CURVE",
"635 -28 OFFCURVE",
"633 -32 OFFCURVE",
"632 -25 CURVE",
"645 -10 OFFCURVE",
"655 -11 OFFCURVE",
"675 -4 CURVE",
"632 20 OFFCURVE",
"588 26 OFFCURVE",
"588 34 CURVE SMOOTH",
"588 38 OFFCURVE",
"592 43 OFFCURVE",
"599 49 CURVE",
"588 49 OFFCURVE",
"581 64 OFFCURVE",
"580 68 CURVE",
"553 68 LINE SMOOTH",
"534 68 OFFCURVE",
"517 69 OFFCURVE",
"498 72 CURVE",
"495 64 OFFCURVE",
"487 46 OFFCURVE",
"471 49 CURVE",
"464 45 OFFCURVE",
"459 42 OFFCURVE",
"456 39 CURVE",
"483 22 OFFCURVE",
"512 5 OFFCURVE",
"540 -18 CURVE",
"562 -23 OFFCURVE",
"589 -20 OFFCURVE",
"612 -51 CURVE",
"612 -56 OFFCURVE",
"610 -55 OFFCURVE",
"607 -58 CURVE",
"591 -43 OFFCURVE",
"585 -39 OFFCURVE",
"558 -35 CURVE",
"571 -43 OFFCURVE",
"580 -56 OFFCURVE",
"585 -74 CURVE",
"584 -77 OFFCURVE",
"582 -79 OFFCURVE",
"577 -78 CURVE",
"564 -57 OFFCURVE",
"548 -36 OFFCURVE",
"524 -31 CURVE",
"503 -28 OFFCURVE",
"479 -30 OFFCURVE",
"454 -36 CURVE",
"452 -33 OFFCURVE",
"451 -31 OFFCURVE",
"451 -28 CURVE",
"467 -17 OFFCURVE",
"487 -17 OFFCURVE",
"508 -16 CURVE",
"474 12 OFFCURVE",
"433 30 OFFCURVE",
"433 41 CURVE SMOOTH",
"433 48 OFFCURVE",
"438 48 OFFCURVE",
"446 55 CURVE",
"437 64 OFFCURVE",
"438 79 OFFCURVE",
"439 87 CURVE",
"322 151 OFFCURVE",
"262 254 OFFCURVE",
"225 315 CURVE",
"154 339 OFFCURVE",
"82 361 OFFCURVE",
"39 396 CURVE",
"30 404 OFFCURVE",
"32 418 OFFCURVE",
"45 418 CURVE",
"301 396 LINE",
"529 442 OFFCURVE",
"609 448 OFFCURVE",
"638 491 CURVE",
"678 562 OFFCURVE",
"717 589 OFFCURVE",
"774 589 CURVE SMOOTH",
"792 589 OFFCURVE",
"808 586 OFFCURVE",
"821 582 CURVE",
"821 583 LINE",
"895 609 LINE",
"896 609 OFFCURVE",
"898 609 OFFCURVE",
"898 607 CURVE",
"898 606 LINE",
"873 537 LINE",
"943 540 LINE",
"945 540 OFFCURVE",
"946 539 OFFCURVE",
"945 537 CURVE"
);
}
);
width = 965;
}
);
},
{
glyphname = period;
lastChange = "2023-09-29 12:40:24 +0000";
layers = (
{
layerId = "E67231B9-FA09-451D-8B80-B70CA73DDE32";
paths = (
{
closed = 1;
nodes = (
"47 23 OFFCURVE",
"73 -15 OFFCURVE",
"105 -15 CURVE SMOOTH",
"138 -15 OFFCURVE",
"173 15 OFFCURVE",
"173 41 CURVE SMOOTH",
"173 67 OFFCURVE",
"150 106 OFFCURVE",
"114 106 CURVE SMOOTH",
"83 106 OFFCURVE",
"47 75 OFFCURVE",
"47 50 CURVE SMOOTH"
);
}
);
width = 220;
}
);
leftKerningGroup = _KERN_period;
rightKerningGroup = _KERN_period;
unicode = 002E;
},
{
glyphname = comma;
lastChange = "2023-09-29 12:40:24 +0000";
layers = (
{
layerId = "E67231B9-FA09-451D-8B80-B70CA73DDE32";
paths = (
{
closed = 1;
nodes = (
"47 13 OFFCURVE",
"73 -15 OFFCURVE",
"105 -15 CURVE SMOOTH",
"128 -15 OFFCURVE",
"140 -21 OFFCURVE",
"140 -33 CURVE SMOOTH",
"140 -70 OFFCURVE",
"113 -116 OFFCURVE",
"80 -137 CURVE",
"86 -152 OFFCURVE",
"95 -161 OFFCURVE",
"106 -165 CURVE",
"158 -136 OFFCURVE",
"193 -72 OFFCURVE",
"193 -1 CURVE SMOOTH",
"193 26 OFFCURVE",
"186 51 OFFCURVE",
"172 73 CURVE SMOOTH",
"158 95 OFFCURVE",
"139 106 OFFCURVE",
"114 106 CURVE SMOOTH",
"75 106 OFFCURVE",
"47 83 OFFCURVE",
"47 50 CURVE SMOOTH"
);
}
);
width = 235;
}
);
leftKerningGroup = _KERN_period;
rightKerningGroup = _KERN_period;
unicode = 002C;
},
{
glyphname = exclam;
lastChange = "2023-09-29 12:40:24 +0000";
layers = (
{
layerId = "E67231B9-FA09-451D-8B80-B70CA73DDE32";
paths = (
{
closed = 1;
nodes = (
"105 170 LINE",
"122 164 OFFCURVE",
"137 166 OFFCURVE",
"151 170 CURVE",
"181 700 LINE",
"175 710 OFFCURVE",
"144 717 OFFCURVE",
"126 717 CURVE SMOOTH",
"109 717 OFFCURVE",
"81 709 OFFCURVE",
"74 700 CURVE"
);
},
{
closed = 1;
nodes = (
"61 23 OFFCURVE",
"87 -15 OFFCURVE",
"119 -15 CURVE SMOOTH",
"152 -15 OFFCURVE",
"187 15 OFFCURVE",
"187 41 CURVE SMOOTH",
"187 67 OFFCURVE",
"164 106 OFFCURVE",
"128 106 CURVE SMOOTH",
"97 106 OFFCURVE",
"61 75 OFFCURVE",
"61 50 CURVE SMOOTH"
);
}
);
width = 254;
}
);
unicode = 0021;
},
{
glyphname = exclamdown;
lastChange = "2023-09-29 12:40:24 +0000";
layers = (
{
layerId = "E67231B9-FA09-451D-8B80-B70CA73DDE32";
paths = (
{
closed = 1;
nodes = (
"64 -174 LINE",
"71 -183 OFFCURVE",
"99 -191 OFFCURVE",
"116 -191 CURVE SMOOTH",
"136 -191 OFFCURVE",
"166 -183 OFFCURVE",
"171 -174 CURVE",
"141 356 LINE",
"126 361 OFFCURVE",
"110 361 OFFCURVE",
"95 356 CURVE"
);
},
{
closed = 1;
nodes = (
"51 463 OFFCURVE",
"58 451 OFFCURVE",
"73 438 CURVE",
"88 426 OFFCURVE",
"103 420 OFFCURVE",
"118 420 CURVE SMOOTH",
"151 420 OFFCURVE",
"177 456 OFFCURVE",
"177 485 CURVE SMOOTH",
"177 512 OFFCURVE",
"142 541 OFFCURVE",
"109 541 CURVE SMOOTH",
"78 541 OFFCURVE",
"51 505 OFFCURVE",
"51 476 CURVE SMOOTH"
);
}
);
width = 234;
}
);
unicode = 00A1;
},
{
glyphname = question;
lastChange = "2023-09-29 12:40:24 +0000";
layers = (
{
layerId = "E67231B9-FA09-451D-8B80-B70CA73DDE32";
paths = (
{
closed = 1;
nodes = (
"122 23 OFFCURVE",
"148 -15 OFFCURVE",
"180 -15 CURVE SMOOTH",
"213 -15 OFFCURVE",
"248 15 OFFCURVE",
"248 41 CURVE SMOOTH",
"248 67 OFFCURVE",
"225 106 OFFCURVE",
"189 106 CURVE SMOOTH",
"158 106 OFFCURVE",
"122 75 OFFCURVE",
"122 50 CURVE SMOOTH"
);
},
{
closed = 1;
nodes = (
"200 167 OFFCURVE",
"203 170 OFFCURVE",
"204 174 CURVE",
"196 203 OFFCURVE",
"189 227 OFFCURVE",
"189 249 CURVE SMOOTH",
"189 405 OFFCURVE",
"388 418 OFFCURVE",
"388 577 CURVE SMOOTH",
"388 661 OFFCURVE",
"306 705 OFFCURVE",
"220 705 CURVE SMOOTH",
"158 705 OFFCURVE",
"107 693 OFFCURVE",
"50 663 CURVE",
"49 651 OFFCURVE",
"48 639 OFFCURVE",
"48 628 CURVE SMOOTH",
"48 597 OFFCURVE",
"53 567 OFFCURVE",
"63 528 CURVE",
"75 524 OFFCURVE",
"89 525 OFFCURVE",
"97 529 CURVE",
"110 571 OFFCURVE",
"114 601 OFFCURVE",
"119 646 CURVE",
"140 663 OFFCURVE",
"175 670 OFFCURVE",
"202 670 CURVE SMOOTH",
"255 670 OFFCURVE",
"291 637 OFFCURVE",
"291 576 CURVE SMOOTH",
"291 459 OFFCURVE",
"127 396 OFFCURVE",
"127 275 CURVE SMOOTH",
"127 244 OFFCURVE",
"139 211 OFFCURVE",
"162 173 CURVE",
"170 169 OFFCURVE",
"182 167 OFFCURVE",
"191 167 CURVE SMOOTH"
);
}
);
width = 432;
}
);
unicode = 003F;
},
{
glyphname = questiondown;
lastChange = "2023-09-29 12:40:24 +0000";
layers = (
{
layerId = "E67231B9-FA09-451D-8B80-B70CA73DDE32";
paths = (
{
closed = 1;
nodes = (
"310 494 OFFCURVE",
"283 530 OFFCURVE",
"252 530 CURVE SMOOTH",
"219 530 OFFCURVE",
"184 501 OFFCURVE",
"184 474 CURVE SMOOTH",
"184 445 OFFCURVE",
"210 409 OFFCURVE",
"243 409 CURVE SMOOTH",
"258 409 OFFCURVE",
"273 415 OFFCURVE",
"288 427 CURVE",
"303 440 OFFCURVE",
"310 452 OFFCURVE",
"310 465 CURVE SMOOTH"
);
},
{
closed = 1;
nodes = (
"234 348 OFFCURVE",
"229 346 OFFCURVE",
"228 341 CURVE",
"238 308 OFFCURVE",
"243 283 OFFCURVE",
"243 266 CURVE SMOOTH",
"246 116 OFFCURVE",
"38 89 OFFCURVE",
"44 -62 CURVE",
"44 -101 OFFCURVE",
"60 -132 OFFCURVE",
"92 -155 CURVE SMOOTH",
"125 -178 OFFCURVE",
"165 -190 OFFCURVE",
"212 -190 CURVE SMOOTH",
"272 -191 OFFCURVE",
"329 -177 OFFCURVE",
"382 -148 CURVE",
"384 -129 OFFCURVE",
"384 -110 OFFCURVE",
"383 -93 CURVE SMOOTH",
"382 -76 OFFCURVE",
"378 -49 OFFCURVE",
"369 -13 CURVE",
"356 -9 OFFCURVE",
"345 -9 OFFCURVE",
"335 -14 CURVE",
"325 -45 OFFCURVE",
"318 -84 OFFCURVE",
"313 -131 CURVE",
"292 -147 OFFCURVE",
"264 -155 OFFCURVE",
"230 -155 CURVE SMOOTH",
"175 -155 OFFCURVE",
"141 -121 OFFCURVE",
"141 -61 CURVE SMOOTH",
"141 51 OFFCURVE",
"305 122 OFFCURVE",
"305 240 CURVE SMOOTH",
"305 269 OFFCURVE",
"293 303 OFFCURVE",
"270 342 CURVE",
"262 346 OFFCURVE",
"252 348 OFFCURVE",
"241 348 CURVE SMOOTH"
);
}
);
width = 423;
}
);
unicode = 00BF;
},
{
glyphname = periodcentered;
lastChange = "2023-09-29 12:40:24 +0000";
layers = (
{
associatedMasterId = "E67231B9-FA09-451D-8B80-B70CA73DDE32";
layerId = "37E99AEB-8AF4-41FE-81C5-9E9421C04E2B";
name = public.background;
width = 244;
},
{
layerId = "E67231B9-FA09-451D-8B80-B70CA73DDE32";
paths = (
{
closed = 1;
nodes = (
"59 252 OFFCURVE",
"87 235 OFFCURVE",
"122 235 CURVE SMOOTH",
"157 235 OFFCURVE",
"185 252 OFFCURVE",
"185 303 CURVE SMOOTH",
"185 354 OFFCURVE",
"157 371 OFFCURVE",
"122 371 CURVE SMOOTH",
"87 371 OFFCURVE",
"59 354 OFFCURVE",
"59 303 CURVE SMOOTH"
);
}
);
width = 244;
}
);
unicode = 00B7;
},
{
glyphname = bullet;
lastChange = "2023-09-29 12:40:24 +0000";
layers = (
{
guideLines = (
{
position = "{0, 519}";
},
{
position = "{0, 228}";
}
);
layerId = "E67231B9-FA09-451D-8B80-B70CA73DDE32";
paths = (
{
closed = 1;
nodes = (
"49 320 OFFCURVE",
"112 228 OFFCURVE",
"191 228 CURVE SMOOTH",
"268 228 OFFCURVE",
"355 301 OFFCURVE",
"355 364 CURVE SMOOTH",
"355 426 OFFCURVE",
"297 519 OFFCURVE",
"213 519 CURVE SMOOTH",
"138 519 OFFCURVE",
"49 445 OFFCURVE",
"49 382 CURVE SMOOTH"
);
}
);
width = 404;
}
);
unicode = 2022;
},
{
glyphname = asterisk;
lastChange = "2023-09-29 12:40:24 +0000";
layers = (
{
layerId = "E67231B9-FA09-451D-8B80-B70CA73DDE32";
paths = (
{
closed = 1;
nodes = (
"52 467 LINE",
"52 459 LINE",
"52 458 OFFCURVE",
"53 457 OFFCURVE",
"53 456 CURVE",
"53 453 LINE",
"53 452 OFFCURVE",
"54 452 OFFCURVE",
"54 451 CURVE",
"54 450 LINE",
"56 445 LINE",
"59 439 LINE",
"59 438 LINE",
"60 438 LINE",
"60 437 LINE",
"63 433 LINE",
"66 430 LINE",
"71 424 OFFCURVE",
"78 418 OFFCURVE",
"83 416 CURVE",
"85 416 LINE",
"200 499 LINE",
"184 358 LINE",
"187 351 OFFCURVE",
"204 347 OFFCURVE",
"215 347 CURVE SMOOTH",
"226 347 OFFCURVE",
"243 352 OFFCURVE",
"246 358 CURVE",
"231 498 LINE",
"346 414 LINE",
"354 414 OFFCURVE",
"366 426 OFFCURVE",
"371 435 CURVE",
"376 445 OFFCURVE",
"381 462 OFFCURVE",
"378 468 CURVE",
"248 526 LINE",
"379 582 LINE",
"383 589 OFFCURVE",
"378 606 OFFCURVE",
"373 615 CURVE",
"367 624 OFFCURVE",
"354 636 OFFCURVE",
"347 637 CURVE",
"232 553 LINE",
"249 695 LINE",
"245 702 OFFCURVE",
"229 706 OFFCURVE",
"218 706 CURVE SMOOTH",
"207 706 OFFCURVE",
"191 701 OFFCURVE",
"186 695 CURVE",
"201 554 LINE",
"86 639 LINE",
"79 639 OFFCURVE",
"67 627 OFFCURVE",
"61 618 CURVE",
"56 608 OFFCURVE",
"53 591 OFFCURVE",
"55 585 CURVE",
"184 527 LINE",
"54 471 LINE"
);
}
);
width = 432;
}
);
unicode = 002A;
},
{
glyphname = numbersign;
lastChange = "2023-09-29 12:40:24 +0000";
layers = (
{
layerId = "E67231B9-FA09-451D-8B80-B70CA73DDE32";
paths = (
{
closed = 1;
nodes = (
"10 0 LINE",
"22 -7 OFFCURVE",
"51 -4 OFFCURVE",
"71 0 CURVE",
"92 71 OFFCURVE",
"113 143 OFFCURVE",
"136 215 CURVE",
"288 215 LINE",
"215 0 LINE",
"227 -7 OFFCURVE",
"256 -4 OFFCURVE",
"276 0 CURVE",
"297 71 OFFCURVE",
"318 143 OFFCURVE",
"341 215 CURVE",
"461 215 LINE",
"468 226 OFFCURVE",
"472 243 OFFCURVE",
"472 261 CURVE",
"355 261 LINE",
"407 419 LINE",
"508 419 LINE",
"515 430 OFFCURVE",
"519 447 OFFCURVE",
"519 465 CURVE",
"422 465 LINE",
"454 562 OFFCURVE",
"470 608 OFFCURVE",
"504 705 CURVE",
"495 710 OFFCURVE",
"470 711 OFFCURVE",
"443 705 CURVE",
"413 608 OFFCURVE",
"401 561 OFFCURVE",
"370 465 CURVE",
"217 465 LINE",
"249 562 OFFCURVE",
"265 608 OFFCURVE",
"299 705 CURVE",
"290 710 OFFCURVE",
"265 711 OFFCURVE",
"238 705 CURVE",
"208 608 OFFCURVE",
"196 561 OFFCURVE",
"165 465 CURVE",
"54 465 LINE",
"47 457 OFFCURVE",
"41 433 OFFCURVE",
"43 419 CURVE",
"150 419 LINE",
"98 261 LINE",
"7 261 LINE",
"0 253 OFFCURVE",
"-6 229 OFFCURVE",
"-4 215 CURVE",
"83 215 LINE"
);
},
{
closed = 1;
nodes = (
"202 419 LINE",
"355 419 LINE",
"303 261 LINE",
"150 261 LINE"
);
}
);
width = 528;
}
);
unicode = 0023;
},
{
glyphname = slash;
lastChange = "2023-09-29 12:40:24 +0000";
layers = (
{
layerId = "E67231B9-FA09-451D-8B80-B70CA73DDE32";
paths = (
{
closed = 1;
nodes = (
"31 -100 LINE",
"55 -103 OFFCURVE",
"77 -100 OFFCURVE",
"99 -92 CURVE",
"437 707 LINE",
"415 710 OFFCURVE",
"392 705 OFFCURVE",
"370 700 CURVE"
);
}
);
width = 466;
}
);
unicode = 002F;
},
{
glyphname = hyphen;
lastChange = "2023-09-29 12:40:24 +0000";
layers = (
{
layerId = "E67231B9-FA09-451D-8B80-B70CA73DDE32";
paths = (
{
closed = 1;
nodes = (
"453 285 LINE",
"460 296 OFFCURVE",
"464 331 OFFCURVE",
"464 349 CURVE",
"74 349 LINE",
"67 341 OFFCURVE",
"61 299 OFFCURVE",
"63 285 CURVE"
);
}
);
width = 526;
}
);
leftKerningGroup = _KERN_hyphen;
rightKerningGroup = _KERN_hyphen;
unicode = 002D;
},
{
glyphname = softhyphen;
lastChange = "2023-09-29 12:40:24 +0000";
layers = (
{
associatedMasterId = "E67231B9-FA09-451D-8B80-B70CA73DDE32";
layerId = "37E99AEB-8AF4-41FE-81C5-9E9421C04E2B";
name = public.background;
width = 356;
},
{
layerId = "E67231B9-FA09-451D-8B80-B70CA73DDE32";
paths = (
{
closed = 1;
nodes = (
"283 285 LINE",
"290 296 OFFCURVE",
"294 331 OFFCURVE",
"294 349 CURVE",
"74 349 LINE",
"67 341 OFFCURVE",
"61 299 OFFCURVE",
"63 285 CURVE"
);
}
);
width = 356;
}
);
leftKerningGroup = _KERN_hyphen;
rightKerningGroup = _KERN_hyphen;
unicode = 00AD;
},
{
glyphname = endash;
lastChange = "2023-09-29 12:40:24 +0000";
layers = (
{
associatedMasterId = "E67231B9-FA09-451D-8B80-B70CA73DDE32";
layerId = "DA51D0F6-E92C-4977-9AEE-C0B7DC2D6803";
name = img;
width = 658;
},
{
associatedMasterId = "E67231B9-FA09-451D-8B80-B70CA73DDE32";
layerId = "37E99AEB-8AF4-41FE-81C5-9E9421C04E2B";
name = public.background;
width = 658;
},
{
layerId = "E67231B9-FA09-451D-8B80-B70CA73DDE32";
paths = (
{
closed = 1;
nodes = (
"585 285 LINE",
"592 296 OFFCURVE",
"596 331 OFFCURVE",
"596 349 CURVE",
"74 349 LINE",
"67 341 OFFCURVE",
"61 299 OFFCURVE",
"63 285 CURVE"
);
}
);
width = 658;
}
);
leftKerningGroup = _KERN_hyphen;
rightKerningGroup = _KERN_hyphen;
unicode = 2013;
},
{
glyphname = emdash;
lastChange = "2023-09-29 12:40:24 +0000";
layers = (
{
layerId = "E67231B9-FA09-451D-8B80-B70CA73DDE32";
paths = (
{
closed = 1;
nodes = (
"825 285 LINE",
"832 296 OFFCURVE",
"836 331 OFFCURVE",
"836 349 CURVE",
"74 349 LINE",
"67 341 OFFCURVE",
"61 299 OFFCURVE",
"63 285 CURVE"
);
}
);
width = 898;
}
);
leftKerningGroup = _KERN_hyphen;
rightKerningGroup = _KERN_hyphen;
unicode = 2014;
},
{
glyphname = underscore;
lastChange = "2023-09-29 12:40:24 +0000";
layers = (
{
layerId = "E67231B9-FA09-451D-8B80-B70CA73DDE32";
paths = (
{
closed = 1;
nodes = (
"580 -124 LINE",
"587 -113 OFFCURVE",
"591 -78 OFFCURVE",
"591 -60 CURVE",
"73 -60 LINE",
"66 -68 OFFCURVE",
"60 -110 OFFCURVE",
"62 -124 CURVE"
);
}
);
width = 654;
}
);
unicode = 005F;
},
{
glyphname = parenleft;
lastChange = "2023-09-29 12:40:24 +0000";
layers = (
{
layerId = "E67231B9-FA09-451D-8B80-B70CA73DDE32";
paths = (
{
closed = 1;
nodes = (
"36 120 OFFCURVE",
"95 -110 OFFCURVE",
"245 -220 CURVE",
"259 -216 OFFCURVE",
"268 -208 OFFCURVE",
"274 -198 CURVE",
"207 -126 OFFCURVE",
"124 55 OFFCURVE",
"124 285 CURVE SMOOTH",
"124 517 OFFCURVE",
"207 698 OFFCURVE",
"274 768 CURVE",
"269 780 OFFCURVE",
"261 789 OFFCURVE",
"245 790 CURVE",
"95 680 OFFCURVE",
"36 453 OFFCURVE",
"36 285 CURVE SMOOTH"
);
}
);
width = 284;
}
);
unicode = 0028;
},
{
glyphname = braceleft;
lastChange = "2023-09-29 12:40:24 +0000";
layers = (
{
guideLines = (
{
angle = 90;
position = "{350, 0}";
}
);
layerId = "E67231B9-FA09-451D-8B80-B70CA73DDE32";
paths = (
{
closed = 1;
nodes = (
"102 311 LINE",
"196 330 OFFCURVE",
"207 384 OFFCURVE",
"207 486 CURVE SMOOTH",
"207 572 LINE SMOOTH",
"207 685 OFFCURVE",
"218 708 OFFCURVE",
"278 709 CURVE",
"285 723 OFFCURVE",
"285 736 OFFCURVE",
"278 750 CURVE",
"147 750 OFFCURVE",
"124 709 OFFCURVE",
"124 561 CURVE SMOOTH",
"124 472 LINE SMOOTH",
"124 367 OFFCURVE",
"99 334 OFFCURVE",
"3 334 CURVE",
"-4 317 OFFCURVE",
"-4 300 OFFCURVE",
"3 281 CURVE",
"99 281 OFFCURVE",
"124 248 OFFCURVE",
"124 143 CURVE SMOOTH",
"124 56 LINE SMOOTH",
"124 -94 OFFCURVE",
"147 -134 OFFCURVE",
"278 -134 CURVE",
"285 -121 OFFCURVE",
"284 -107 OFFCURVE",
"278 -94 CURVE",
"218 -93 OFFCURVE",
"207 -68 OFFCURVE",
"207 43 CURVE SMOOTH",
"207 130 LINE SMOOTH",
"207 232 OFFCURVE",
"196 286 OFFCURVE",
"102 305 CURVE"
);
}
);
width = 309;
}
);
unicode = 007B;
},
{
glyphname = bracketleft;
lastChange = "2023-09-29 12:40:24 +0000";
layers = (
{
layerId = "E67231B9-FA09-451D-8B80-B70CA73DDE32";
paths = (
{
closed = 1;
nodes = (
"83 739 LINE",
"83 -136 LINE",
"270 -136 LINE",
"276 -120 OFFCURVE",
"274 -106 OFFCURVE",
"270 -93 CURVE",
"166 -93 LINE",
"166 695 LINE",
"270 695 LINE",
"276 710 OFFCURVE",
"277 724 OFFCURVE",
"270 739 CURVE"
);
}
);
width = 290;
}
);
unicode = 005B;
},
{
glyphname = quotesinglbase;
lastChange = "2023-09-29 12:40:24 +0000";
layers = (
{
associatedMasterId = "E67231B9-FA09-451D-8B80-B70CA73DDE32";
layerId = "37E99AEB-8AF4-41FE-81C5-9E9421C04E2B";
name = public.background;
width = 239;
},
{
layerId = "E67231B9-FA09-451D-8B80-B70CA73DDE32";
paths = (
{
closed = 1;
nodes = (
"191 99 OFFCURVE",
"155 129 OFFCURVE",
"114 129 CURVE SMOOTH",
"77 129 OFFCURVE",
"49 109 OFFCURVE",
"49 70 CURVE SMOOTH",
"49 26 OFFCURVE",
"79 8 OFFCURVE",
"133 13 CURVE",
"134 -65 OFFCURVE",
"92 -91 OFFCURVE",
"27 -112 CURVE",
"21 -126 OFFCURVE",
"22 -140 OFFCURVE",
"27 -154 CURVE",
"146 -120 OFFCURVE",
"191 -42 OFFCURVE",
"191 42 CURVE SMOOTH"
);
}
);
width = 239;
}
);
leftKerningGroup = _KERN_period;
rightKerningGroup = _KERN_period;
unicode = 201A;
},
{
glyphname = quoteleft;
lastChange = "2023-09-29 12:40:24 +0000";
layers = (
{
layerId = "E67231B9-FA09-451D-8B80-B70CA73DDE32";
paths = (
{
closed = 1;
nodes = (
"155 498 OFFCURVE",
"183 518 OFFCURVE",
"183 559 CURVE SMOOTH",
"183 594 OFFCURVE",
"162 615 OFFCURVE",
"132 615 CURVE SMOOTH",
"117 615 LINE SMOOTH",
"102 615 OFFCURVE",
"92 620 OFFCURVE",
"92 642 CURVE SMOOTH",
"92 676 OFFCURVE",
"103 697 OFFCURVE",
"145 726 CURVE",
"142 742 OFFCURVE",
"134 752 OFFCURVE",
"120 752 CURVE",
"72 730 OFFCURVE",
"39 673 OFFCURVE",
"39 607 CURVE SMOOTH",
"39 557 OFFCURVE",
"60 498 OFFCURVE",
"122 498 CURVE SMOOTH"
);
}
);
width = 215;
}
);
leftKerningGroup = _KERN_quoteleft;
rightKerningGroup = _KERN_quoteleft;
unicode = 2018;
},
{
glyphname = quoteright;
lastChange = "2023-09-29 12:40:24 +0000";
layers = (
{
layerId = "E67231B9-FA09-451D-8B80-B70CA73DDE32";
paths = (
{
closed = 1;
nodes = (
"53 752 OFFCURVE",
"25 732 OFFCURVE",
"25 691 CURVE SMOOTH",
"25 656 OFFCURVE",
"46 635 OFFCURVE",
"76 635 CURVE SMOOTH",
"91 635 LINE SMOOTH",
"106 635 OFFCURVE",
"116 630 OFFCURVE",
"116 608 CURVE SMOOTH",
"116 574 OFFCURVE",
"105 553 OFFCURVE",
"63 524 CURVE",
"66 508 OFFCURVE",
"74 498 OFFCURVE",
"88 498 CURVE",
"136 520 OFFCURVE",
"169 577 OFFCURVE",
"169 643 CURVE SMOOTH",
"169 693 OFFCURVE",
"148 752 OFFCURVE",
"86 752 CURVE SMOOTH"
);
}
);
width = 205;
}
);
leftKerningGroup = _KERN_quoteright;
rightKerningGroup = _KERN_quoteright;
unicode = 2019;
},
{
glyphname = guillemetleft;
lastChange = "2023-09-29 12:40:24 +0000";
layers = (
{
guideLines = (
{
position = "{0, 241}";
}
);
layerId = "E67231B9-FA09-451D-8B80-B70CA73DDE32";
paths = (
{
closed = 1;
nodes = (
"282 70 LINE",
"305 72 OFFCURVE",
"315 84 OFFCURVE",
"324 97 CURVE",
"135 288 LINE",
"135 292 LINE",
"324 483 LINE",
"315 496 OFFCURVE",
"305 508 OFFCURVE",
"282 510 CURVE",
"40 310 LINE",
"36 298 OFFCURVE",
"36 284 OFFCURVE",
"40 270 CURVE"
);
},
{
closed = 1;
nodes = (
"492 70 LINE",
"515 72 OFFCURVE",
"525 84 OFFCURVE",
"534 97 CURVE",
"345 288 LINE",
"345 292 LINE",
"534 483 LINE",
"525 496 OFFCURVE",
"515 508 OFFCURVE",
"492 510 CURVE",
"250 310 LINE",
"246 298 OFFCURVE",
"246 284 OFFCURVE",
"250 270 CURVE"
);
}
);
width = 574;
}
);
leftKerningGroup = _KERN_guilsinglleft;
rightKerningGroup = _KERN_guilsinglleft;
unicode = 00AB;
},
{
glyphname = guilsinglleft;
lastChange = "2023-09-29 12:40:24 +0000";
layers = (
{
associatedMasterId = "E67231B9-FA09-451D-8B80-B70CA73DDE32";
layerId = "37E99AEB-8AF4-41FE-81C5-9E9421C04E2B";
name = public.background;
width = 364;
},
{
guideLines = (
{
position = "{0, 241}";
}
);
layerId = "E67231B9-FA09-451D-8B80-B70CA73DDE32";
paths = (
{
closed = 1;
nodes = (
"282 70 LINE",
"305 72 OFFCURVE",
"315 84 OFFCURVE",
"324 97 CURVE",
"135 288 LINE",
"135 292 LINE",
"324 483 LINE",
"315 496 OFFCURVE",
"305 508 OFFCURVE",
"282 510 CURVE",
"40 310 LINE",
"36 298 OFFCURVE",
"36 284 OFFCURVE",
"40 270 CURVE"
);
}
);
width = 364;
}
);
leftKerningGroup = _KERN_guilsinglleft;
rightKerningGroup = _KERN_guilsinglleft;
unicode = 2039;
},
{
glyphname = quotesingle;
lastChange = "2023-09-29 12:40:24 +0000";
layers = (
{
layerId = "E67231B9-FA09-451D-8B80-B70CA73DDE32";
paths = (
{
closed = 1;
nodes = (
"146 707 LINE",
"140 717 OFFCURVE",
"114 724 OFFCURVE",
"96 724 CURVE SMOOTH",
"79 724 OFFCURVE",
"53 716 OFFCURVE",
"46 707 CURVE",
"75 438 LINE",
"88 432 OFFCURVE",
"102 433 OFFCURVE",
"115 438 CURVE"
);
}
);
width = 191;
}
);
leftKerningGroup = _KERN_quotesingle;
rightKerningGroup = _KERN_quotesingle;
unicode = 0027;
},
{
glyphname = at;
lastChange = "2023-09-29 12:40:24 +0000";
layers = (
{
layerId = "E67231B9-FA09-451D-8B80-B70CA73DDE32";
paths = (
{
closed = 1;
nodes = (
"613 -91 LINE",
"560 -120 OFFCURVE",
"508 -132 OFFCURVE",
"435 -132 CURVE SMOOTH",
"242 -132 OFFCURVE",
"135 -6 OFFCURVE",
"135 186 CURVE SMOOTH",
"135 368 OFFCURVE",
"251 538 OFFCURVE",
"442 538 CURVE SMOOTH",
"614 538 OFFCURVE",
"711 433 OFFCURVE",
"711 263 CURVE SMOOTH",
"711 96 OFFCURVE",
"637 19 OFFCURVE",
"590 19 CURVE SMOOTH",
"561 19 OFFCURVE",
"538 45 OFFCURVE",
"538 107 CURVE SMOOTH",
"538 124 OFFCURVE",
"539 143 OFFCURVE",
"543 165 CURVE SMOOTH",
"580 393 LINE",
"580 421 LINE",
"542 421 LINE",
"529 380 LINE",
"526 380 LINE",
"510 403 OFFCURVE",
"486 426 OFFCURVE",
"440 426 CURVE SMOOTH",
"294 426 OFFCURVE",
"227 257 OFFCURVE",
"227 131 CURVE SMOOTH",
"227 43 OFFCURVE",
"277 -18 OFFCURVE",
"341 -18 CURVE SMOOTH",
"383 -18 OFFCURVE",
"431 9 OFFCURVE",
"475 72 CURVE",
"479 72 LINE",
"491 -4 OFFCURVE",
"535 -40 OFFCURVE",
"585 -40 CURVE SMOOTH",
"673 -40 OFFCURVE",
"781 68 OFFCURVE",
"781 255 CURVE SMOOTH",
"781 447 OFFCURVE",
"651 589 OFFCURVE",
"447 589 CURVE SMOOTH",
"222 589 OFFCURVE",
"51 395 OFFCURVE",
"51 174 CURVE SMOOTH",
"51 -39 OFFCURVE",
"204 -187 OFFCURVE",
"417 -187 CURVE SMOOTH",
"478 -187 OFFCURVE",
"556 -177 OFFCURVE",
"631 -128 CURVE"
);
},
{
closed = 1;
nodes = (
"479 378 OFFCURVE",
"498 358 OFFCURVE",
"493 306 CURVE SMOOTH",
"474 101 OFFCURVE",
"407 52 OFFCURVE",
"366 52 CURVE SMOOTH",
"329 52 OFFCURVE",
"313 87 OFFCURVE",
"313 134 CURVE SMOOTH",
"313 231 OFFCURVE",
"376 378 OFFCURVE",
"449 378 CURVE SMOOTH"
);
}
);
width = 830;
}
);
unicode = 0040;
},
{
glyphname = ampersand;
lastChange = "2023-09-29 12:40:24 +0000";
layers = (
{
layerId = "E67231B9-FA09-451D-8B80-B70CA73DDE32";
paths = (
{
closed = 1;
nodes = (
"558 0 LINE",
"595 0 OFFCURVE",
"684 -3 OFFCURVE",
"720 -5 CURVE",
"726 7 OFFCURVE",
"727 18 OFFCURVE",
"725 30 CURVE",
"700 32 OFFCURVE",
"647 36 OFFCURVE",
"616 67 CURVE",
"539 149 LINE",
"572 209 OFFCURVE",
"608 279 OFFCURVE",
"626 347 CURVE",
"648 358 OFFCURVE",
"676 361 OFFCURVE",
"703 367 CURVE",
"707 376 OFFCURVE",
"710 389 OFFCURVE",
"708 402 CURVE",
"672 400 OFFCURVE",
"639 397 OFFCURVE",
"602 397 CURVE SMOOTH",
"565 397 OFFCURVE",
"535 400 OFFCURVE",
"499 402 CURVE",
"493 390 OFFCURVE",
"492 379 OFFCURVE",
"494 367 CURVE",
"571 347 LINE",
"561 303 OFFCURVE",
"533 240 OFFCURVE",
"505 186 CURVE",
"435 263 OFFCURVE",
"376 329 OFFCURVE",
"337 376 CURVE",
"404 404 OFFCURVE",
"468 480 OFFCURVE",
"468 568 CURVE SMOOTH",
"468 640 OFFCURVE",
"408 700 OFFCURVE",
"314 700 CURVE SMOOTH",
"204 700 OFFCURVE",
"149 628 OFFCURVE",
"149 554 CURVE SMOOTH",
"149 509 OFFCURVE",
"161 464 OFFCURVE",
"223 380 CURVE",
"126 355 OFFCURVE",
"50 264 OFFCURVE",
"50 179 CURVE SMOOTH",
"50 81 OFFCURVE",
"117 -13 OFFCURVE",
"267 -15 CURVE SMOOTH",
"358 -16 OFFCURVE",
"431 23 OFFCURVE",
"485 78 CURVE"
);
},
{
closed = 1;
nodes = (
"413 72 OFFCURVE",
"362 51 OFFCURVE",
"309 51 CURVE SMOOTH",
"226 50 OFFCURVE",
"144 101 OFFCURVE",
"144 194 CURVE SMOOTH",
"144 261 OFFCURVE",
"176 323 OFFCURVE",
"247 349 CURVE",
"291 293 OFFCURVE",
"354 220 OFFCURVE",
"450 115 CURVE"
);
},
{
closed = 1;
nodes = (
"228 626 OFFCURVE",
"265 654 OFFCURVE",
"307 654 CURVE SMOOTH",
"367 654 OFFCURVE",
"392 619 OFFCURVE",
"392 558 CURVE SMOOTH",
"392 516 OFFCURVE",
"376 440 OFFCURVE",
"311 408 CURVE",
"236 500 OFFCURVE",
"228 525 OFFCURVE",
"228 575 CURVE SMOOTH"
);
}
);
width = 731;
}
);
unicode = 0026;
},
{
glyphname = paragraph;
lastChange = "2023-09-29 12:40:24 +0000";
layers = (
{
layerId = "E67231B9-FA09-451D-8B80-B70CA73DDE32";
paths = (
{
closed = 1;
nodes = (
"168 -80 LINE",
"179 -84 OFFCURVE",
"189 -86 OFFCURVE",
"200 -86 CURVE SMOOTH",
"211 -86 OFFCURVE",
"222 -84 OFFCURVE",
"233 -80 CURVE",
"233 650 LINE",
"281 650 LINE",
"281 -80 LINE",
"292 -84 OFFCURVE",
"302 -86 OFFCURVE",
"313 -86 CURVE SMOOTH",
"324 -86 OFFCURVE",
"335 -84 OFFCURVE",
"346 -80 CURVE",
"346 650 LINE",
"370 660 OFFCURVE",
"397 665 OFFCURVE",
"426 670 CURVE",
"430 682 OFFCURVE",
"430 693 OFFCURVE",
"428 705 CURVE",
"391 703 OFFCURVE",
"329 700 OFFCURVE",
"291 700 CURVE SMOOTH",
"203 700 LINE",
"43 708 OFFCURVE",
"-34 601 OFFCURVE",
"-34 493 CURVE SMOOTH",
"-34 391 OFFCURVE",
"34 289 OFFCURVE",
"168 281 CURVE"
);
}
);
width = 551;
}
);
unicode = 00B6;
},
{
glyphname = section;
lastChange = "2023-09-29 12:40:24 +0000";
layers = (
{
layerId = "E67231B9-FA09-451D-8B80-B70CA73DDE32";
paths = (
{
closed = 1;
nodes = (
"131 51 LINE",
"118 56 OFFCURVE",
"105 58 OFFCURVE",
"87 55 CURVE",
"77 10 OFFCURVE",
"71 -48 OFFCURVE",
"69 -98 CURVE",
"127 -129 OFFCURVE",
"185 -142 OFFCURVE",
"245 -142 CURVE SMOOTH",
"352 -142 OFFCURVE",
"456 -79 OFFCURVE",
"456 46 CURVE SMOOTH",
"456 106 OFFCURVE",
"420 144 OFFCURVE",
"372 173 CURVE",
"422 202 OFFCURVE",
"456 252 OFFCURVE",
"456 320 CURVE SMOOTH",
"456 495 OFFCURVE",
"156 502 OFFCURVE",
"156 620 CURVE SMOOTH",
"156 706 OFFCURVE",
"209 735 OFFCURVE",
"284 735 CURVE SMOOTH",
"308 735 OFFCURVE",
"333 730 OFFCURVE",
"355 721 CURVE",
"366 588 LINE",
"381 583 OFFCURVE",
"396 581 OFFCURVE",
"411 584 CURVE",
"426 625 OFFCURVE",
"432 698 OFFCURVE",
"429 741 CURVE",
"385 765 OFFCURVE",
"327 775 OFFCURVE",
"268 775 CURVE SMOOTH",
"152 775 OFFCURVE",
"62 713 OFFCURVE",
"62 591 CURVE SMOOTH",
"62 536 OFFCURVE",
"92 500 OFFCURVE",
"133 473 CURVE",
"84 443 OFFCURVE",
"51 392 OFFCURVE",
"51 325 CURVE SMOOTH",
"51 145 OFFCURVE",
"359 144 OFFCURVE",
"359 23 CURVE SMOOTH",
"359 -66 OFFCURVE",
"294 -101 OFFCURVE",
"227 -101 CURVE SMOOTH",
"202 -101 OFFCURVE",
"167 -94 OFFCURVE",
"145 -85 CURVE"
);
},
{
closed = 1;
nodes = (
"141 400 OFFCURVE",
"150 424 OFFCURVE",
"174 452 CURVE",
"260 410 OFFCURVE",
"368 376 OFFCURVE",
"368 293 CURVE SMOOTH",
"368 245 OFFCURVE",
"355 209 OFFCURVE",
"329 192 CURVE",
"243 233 OFFCURVE",
"141 270 OFFCURVE",
"141 353 CURVE SMOOTH"
);
}
);
width = 510;
}
);
unicode = 00A7;
},
{
glyphname = copyright;
lastChange = "2023-09-29 12:40:24 +0000";
layers = (
{
layerId = "E67231B9-FA09-451D-8B80-B70CA73DDE32";
paths = (
{
closed = 1;
nodes = (
"175 615 OFFCURVE",
"53 480 OFFCURVE",
"53 306 CURVE SMOOTH",
"53 135 OFFCURVE",
"175 0 OFFCURVE",
"353 0 CURVE SMOOTH",
"530 0 OFFCURVE",
"652 135 OFFCURVE",
"652 306 CURVE SMOOTH",
"652 480 OFFCURVE",
"530 615 OFFCURVE",
"353 615 CURVE SMOOTH"
);
},
{
closed = 1;
nodes = (
"500 577 OFFCURVE",
"607 462 OFFCURVE",
"607 307 CURVE SMOOTH",
"607 155 OFFCURVE",
"500 38 OFFCURVE",
"354 38 CURVE SMOOTH",
"207 38 OFFCURVE",
"98 155 OFFCURVE",
"98 307 CURVE SMOOTH",
"98 462 OFFCURVE",
"207 577 OFFCURVE",
"354 577 CURVE SMOOTH"
);
},
{
closed = 1;
nodes = (
"436 373 LINE",
"444 369 OFFCURVE",
"459 368 OFFCURVE",
"467 369 CURVE",
"477 397 OFFCURVE",
"484 436 OFFCURVE",
"482 474 CURVE",
"446 491 OFFCURVE",
"406 500 OFFCURVE",
"361 500 CURVE SMOOTH",
"258 500 OFFCURVE",
"179 437 OFFCURVE",
"179 301 CURVE SMOOTH",
"179 175 OFFCURVE",
"253 101 OFFCURVE",
"358 101 CURVE SMOOTH",
"412 101 OFFCURVE",
"450 119 OFFCURVE",
"486 156 CURVE",
"484 164 OFFCURVE",
"481 170 OFFCURVE",
"472 176 CURVE",
"437 149 OFFCURVE",
"410 142 OFFCURVE",
"365 142 CURVE SMOOTH",
"309 142 OFFCURVE",
"258 191 OFFCURVE",
"258 301 CURVE SMOOTH",
"258 394 OFFCURVE",
"290 467 OFFCURVE",
"365 468 CURVE",
"383 469 OFFCURVE",
"405 465 OFFCURVE",
"422 458 CURVE"
);
}
);
width = 705;
}
);
unicode = 00A9;
},
{
glyphname = registered;
lastChange = "2023-09-29 12:40:24 +0000";
layers = (
{
guideLines = (
{
position = "{0, 167}";
},
{
position = "{0, 157}";
},
{
position = "{0, 137}";
}
);
layerId = "E67231B9-FA09-451D-8B80-B70CA73DDE32";
paths = (
{
closed = 1;
nodes = (
"175 615 OFFCURVE",
"53 480 OFFCURVE",
"53 306 CURVE SMOOTH",
"53 135 OFFCURVE",
"175 0 OFFCURVE",
"353 0 CURVE SMOOTH",
"530 0 OFFCURVE",
"652 135 OFFCURVE",
"652 306 CURVE SMOOTH",
"652 480 OFFCURVE",
"530 615 OFFCURVE",
"353 615 CURVE SMOOTH"
);
},
{
closed = 1;
nodes = (
"500 577 OFFCURVE",
"607 462 OFFCURVE",
"607 307 CURVE SMOOTH",
"607 155 OFFCURVE",
"500 38 OFFCURVE",
"354 38 CURVE SMOOTH",
"207 38 OFFCURVE",
"98 155 OFFCURVE",
"98 307 CURVE SMOOTH",
"98 462 OFFCURVE",
"207 577 OFFCURVE",
"354 577 CURVE SMOOTH"
);
},
{
closed = 1;
nodes = (
"310 290 LINE",
"327 289 OFFCURVE",
"345 289 OFFCURVE",
"362 291 CURVE",
"397 219 OFFCURVE",
"406 178 OFFCURVE",
"425 157 CURVE",
"439 140 OFFCURVE",
"456 132 OFFCURVE",
"477 132 CURVE SMOOTH",
"491 132 OFFCURVE",
"498 134 OFFCURVE",
"509 139 CURVE",
"510 144 OFFCURVE",
"511 154 OFFCURVE",
"510 159 CURVE",
"502 159 LINE SMOOTH",
"466 159 OFFCURVE",
"466 173 OFFCURVE",
"403 300 CURVE",
"443 313 OFFCURVE",
"471 340 OFFCURVE",
"471 385 CURVE SMOOTH",
"471 446 OFFCURVE",
"420 482 OFFCURVE",
"338 477 CURVE SMOOTH",
"313 475 OFFCURVE",
"294 475 OFFCURVE",
"278 475 CURVE SMOOTH",
"252 475 OFFCURVE",
"236 476 OFFCURVE",
"225 477 CURVE",
"223 470 OFFCURVE",
"222 461 OFFCURVE",
"223 455 CURVE",
"260 445 LINE",
"260 167 LINE",
"247 163 OFFCURVE",
"233 159 OFFCURVE",
"220 157 CURVE",
"218 152 OFFCURVE",
"218 143 OFFCURVE",
"219 137 CURVE",
"236 138 OFFCURVE",
"269 139 OFFCURVE",
"286 139 CURVE SMOOTH",
"305 139 OFFCURVE",
"327 138 OFFCURVE",
"345 137 CURVE",
"348 143 OFFCURVE",
"348 152 OFFCURVE",
"347 157 CURVE",
"310 167 LINE"
);
},
{
closed = 1;
nodes = (
"415 329 OFFCURVE",
"389 315 OFFCURVE",
"339 315 CURVE SMOOTH",
"330 315 OFFCURVE",
"321 316 OFFCURVE",
"310 318 CURVE",
"310 445 LINE",
"323 448 OFFCURVE",
"334 450 OFFCURVE",
"345 450 CURVE SMOOTH",
"387 450 OFFCURVE",
"415 429 OFFCURVE",
"415 381 CURVE SMOOTH"
);
}
);
width = 705;
}
);
unicode = 00AE;
},
{
glyphname = degree;
lastChange = "2023-09-29 12:40:24 +0000";
layers = (
{
layerId = "E67231B9-FA09-451D-8B80-B70CA73DDE32";
paths = (
{
closed = 1;
nodes = (
"100 700 OFFCURVE",
"39 640 OFFCURVE",
"39 561 CURVE SMOOTH",
"39 484 OFFCURVE",
"99 423 OFFCURVE",
"176 423 CURVE SMOOTH",
"253 423 OFFCURVE",
"315 485 OFFCURVE",
"315 562 CURVE SMOOTH",
"315 638 OFFCURVE",
"253 700 OFFCURVE",
"179 700 CURVE SMOOTH"
);
},
{
closed = 1;
nodes = (
"232 660 OFFCURVE",
"265 617 OFFCURVE",
"265 562 CURVE SMOOTH",
"265 507 OFFCURVE",
"231 463 OFFCURVE",
"177 463 CURVE SMOOTH",
"123 463 OFFCURVE",
"89 507 OFFCURVE",
"89 562 CURVE SMOOTH",
"89 616 OFFCURVE",
"123 660 OFFCURVE",
"176 660 CURVE SMOOTH"
);
}
);
width = 353;
}
);
unicode = 00B0;
},
{
glyphname = bar;
lastChange = "2023-09-29 12:40:24 +0000";
layers = (
{
layerId = "E67231B9-FA09-451D-8B80-B70CA73DDE32";
paths = (
{
closed = 1;
nodes = (
"80 -230 LINE",
"88 -237 OFFCURVE",
"130 -243 OFFCURVE",
"144 -241 CURVE",
"144 759 LINE",
"133 766 OFFCURVE",
"98 770 OFFCURVE",
"80 770 CURVE"
);
}
);
width = 224;
}
);
unicode = 007C;
},
{
glyphname = brokenbar;
lastChange = "2023-09-29 12:40:24 +0000";
layers = (
{
associatedMasterId = "E67231B9-FA09-451D-8B80-B70CA73DDE32";
layerId = "37E99AEB-8AF4-41FE-81C5-9E9421C04E2B";
name = public.background;
width = 230;
},
{
layerId = "E67231B9-FA09-451D-8B80-B70CA73DDE32";
paths = (
{
closed = 1;
nodes = (
"83 -230 LINE",
"91 -237 OFFCURVE",
"133 -243 OFFCURVE",
"147 -241 CURVE",
"147 186 LINE",
"136 193 OFFCURVE",
"101 197 OFFCURVE",
"83 197 CURVE"
);
},
{
closed = 1;
nodes = (
"83 370 LINE",
"94 363 OFFCURVE",
"129 359 OFFCURVE",
"147 359 CURVE",
"147 759 LINE",
"136 766 OFFCURVE",
"101 770 OFFCURVE",
"83 770 CURVE"
);
}
);
width = 230;
}
);
unicode = 00A6;
},
{
glyphname = cent;
lastChange = "2023-09-29 12:40:24 +0000";
layers = (
{
layerId = "E67231B9-FA09-451D-8B80-B70CA73DDE32";
paths = (
{
closed = 1;
nodes = (
"260 -38 LINE",
"272 -41 OFFCURVE",
"283 -43 OFFCURVE",
"294 -43 CURVE SMOOTH",
"307 -43 OFFCURVE",
"320 -40 OFFCURVE",
"334 -36 CURVE",
"321 72 LINE",
"371 79 OFFCURVE",
"421 102 OFFCURVE",
"463 146 CURVE",
"460 156 OFFCURVE",
"456 165 OFFCURVE",
"445 172 CURVE",
"399 142 OFFCURVE",
"351 125 OFFCURVE",
"307 125 CURVE SMOOTH",
"223 125 OFFCURVE",
"155 188 OFFCURVE",
"155 338 CURVE SMOOTH",
"155 469 OFFCURVE",
"207 562 OFFCURVE",
"313 562 CURVE SMOOTH",
"336 562 OFFCURVE",
"368 557 OFFCURVE",
"388 548 CURVE",
"401 442 LINE",
"410 438 OFFCURVE",
"419 437 OFFCURVE",
"429 437 CURVE SMOOTH",
"434 437 OFFCURVE",
"439 437 OFFCURVE",
"445 438 CURVE",
"458 478 OFFCURVE",
"465 523 OFFCURVE",
"465 574 CURVE",
"416 595 OFFCURVE",
"368 605 OFFCURVE",
"321 606 CURVE",
"335 710 LINE",
"323 714 OFFCURVE",
"311 716 OFFCURVE",
"299 716 CURVE SMOOTH",
"286 716 OFFCURVE",
"273 714 OFFCURVE",
"260 710 CURVE",
"268 603 LINE",
"144 586 OFFCURVE",
"48 496 OFFCURVE",
"48 338 CURVE SMOOTH",
"48 178 OFFCURVE",
"151 84 OFFCURVE",
"266 72 CURVE"
);
}
);
width = 517;
}
);
unicode = 00A2;
},
{
glyphname = currency;
lastChange = "2023-09-29 12:40:24 +0000";
layers = (
{
associatedMasterId = "E67231B9-FA09-451D-8B80-B70CA73DDE32";
layerId = "DA51D0F6-E92C-4977-9AEE-C0B7DC2D6803";
name = img;
width = 570;
},
{
guideLines = (
{
angle = 90;
position = "{279, 0}";
}
);
layerId = "E67231B9-FA09-451D-8B80-B70CA73DDE32";
paths = (
{
closed = 1;
nodes = (
"104 318 OFFCURVE",
"117 281 OFFCURVE",
"138 251 CURVE",
"67 189 LINE",
"80 165 OFFCURVE",
"97 150 OFFCURVE",
"120 138 CURVE",
"178 210 LINE",
"208 188 OFFCURVE",
"245 175 OFFCURVE",
"285 175 CURVE SMOOTH",
"324 175 OFFCURVE",
"360 187 OFFCURVE",
"389 207 CURVE",
"451 137 LINE",
"475 150 OFFCURVE",
"490 167 OFFCURVE",
"502 190 CURVE",
"431 247 LINE",
"454 278 OFFCURVE",
"468 316 OFFCURVE",
"468 358 CURVE SMOOTH",
"468 397 OFFCURVE",
"456 433 OFFCURVE",
"436 463 CURVE",
"503 521 LINE",
"490 545 OFFCURVE",
"473 560 OFFCURVE",
"450 572 CURVE",
"396 505 LINE",
"365 528 OFFCURVE",
"327 542 OFFCURVE",
"285 542 CURVE SMOOTH",
"244 542 OFFCURVE",
"207 529 OFFCURVE",
"177 506 CURVE",
"119 573 LINE",
"95 560 OFFCURVE",
"80 543 OFFCURVE",
"68 520 CURVE",
"137 464 LINE",
"116 434 OFFCURVE",
"104 398 OFFCURVE",
"104 358 CURVE SMOOTH"
);
},
{
closed = 1;
nodes = (
"158 430 OFFCURVE",
"215 487 OFFCURVE",
"285 487 CURVE SMOOTH",
"357 487 OFFCURVE",
"413 430 OFFCURVE",
"413 358 CURVE SMOOTH",
"413 288 OFFCURVE",
"357 230 OFFCURVE",
"285 230 CURVE SMOOTH",
"215 230 OFFCURVE",
"158 288 OFFCURVE",
"158 358 CURVE SMOOTH"
);
}
);
width = 570;
}
);
unicode = 00A4;
},
{
glyphname = dollar;
lastChange = "2023-09-29 12:40:24 +0000";
layers = (
{
layerId = "E67231B9-FA09-451D-8B80-B70CA73DDE32";
paths = (
{
closed = 1;
nodes = (
"238 -84 LINE",
"251 -88 OFFCURVE",
"264 -90 OFFCURVE",
"277 -90 CURVE SMOOTH",
"289 -90 OFFCURVE",
"300 -88 OFFCURVE",
"312 -84 CURVE",
"304 2 LINE",
"405 16 OFFCURVE",
"499 75 OFFCURVE",
"499 184 CURVE SMOOTH",
"499 304 OFFCURVE",
"435 343 OFFCURVE",
"286 409 CURVE SMOOTH",
"167 462 OFFCURVE",
"149 493 OFFCURVE",
"149 547 CURVE SMOOTH",
"149 627 OFFCURVE",
"223 658 OFFCURVE",
"299 658 CURVE SMOOTH",
"328 658 OFFCURVE",
"358 653 OFFCURVE",
"385 645 CURVE",
"395 518 LINE",
"404 514 OFFCURVE",
"415 512 OFFCURVE",
"425 512 CURVE SMOOTH",
"429 512 OFFCURVE",
"434 512 OFFCURVE",
"438 513 CURVE",
"456 564 OFFCURVE",
"469 616 OFFCURVE",
"467 675 CURVE",
"421 693 OFFCURVE",
"368 703 OFFCURVE",
"315 704 CURVE",
"324 789 LINE",
"312 793 OFFCURVE",
"300 795 OFFCURVE",
"288 795 CURVE SMOOTH",
"275 795 OFFCURVE",
"262 793 OFFCURVE",
"249 789 CURVE",
"255 701 LINE",
"149 689 OFFCURVE",
"58 636 OFFCURVE",
"58 531 CURVE SMOOTH",
"58 452 OFFCURVE",
"73 392 OFFCURVE",
"212 332 CURVE SMOOTH",
"383 257 OFFCURVE",
"398 224 OFFCURVE",
"398 157 CURVE SMOOTH",
"398 73 OFFCURVE",
"310 52 OFFCURVE",
"241 52 CURVE SMOOTH",
"198 52 OFFCURVE",
"161 61 OFFCURVE",
"137 67 CURVE",
"122 194 LINE",
"113 198 OFFCURVE",
"102 200 OFFCURVE",
"92 200 CURVE SMOOTH",
"88 200 OFFCURVE",
"84 199 OFFCURVE",
"80 199 CURVE",
"63 143 OFFCURVE",
"55 87 OFFCURVE",
"55 32 CURVE",
"105 8 OFFCURVE",
"175 0 OFFCURVE",
"243 -1 CURVE"
);
}
);
width = 542;
}
);
unicode = 0024;
},
{
glyphname = euro;
lastChange = "2023-09-29 12:40:24 +0000";
layers = (
{
guideLines = (
{
angle = 81.25;
position = "{448, 0}";
}
);
layerId = "E67231B9-FA09-451D-8B80-B70CA73DDE32";
paths = (
{
closed = 1;
nodes = (
"448 255 LINE",
"454 265 OFFCURVE",
"458 289 OFFCURVE",
"458 305 CURVE",
"248 305 LINE",
"247 319 OFFCURVE",
"247 334 OFFCURVE",
"247 350 CURVE SMOOTH",
"247 376 LINE",
"469 376 LINE",
"475 386 OFFCURVE",
"479 410 OFFCURVE",
"479 426 CURVE",
"253 426 LINE",
"271 577 OFFCURVE",
"386 667 OFFCURVE",
"492 667 CURVE SMOOTH",
"530 667 OFFCURVE",
"568 659 OFFCURVE",
"605 641 CURVE",
"592 512 LINE",
"601 508 OFFCURVE",
"614 506 OFFCURVE",
"626 506 CURVE SMOOTH",
"631 506 OFFCURVE",
"636 506 OFFCURVE",
"640 507 CURVE",
"664 557 OFFCURVE",
"680 615 OFFCURVE",
"690 675 CURVE",
"628 703 OFFCURVE",
"555 720 OFFCURVE",
"483 720 CURVE SMOOTH",
"339 720 OFFCURVE",
"170 633 OFFCURVE",
"135 426 CURVE",
"64 426 LINE",
"59 420 OFFCURVE",
"53 396 OFFCURVE",
"53 382 CURVE",
"53 380 OFFCURVE",
"54 378 OFFCURVE",
"54 376 CURVE",
"130 376 LINE",
"129 367 OFFCURVE",
"129 359 OFFCURVE",
"129 350 CURVE SMOOTH",
"129 334 OFFCURVE",
"129 319 OFFCURVE",
"130 305 CURVE",
"64 305 LINE",
"59 299 OFFCURVE",
"53 275 OFFCURVE",
"53 261 CURVE",
"53 259 OFFCURVE",
"54 257 OFFCURVE",
"54 255 CURVE",
"137 255 LINE",
"173 66 OFFCURVE",
"327 -20 OFFCURVE",
"462 -20 CURVE SMOOTH",
"550 -20 OFFCURVE",
"628 15 OFFCURVE",
"690 76 CURVE",
"689 88 OFFCURVE",
"684 100 OFFCURVE",
"667 109 CURVE",
"616 66 OFFCURVE",
"556 33 OFFCURVE",
"473 33 CURVE SMOOTH",
"361 33 OFFCURVE",
"275 120 OFFCURVE",
"254 255 CURVE"
);
}
);
width = 744;
}
);
unicode = 20AC;
},
{
glyphname = sterling;
lastChange = "2023-09-29 12:40:24 +0000";
layers = (
{
guideLines = (
{
angle = 90;
position = "{68, 0}";
}
);
layerId = "E67231B9-FA09-451D-8B80-B70CA73DDE32";
paths = (
{
closed = 1;
nodes = (
"229 55 LINE",
"229 304 LINE",
"379 304 LINE",
"385 314 OFFCURVE",
"389 338 OFFCURVE",
"389 354 CURVE",
"229 354 LINE",
"229 500 LINE SMOOTH",
"229 602 OFFCURVE",
"273 669 OFFCURVE",
"347 669 CURVE SMOOTH",
"371 669 OFFCURVE",
"407 664 OFFCURVE",
"426 648 CURVE",
"437 540 LINE",
"444 536 OFFCURVE",
"456 535 OFFCURVE",
"466 535 CURVE SMOOTH",
"470 535 OFFCURVE",
"475 535 OFFCURVE",
"478 536 CURVE",
"492 568 OFFCURVE",
"496 641 OFFCURVE",
"497 673 CURVE",
"447 698 OFFCURVE",
"396 710 OFFCURVE",
"348 710 CURVE SMOOTH",
"225 710 OFFCURVE",
"124 630 OFFCURVE",
"124 475 CURVE SMOOTH",
"124 354 LINE",
"84 354 LINE",
"79 348 OFFCURVE",
"73 324 OFFCURVE",
"73 310 CURVE",
"73 308 OFFCURVE",
"74 306 OFFCURVE",
"74 304 CURVE",
"124 304 LINE",
"124 50 LINE",
"103 40 OFFCURVE",
"77 34 OFFCURVE",
"48 30 CURVE",
"46 23 OFFCURVE",
"45 16 OFFCURVE",
"45 9 CURVE SMOOTH",
"45 5 OFFCURVE",
"45 0 OFFCURVE",
"46 -5 CURVE",
"83 -3 OFFCURVE",
"141 0 OFFCURVE",
"179 0 CURVE SMOOTH",
"512 0 LINE",
"513 16 OFFCURVE",
"514 32 OFFCURVE",
"514 48 CURVE SMOOTH",
"514 93 OFFCURVE",
"509 138 OFFCURVE",
"502 175 CURVE",
"494 178 OFFCURVE",
"488 179 OFFCURVE",
"481 179 CURVE SMOOTH",
"477 179 OFFCURVE",
"472 179 OFFCURVE",
"466 178 CURVE",
"439 55 LINE"
);
}
);
width = 568;
}
);
unicode = 00A3;
},
{
glyphname = yen;
lastChange = "2023-09-29 12:40:24 +0000";
layers = (
{
layerId = "E67231B9-FA09-451D-8B80-B70CA73DDE32";
paths = (
{
closed = 1;
nodes = (
"202 336 LINE",
"196 329 OFFCURVE",
"190 299 OFFCURVE",
"192 286 CURVE",
"322 286 LINE",
"322 226 LINE",
"202 226 LINE",
"196 219 OFFCURVE",
"190 189 OFFCURVE",
"192 176 CURVE",
"322 176 LINE",
"322 50 LINE",
"295 37 OFFCURVE",
"269 34 OFFCURVE",
"242 30 CURVE",
"238 18 OFFCURVE",
"238 7 OFFCURVE",
"240 -5 CURVE",
"277 -3 OFFCURVE",
"339 0 OFFCURVE",
"377 0 CURVE SMOOTH",
"414 0 OFFCURVE",
"473 -3 OFFCURVE",
"509 -5 CURVE",
"515 7 OFFCURVE",
"516 18 OFFCURVE",
"514 30 CURVE",
"427 50 LINE",
"427 176 LINE",
"547 176 LINE",
"553 186 OFFCURVE",
"557 210 OFFCURVE",
"557 226 CURVE",
"427 226 LINE",
"427 286 LINE",
"547 286 LINE",
"553 296 OFFCURVE",
"557 320 OFFCURVE",
"557 336 CURVE",
"436 336 LINE",
"619 650 LINE",
"644 662 OFFCURVE",
"676 666 OFFCURVE",
"704 670 CURVE",
"708 682 OFFCURVE",
"708 693 OFFCURVE",
"706 705 CURVE",
"669 703 OFFCURVE",
"637 700 OFFCURVE",
"599 700 CURVE SMOOTH",
"562 700 OFFCURVE",
"522 703 OFFCURVE",
"486 705 CURVE",
"480 693 OFFCURVE",
"479 682 OFFCURVE",
"481 670 CURVE",
"558 650 LINE",
"392 366 LINE",
"388 366 LINE",
"223 650 LINE",
"250 663 OFFCURVE",
"277 666 OFFCURVE",
"304 670 CURVE",
"308 682 OFFCURVE",
"308 693 OFFCURVE",
"306 705 CURVE",
"269 703 OFFCURVE",
"204 700 OFFCURVE",
"166 700 CURVE SMOOTH",
"129 700 OFFCURVE",
"71 703 OFFCURVE",
"35 705 CURVE",
"29 693 OFFCURVE",
"28 682 OFFCURVE",
"30 670 CURVE",
"107 650 LINE",
"300 336 LINE"
);
}
);
width = 739;
}
);
unicode = 00A5;
},
{
glyphname = plus;
lastChange = "2023-09-29 12:40:24 +0000";
layers = (
{
layerId = "E67231B9-FA09-451D-8B80-B70CA73DDE32";
paths = (
{
closed = 1;
nodes = (
"274 510 LINE",
"263 516 OFFCURVE",
"226 521 OFFCURVE",
"208 521 CURVE",
"208 349 LINE",
"53 349 LINE",
"46 341 OFFCURVE",
"40 300 OFFCURVE",
"42 285 CURVE",
"208 285 LINE",
"208 124 LINE",
"216 117 OFFCURVE",
"260 110 OFFCURVE",
"274 113 CURVE",
"274 285 LINE",
"432 285 LINE",
"439 296 OFFCURVE",
"443 331 OFFCURVE",
"443 349 CURVE",
"274 349 LINE"
);
}
);
width = 485;
}
);
unicode = 002B;
},
{
glyphname = minus;
lastChange = "2023-09-29 12:40:24 +0000";
layers = (
{
associatedMasterId = "E67231B9-FA09-451D-8B80-B70CA73DDE32";
layerId = "37E99AEB-8AF4-41FE-81C5-9E9421C04E2B";
name = public.background;
width = 541;
},
{
layerId = "E67231B9-FA09-451D-8B80-B70CA73DDE32";
paths = (
{
closed = 1;
nodes = (
"460 285 LINE",
"467 296 OFFCURVE",
"471 331 OFFCURVE",
"471 349 CURVE",
"81 349 LINE",
"74 341 OFFCURVE",
"68 299 OFFCURVE",
"70 285 CURVE"
);
}
);
width = 541;
}
);
unicode = 2212;
},
{
glyphname = multiply;
lastChange = "2023-09-29 12:40:24 +0000";
layers = (
{
associatedMasterId = "E67231B9-FA09-451D-8B80-B70CA73DDE32";
layerId = "37E99AEB-8AF4-41FE-81C5-9E9421C04E2B";
name = public.background;
width = 445;
},
{
layerId = "E67231B9-FA09-451D-8B80-B70CA73DDE32";
paths = (
{
closed = 1;
nodes = (
"110 479 LINE",
"97 475 OFFCURVE",
"67 452 OFFCURVE",
"55 440 CURVE",
"177 318 LINE",
"65 206 LINE",
"65 196 OFFCURVE",
"90 161 OFFCURVE",
"102 153 CURVE",
"222 273 LINE",
"335 160 LINE",
"346 160 OFFCURVE",
"381 186 OFFCURVE",
"390 198 CURVE",
"268 319 LINE",
"378 429 LINE",
"375 441 OFFCURVE",
"353 470 OFFCURVE",
"341 482 CURVE",
"223 364 LINE"
);
}
);
width = 445;
}
);
unicode = 00D7;
},
{
glyphname = divide;
lastChange = "2023-09-29 12:40:24 +0000";
layers = (
{
layerId = "E67231B9-FA09-451D-8B80-B70CA73DDE32";
paths = (
{
closed = 1;
nodes = (
"442 286 LINE",
"449 297 OFFCURVE",
"453 332 OFFCURVE",
"453 349 CURVE",
"63 349 LINE",
"56 342 OFFCURVE",
"50 300 OFFCURVE",
"52 286 CURVE"
);
},
{
closed = 1;
nodes = (
"192 129 OFFCURVE",
"216 93 OFFCURVE",
"249 93 CURVE SMOOTH",
"280 93 OFFCURVE",
"314 123 OFFCURVE",
"314 148 CURVE SMOOTH",
"314 173 OFFCURVE",
"293 211 OFFCURVE",
"256 211 CURVE SMOOTH",
"227 211 OFFCURVE",
"192 180 OFFCURVE",
"192 156 CURVE SMOOTH"
);
},
{
closed = 1;
nodes = (
"192 448 OFFCURVE",
"216 412 OFFCURVE",
"249 412 CURVE SMOOTH",
"280 412 OFFCURVE",
"314 442 OFFCURVE",
"314 467 CURVE SMOOTH",
"314 492 OFFCURVE",
"293 530 OFFCURVE",
"256 530 CURVE SMOOTH",
"227 530 OFFCURVE",
"192 499 OFFCURVE",
"192 475 CURVE SMOOTH"
);
}
);
width = 504;
}
);
unicode = 00F7;
},
{
glyphname = equal;
lastChange = "2023-09-29 12:40:24 +0000";
layers = (
{
layerId = "E67231B9-FA09-451D-8B80-B70CA73DDE32";
paths = (
{
closed = 1;
nodes = (
"461 351 LINE",
"468 362 OFFCURVE",
"472 397 OFFCURVE",
"472 415 CURVE",
"82 415 LINE",
"75 407 OFFCURVE",
"69 365 OFFCURVE",
"71 351 CURVE"
);
},
{
closed = 1;
nodes = (
"461 197 LINE",
"468 208 OFFCURVE",
"472 243 OFFCURVE",
"472 261 CURVE",
"82 261 LINE",
"75 253 OFFCURVE",
"69 211 OFFCURVE",
"71 197 CURVE"
);
}
);
width = 542;
}
);
unicode = 003D;
},
{
glyphname = greater;
lastChange = "2023-09-29 12:40:24 +0000";
layers = (
{
layerId = "E67231B9-FA09-451D-8B80-B70CA73DDE32";
paths = (
{
closed = 1;
nodes = (
"58 497 LINE",
"416 298 LINE",
"58 99 LINE",
"58 37 LINE",
"503 273 LINE",
"503 323 LINE",
"58 559 LINE"
);
}
);
width = 541;
}
);
unicode = 003E;
},
{
glyphname = less;
lastChange = "2023-09-29 12:40:24 +0000";
layers = (
{
layerId = "E67231B9-FA09-451D-8B80-B70CA73DDE32";
paths = (
{
closed = 1;
nodes = (
"483 559 LINE",
"38 323 LINE",
"38 273 LINE",
"483 37 LINE",
"483 99 LINE",
"125 298 LINE",
"483 497 LINE"
);
}
);
width = 541;
}
);
unicode = 003C;
},
{
glyphname = plusminus;
lastChange = "2023-09-29 12:40:24 +0000";
layers = (
{
layerId = "E67231B9-FA09-451D-8B80-B70CA73DDE32";
paths = (
{
closed = 1;
nodes = (
"288 513 LINE",
"277 519 OFFCURVE",
"240 524 OFFCURVE",
"222 524 CURVE",
"222 352 LINE",
"67 352 LINE",
"60 344 OFFCURVE",
"54 303 OFFCURVE",
"56 288 CURVE",
"222 288 LINE",
"222 149 LINE",
"230 142 OFFCURVE",
"274 135 OFFCURVE",
"288 138 CURVE",
"288 288 LINE",
"446 288 LINE",
"453 299 OFFCURVE",
"457 334 OFFCURVE",
"457 352 CURVE",
"288 352 LINE"
);
},
{
closed = 1;
nodes = (
"446 46 LINE",
"453 57 OFFCURVE",
"457 92 OFFCURVE",
"457 110 CURVE",
"67 110 LINE",
"60 102 OFFCURVE",
"54 61 OFFCURVE",
"56 46 CURVE"
);
}
);
width = 514;
}
);
unicode = 00B1;
},
{
glyphname = asciitilde;
lastChange = "2023-09-29 12:40:24 +0000";
layers = (
{
layerId = "E67231B9-FA09-451D-8B80-B70CA73DDE32";
paths = (
{
closed = 1;
nodes = (
"425 542 OFFCURVE",
"453 611 OFFCURVE",
"462 674 CURVE",
"453 679 OFFCURVE",
"438 684 OFFCURVE",
"413 684 CURVE",
"400 624 OFFCURVE",
"385 603 OFFCURVE",
"352 603 CURVE SMOOTH",
"280 603 OFFCURVE",
"252 710 OFFCURVE",
"145 710 CURVE SMOOTH",
"78 710 OFFCURVE",
"43 660 OFFCURVE",
"35 591 CURVE",
"50 586 OFFCURVE",
"67 584 OFFCURVE",
"84 587 CURVE",
"97 637 OFFCURVE",
"119 653 OFFCURVE",
"144 653 CURVE SMOOTH",
"205 653 OFFCURVE",
"245 542 OFFCURVE",
"349 542 CURVE SMOOTH"
);
}
);
width = 491;
}
);
unicode = 007E;
},
{
glyphname = logicalnot;
lastChange = "2023-09-29 12:40:24 +0000";
layers = (
{
layerId = "E67231B9-FA09-451D-8B80-B70CA73DDE32";
paths = (
{
closed = 1;
nodes = (
"549 355 LINE",
"81 355 LINE",
"75 348 OFFCURVE",
"68 306 OFFCURVE",
"70 292 CURVE",
"483 292 LINE",
"483 161 LINE",
"490 154 OFFCURVE",
"535 148 OFFCURVE",
"549 150 CURVE"
);
}
);
width = 624;
}
);
unicode = 00AC;
},
{
glyphname = asciicircum;
lastChange = "2023-09-29 12:40:24 +0000";
layers = (
{
guideLines = (
{
position = "{0, 482}";
},
{
position = "{0, 535}";
}
);
layerId = "E67231B9-FA09-451D-8B80-B70CA73DDE32";
paths = (
{
closed = 1;
nodes = (
"11 520 LINE",
"20 508 OFFCURVE",
"55 482 OFFCURVE",
"66 482 CURVE",
"242 656 LINE",
"244 656 LINE",
"420 482 LINE",
"431 482 OFFCURVE",
"466 508 OFFCURVE",
"475 520 CURVE",
"246 748 LINE",
"240 748 LINE"
);
}
);
width = 481;
}
);
unicode = 005E;
},
{
glyphname = micro;
lastChange = "2023-09-29 12:40:24 +0000";
layers = (
{
guideLines = (
{
position = "{0, 1000}";
}
);
layerId = "E67231B9-FA09-451D-8B80-B70CA73DDE32";
paths = (
{
closed = 1;
nodes = (
"514 500 LINE",
"494 502 OFFCURVE",
"474 505 OFFCURVE",
"454 505 CURVE SMOOTH",
"440 505 OFFCURVE",
"427 504 OFFCURVE",
"414 500 CURVE",
"414 118 LINE",
"383 83 OFFCURVE",
"332 54 OFFCURVE",
"289 54 CURVE SMOOTH",
"235 54 OFFCURVE",
"195 65 OFFCURVE",
"195 149 CURVE SMOOTH",
"195 500 LINE",
"175 502 OFFCURVE",
"155 505 OFFCURVE",
"135 505 CURVE SMOOTH",
"121 505 OFFCURVE",
"108 504 OFFCURVE",
"95 500 CURVE",
"95 -165 LINE",
"105 -167 OFFCURVE",
"115 -168 OFFCURVE",
"124 -168 CURVE SMOOTH",
"136 -168 OFFCURVE",
"148 -167 OFFCURVE",
"160 -165 CURVE",
"160 -1 LINE",
"180 -11 OFFCURVE",
"207 -16 OFFCURVE",
"240 -16 CURVE SMOOTH",
"310 -16 OFFCURVE",
"360 10 OFFCURVE",
"422 71 CURVE",
"427 71 LINE",
"442 -15 LINE",
"458 -19 OFFCURVE",
"479 -21 OFFCURVE",
"501 -21 CURVE SMOOTH",
"534 -21 OFFCURVE",
"568 -18 OFFCURVE",
"589 -14 CURVE",
"595 -2 OFFCURVE",
"596 9 OFFCURVE",
"594 21 CURVE",
"569 24 OFFCURVE",
"545 27 OFFCURVE",
"514 41 CURVE"
);
}
);
width = 623;
}
);
unicode = 00B5;
},
{
glyphname = percent;
lastChange = "2023-09-29 12:40:24 +0000";
layers = (
{
layerId = "E67231B9-FA09-451D-8B80-B70CA73DDE32";
paths = (
{
closed = 1;
nodes = (
"91 720 OFFCURVE",
"41 632 OFFCURVE",
"41 544 CURVE SMOOTH",
"41 457 OFFCURVE",
"91 372 OFFCURVE",
"189 372 CURVE SMOOTH",
"282 372 OFFCURVE",
"334 458 OFFCURVE",
"334 551 CURVE SMOOTH",
"334 636 OFFCURVE",
"288 720 OFFCURVE",
"193 720 CURVE SMOOTH"
);
},
{
closed = 1;
nodes = (
"242 683 OFFCURVE",
"271 621 OFFCURVE",
"271 549 CURVE SMOOTH",
"271 477 OFFCURVE",
"242 410 OFFCURVE",
"189 410 CURVE SMOOTH",
"134 410 OFFCURVE",
"105 477 OFFCURVE",
"105 549 CURVE SMOOTH",
"105 621 OFFCURVE",
"134 683 OFFCURVE",
"189 683 CURVE SMOOTH"
);
},
{
closed = 1;
nodes = (
"447 328 OFFCURVE",
"397 240 OFFCURVE",
"397 152 CURVE SMOOTH",
"397 65 OFFCURVE",
"447 -20 OFFCURVE",
"545 -20 CURVE SMOOTH",
"638 -20 OFFCURVE",
"690 66 OFFCURVE",
"690 159 CURVE SMOOTH",
"690 244 OFFCURVE",
"644 328 OFFCURVE",
"549 328 CURVE SMOOTH"
);
},
{
closed = 1;
nodes = (
"598 291 OFFCURVE",
"627 229 OFFCURVE",
"627 157 CURVE SMOOTH",
"627 85 OFFCURVE",
"598 18 OFFCURVE",
"545 18 CURVE SMOOTH",
"490 18 OFFCURVE",
"461 85 OFFCURVE",
"461 157 CURVE SMOOTH",
"461 229 OFFCURVE",
"490 291 OFFCURVE",
"545 291 CURVE SMOOTH"
);
},
{
closed = 1;
nodes = (
"545 706 LINE",
"522 710 OFFCURVE",
"499 707 OFFCURVE",
"478 700 CURVE",
"188 -7 LINE",
"212 -11 OFFCURVE",
"239 -6 OFFCURVE",
"255 0 CURVE"
);
}
);
width = 732;
}
);
unicode = 0025;
},
{
glyphname = dieresis;
lastChange = "2023-09-29 12:40:24 +0000";
layers = (
{
anchors = (
{
name = _top;
position = "{157, 505}";
}
);
guideLines = (
{
angle = 81.47;
position = "{78, 0}";
},
{
angle = 90;
position = "{35, 0}";
},
{
angle = 90;
position = "{156, 0}";
}
);
layerId = "E67231B9-FA09-451D-8B80-B70CA73DDE32";
paths = (
{
closed = 1;
nodes = (
"11 627 OFFCURVE",
"35 588 OFFCURVE",
"69 588 CURVE SMOOTH",
"99 588 OFFCURVE",
"134 620 OFFCURVE",
"134 645 CURVE SMOOTH",
"134 669 OFFCURVE",
"111 708 OFFCURVE",
"76 708 CURVE SMOOTH",
"47 708 OFFCURVE",
"11 676 OFFCURVE",
"11 652 CURVE SMOOTH"
);
},
{
closed = 1;
nodes = (
"180 627 OFFCURVE",
"204 588 OFFCURVE",
"238 588 CURVE SMOOTH",
"268 588 OFFCURVE",
"303 620 OFFCURVE",
"303 645 CURVE SMOOTH",
"303 669 OFFCURVE",
"280 708 OFFCURVE",
"245 708 CURVE SMOOTH",
"216 708 OFFCURVE",
"180 676 OFFCURVE",
"180 652 CURVE SMOOTH"
);
}
);
width = 346;
}
);
unicode = 00A8;
},
{
glyphname = grave;
lastChange = "2023-09-29 12:40:24 +0000";
layers = (
{
anchors = (
{
name = _top;
position = "{109, 505}";
}
);
layerId = "E67231B9-FA09-451D-8B80-B70CA73DDE32";
paths = (
{
closed = 1;
nodes = (
"84 757 LINE",
"54 752 OFFCURVE",
"24 740 OFFCURVE",
"4 717 CURVE",
"45 661 OFFCURVE",
"84 608 OFFCURVE",
"128 566 CURVE",
"140 568 OFFCURVE",
"154 573 OFFCURVE",
"164 583 CURVE"
);
}
);
width = 187;
}
);
unicode = 0060;
},
{
glyphname = acute;
lastChange = "2023-09-29 12:40:24 +0000";
layers = (
{
anchors = (
{
name = _top;
position = "{98, 505}";
}
);
layerId = "E67231B9-FA09-451D-8B80-B70CA73DDE32";
paths = (
{
closed = 1;
nodes = (
"4 583 LINE",
"14 573 OFFCURVE",
"28 568 OFFCURVE",
"40 566 CURVE",
"84 608 OFFCURVE",
"123 661 OFFCURVE",
"164 717 CURVE",
"144 740 OFFCURVE",
"114 752 OFFCURVE",
"84 757 CURVE"
);
}
);
width = 203;
}
);
unicode = 00B4;
},
{
glyphname = circumflex;
lastChange = "2023-09-29 12:40:24 +0000";
layers = (
{
associatedMasterId = "E67231B9-FA09-451D-8B80-B70CA73DDE32";
layerId = "37E99AEB-8AF4-41FE-81C5-9E9421C04E2B";
name = public.background;
width = 282;
},
{
anchors = (
{
name = _top;
position = "{128, 505}";
}
);
guideLines = (
{
position = "{0, 562}";
},
{
position = "{0, 582}";
}
);
layerId = "E67231B9-FA09-451D-8B80-B70CA73DDE32";
paths = (
{
closed = 1;
nodes = (
"223 640 OFFCURVE",
"191 693 OFFCURVE",
"162 751 CURVE",
"142 755 OFFCURVE",
"121 755 OFFCURVE",
"101 753 CURVE",
"70 688 OFFCURVE",
"30 630 OFFCURVE",
"-2 579 CURVE",
"12 565 OFFCURVE",
"30 559 OFFCURVE",
"47 556 CURVE",
"75 591 OFFCURVE",
"102 639 OFFCURVE",
"126 684 CURVE",
"162 607 OFFCURVE",
"174 588 OFFCURVE",
"192 559 CURVE",
"217 562 OFFCURVE",
"238 571 OFFCURVE",
"255 588 CURVE"
);
}
);
width = 282;
}
);
unicode = 02C6;
},
{
glyphname = caron;
lastChange = "2023-09-29 12:40:24 +0000";
layers = (
{
associatedMasterId = "E67231B9-FA09-451D-8B80-B70CA73DDE32";
layerId = "DA51D0F6-E92C-4977-9AEE-C0B7DC2D6803";
name = img;
width = 235;
},
{
associatedMasterId = "E67231B9-FA09-451D-8B80-B70CA73DDE32";
layerId = "37E99AEB-8AF4-41FE-81C5-9E9421C04E2B";
name = public.background;
width = 235;
},
{
anchors = (
{
name = _top;
position = "{121, 505}";
}
);
guideLines = (
{
angle = 90;
position = "{161, 0}";
}
);
layerId = "E67231B9-FA09-451D-8B80-B70CA73DDE32";
paths = (
{
closed = 1;
nodes = (
"30 676 OFFCURVE",
"72 616 OFFCURVE",
"101 558 CURVE",
"118 553 OFFCURVE",
"142 556 OFFCURVE",
"162 559 CURVE",
"186 617 OFFCURVE",
"212 673 OFFCURVE",
"248 732 CURVE",
"236 744 OFFCURVE",
"222 754 OFFCURVE",
"200 756 CURVE",
"172 721 OFFCURVE",
"153 671 OFFCURVE",
"129 626 CURVE",
"93 703 OFFCURVE",
"79 728 OFFCURVE",
"61 757 CURVE",
"37 753 OFFCURVE",
"16 745 OFFCURVE",
"-2 728 CURVE"
);
}
);
width = 235;
}
);
unicode = 02C7;
},
{
glyphname = ring;
lastChange = "2023-09-29 12:40:24 +0000";
layers = (
{
associatedMasterId = "E67231B9-FA09-451D-8B80-B70CA73DDE32";
layerId = "37E99AEB-8AF4-41FE-81C5-9E9421C04E2B";
name = public.background;
width = 255;
},
{
anchors = (
{
name = _top;
position = "{130, 505}";
}
);
layerId = "E67231B9-FA09-451D-8B80-B70CA73DDE32";
paths = (
{
closed = 1;
nodes = (
"83 683 OFFCURVE",
"111 704 OFFCURVE",
"134 704 CURVE SMOOTH",
"160 704 OFFCURVE",
"178 676 OFFCURVE",
"178 657 CURVE SMOOTH",
"178 637 OFFCURVE",
"152 615 OFFCURVE",
"127 615 CURVE SMOOTH",
"104 615 OFFCURVE",
"83 643 OFFCURVE",
"83 663 CURVE SMOOTH"
);
},
{
closed = 1;
nodes = (
"25 623 OFFCURVE",
"70 559 OFFCURVE",
"124 559 CURVE SMOOTH",
"176 559 OFFCURVE",
"235 609 OFFCURVE",
"235 653 CURVE SMOOTH",
"235 694 OFFCURVE",
"194 758 OFFCURVE",
"137 758 CURVE SMOOTH",
"87 758 OFFCURVE",
"25 708 OFFCURVE",
"25 665 CURVE SMOOTH"
);
}
);
width = 255;
}
);
unicode = 02DA;
},
{
glyphname = tilde;
lastChange = "2023-09-29 12:40:24 +0000";
layers = (
{
associatedMasterId = "E67231B9-FA09-451D-8B80-B70CA73DDE32";
layerId = "37E99AEB-8AF4-41FE-81C5-9E9421C04E2B";
name = public.background;
width = 344;
},
{
anchors = (
{
name = _top;
position = "{182, 505}";
}
);
guideLines = (
{
position = "{0, 618}";
}
);
layerId = "E67231B9-FA09-451D-8B80-B70CA73DDE32";
paths = (
{
closed = 1;
nodes = (
"65 617 OFFCURVE",
"87 629 OFFCURVE",
"117 626 CURVE",
"162 623 OFFCURVE",
"182 587 OFFCURVE",
"244 590 CURVE SMOOTH",
"287 592 OFFCURVE",
"309 629 OFFCURVE",
"322 675 CURVE",
"313 683 OFFCURVE",
"303 686 OFFCURVE",
"293 686 CURVE",
"278 663 OFFCURVE",
"254 655 OFFCURVE",
"227 660 CURVE SMOOTH",
"184 668 OFFCURVE",
"167 699 OFFCURVE",
"117 696 CURVE",
"82 695 OFFCURVE",
"50 671 OFFCURVE",
"22 620 CURVE",
"29 612 OFFCURVE",
"36 603 OFFCURVE",
"51 596 CURVE"
);
}
);
width = 344;
}
);
unicode = 02DC;
},
{
glyphname = macron;
lastChange = "2023-09-29 12:40:24 +0000";
layers = (
{
associatedMasterId = "E67231B9-FA09-451D-8B80-B70CA73DDE32";
layerId = "37E99AEB-8AF4-41FE-81C5-9E9421C04E2B";
name = public.background;
width = 530;
},
{
layerId = "E67231B9-FA09-451D-8B80-B70CA73DDE32";
paths = (
{
closed = 1;
nodes = (
"519 566 LINE",
"526 577 OFFCURVE",
"530 612 OFFCURVE",
"530 630 CURVE",
"12 630 LINE",
"5 622 OFFCURVE",
"-1 580 OFFCURVE",
"1 566 CURVE"
);
}
);
width = 530;
}
);
unicode = 00AF;
},
{
glyphname = cedilla;
lastChange = "2023-09-29 12:40:24 +0000";
layers = (
{
associatedMasterId = "E67231B9-FA09-451D-8B80-B70CA73DDE32";
layerId = "DA51D0F6-E92C-4977-9AEE-C0B7DC2D6803";
name = img;
width = 255;
},
{
associatedMasterId = "E67231B9-FA09-451D-8B80-B70CA73DDE32";
layerId = "37E99AEB-8AF4-41FE-81C5-9E9421C04E2B";
name = public.background;
width = 255;
},
{
anchors = (
{
name = _bottom;
position = "{129, -11}";
}
);
layerId = "E67231B9-FA09-451D-8B80-B70CA73DDE32";
paths = (
{
closed = 1;
nodes = (
"116 2 LINE",
"80 7 LINE",
"82 -96 LINE",
"138 -96 OFFCURVE",
"172 -117 OFFCURVE",
"172 -154 CURVE SMOOTH",
"172 -179 OFFCURVE",
"142 -204 OFFCURVE",
"98 -204 CURVE SMOOTH",
"81 -204 OFFCURVE",
"61 -201 OFFCURVE",
"38 -192 CURVE",
"29 -199 OFFCURVE",
"24 -208 OFFCURVE",
"23 -221 CURVE",
"48 -230 OFFCURVE",
"82 -234 OFFCURVE",
"104 -234 CURVE SMOOTH",
"190 -234 OFFCURVE",
"240 -189 OFFCURVE",
"240 -132 CURVE SMOOTH",
"240 -76 OFFCURVE",
"202 -47 OFFCURVE",
"123 -47 CURVE"
);
}
);
width = 255;
}
);
unicode = 00B8;
},
{
glyphname = dieresis.case;
lastChange = "2023-09-29 12:40:24 +0000";
layers = (
{
associatedMasterId = "E67231B9-FA09-451D-8B80-B70CA73DDE32";
layerId = "37E99AEB-8AF4-41FE-81C5-9E9421C04E2B";
name = public.background;
width = 364;
},
{
anchors = (
{
name = _top;
position = "{179, 756}";
}
);
guideLines = (
{
position = "{0, 1018}";
}
);
layerId = "E67231B9-FA09-451D-8B80-B70CA73DDE32";
paths = (
{
closed = 1;
nodes = (
"25 867 OFFCURVE",
"49 828 OFFCURVE",
"83 828 CURVE SMOOTH",
"113 828 OFFCURVE",
"148 860 OFFCURVE",
"148 885 CURVE SMOOTH",
"148 909 OFFCURVE",
"125 948 OFFCURVE",
"90 948 CURVE SMOOTH",
"61 948 OFFCURVE",
"25 916 OFFCURVE",
"25 892 CURVE SMOOTH"
);
},
{
closed = 1;
nodes = (
"214 867 OFFCURVE",
"238 828 OFFCURVE",
"272 828 CURVE SMOOTH",
"302 828 OFFCURVE",
"337 860 OFFCURVE",
"337 885 CURVE SMOOTH",
"337 909 OFFCURVE",
"314 948 OFFCURVE",
"279 948 CURVE SMOOTH",
"250 948 OFFCURVE",
"214 916 OFFCURVE",
"214 892 CURVE SMOOTH"
);
}
);
width = 364;
}
);
},
{
glyphname = grave.case;
lastChange = "2023-09-29 12:40:24 +0000";
layers = (
{
associatedMasterId = "E67231B9-FA09-451D-8B80-B70CA73DDE32";
layerId = "37E99AEB-8AF4-41FE-81C5-9E9421C04E2B";
name = public.background;
width = 250;
},
{
anchors = (
{
name = _top;
position = "{151, 756}";
}
);
layerId = "E67231B9-FA09-451D-8B80-B70CA73DDE32";
paths = (
{
closed = 1;
nodes = (
"198 796 LINE",
"210 807 OFFCURVE",
"215 814 OFFCURVE",
"221 825 CURVE",
"83 969 LINE",
"57 952 OFFCURVE",
"37 922 OFFCURVE",
"29 893 CURVE"
);
}
);
width = 250;
}
);
},
{
glyphname = acute.case;
lastChange = "2023-09-29 12:40:24 +0000";
layers = (
{
associatedMasterId = "E67231B9-FA09-451D-8B80-B70CA73DDE32";
layerId = "37E99AEB-8AF4-41FE-81C5-9E9421C04E2B";
name = public.background;
width = 250;
},
{
anchors = (
{
name = _top;
position = "{104, 756}";
}
);
layerId = "E67231B9-FA09-451D-8B80-B70CA73DDE32";
paths = (
{
closed = 1;
nodes = (
"221 893 LINE",
"213 922 OFFCURVE",
"193 952 OFFCURVE",
"167 969 CURVE",
"29 825 LINE",
"35 814 OFFCURVE",
"40 807 OFFCURVE",
"52 796 CURVE"
);
}
);
width = 250;
}
);
},
{
glyphname = circumflex.case;
lastChange = "2023-09-29 12:40:24 +0000";
layers = (
{
associatedMasterId = "E67231B9-FA09-451D-8B80-B70CA73DDE32";
layerId = "37E99AEB-8AF4-41FE-81C5-9E9421C04E2B";
name = public.background;
width = 332;
},
{
anchors = (
{
name = _top;
position = "{162, 756}";
}
);
guideLines = (
{
position = "{0, 1018}";
}
);
layerId = "E67231B9-FA09-451D-8B80-B70CA73DDE32";
paths = (
{
closed = 1;
nodes = (
"306 810 OFFCURVE",
"319 817 OFFCURVE",
"328 829 CURVE",
"206 967 LINE",
"193 969 OFFCURVE",
"183 970 OFFCURVE",
"174 970 CURVE SMOOTH",
"164 970 OFFCURVE",
"154 969 OFFCURVE",
"143 967 CURVE",
"18 829 LINE",
"27 817 OFFCURVE",
"40 809 OFFCURVE",
"50 805 CURVE",
"90 833 OFFCURVE",
"133 867 OFFCURVE",
"170 903 CURVE",
"208 869 OFFCURVE",
"247 833 OFFCURVE",
"290 805 CURVE"
);
}
);
width = 332;
}
);
},
{
glyphname = caron.case;
lastChange = "2023-09-29 12:40:24 +0000";
layers = (
{
associatedMasterId = "E67231B9-FA09-451D-8B80-B70CA73DDE32";
layerId = "37E99AEB-8AF4-41FE-81C5-9E9421C04E2B";
name = public.background;
width = 340;
},
{
anchors = (
{
name = _top;
position = "{171, 755}";
}
);
layerId = "E67231B9-FA09-451D-8B80-B70CA73DDE32";
paths = (
{
closed = 1;
nodes = (
"31 966 OFFCURVE",
"18 959 OFFCURVE",
"9 947 CURVE",
"131 809 LINE",
"144 807 OFFCURVE",
"154 806 OFFCURVE",
"163 806 CURVE SMOOTH",
"173 806 OFFCURVE",
"183 807 OFFCURVE",
"194 809 CURVE",
"319 947 LINE",
"310 959 OFFCURVE",
"297 967 OFFCURVE",
"287 971 CURVE",
"247 943 OFFCURVE",
"204 909 OFFCURVE",
"167 873 CURVE",
"129 907 OFFCURVE",
"90 943 OFFCURVE",
"47 971 CURVE"
);
}
);
width = 340;
}
);
},
{
glyphname = ring.case;
lastChange = "2023-09-29 12:40:24 +0000";
layers = (
{
associatedMasterId = "E67231B9-FA09-451D-8B80-B70CA73DDE32";
layerId = "37E99AEB-8AF4-41FE-81C5-9E9421C04E2B";
name = public.background;
width = 295;
},
{
anchors = (
{
name = _top;
position = "{141, 756}";
}
);
layerId = "E67231B9-FA09-451D-8B80-B70CA73DDE32";
paths = (
{
closed = 1;
nodes = (
"88 902 OFFCURVE",
"121 930 OFFCURVE",
"149 930 CURVE SMOOTH",
"180 930 OFFCURVE",
"202 895 OFFCURVE",
"202 873 CURVE SMOOTH",
"202 849 OFFCURVE",
"170 822 OFFCURVE",
"142 822 CURVE SMOOTH",
"112 822 OFFCURVE",
"88 857 OFFCURVE",
"88 880 CURVE SMOOTH"
);
},
{
closed = 1;
nodes = (
"30 837 OFFCURVE",
"79 766 OFFCURVE",
"137 766 CURVE SMOOTH",
"195 766 OFFCURVE",
"259 822 OFFCURVE",
"259 870 CURVE SMOOTH",
"259 914 OFFCURVE",
"215 984 OFFCURVE",
"152 984 CURVE SMOOTH",
"97 984 OFFCURVE",
"30 929 OFFCURVE",
"30 883 CURVE SMOOTH"
);
}
);
width = 295;
}
);
},
{
glyphname = tilde.case;
lastChange = "2023-09-29 12:40:24 +0000";
layers = (
{
associatedMasterId = "E67231B9-FA09-451D-8B80-B70CA73DDE32";
layerId = "37E99AEB-8AF4-41FE-81C5-9E9421C04E2B";
name = public.background;
width = 331;
},
{
anchors = (
{
name = _top;
position = "{149, 756}";
}
);
layerId = "E67231B9-FA09-451D-8B80-B70CA73DDE32";
paths = (
{
closed = 1;
nodes = (
"65 863 OFFCURVE",
"87 876 OFFCURVE",
"117 873 CURVE",
"162 870 OFFCURVE",
"182 834 OFFCURVE",
"244 837 CURVE SMOOTH",
"287 839 OFFCURVE",
"309 871 OFFCURVE",
"322 917 CURVE",
"313 925 OFFCURVE",
"303 934 OFFCURVE",
"293 934 CURVE",
"278 911 OFFCURVE",
"254 903 OFFCURVE",
"227 908 CURVE SMOOTH",
"184 916 OFFCURVE",
"167 947 OFFCURVE",
"117 944 CURVE",
"82 943 OFFCURVE",
"50 919 OFFCURVE",
"22 868 CURVE",
"29 860 OFFCURVE",
"37 847 OFFCURVE",
"51 842 CURVE"
);
}
);
width = 331;
}
);
},
{
glyphname = foundryicon;
lastChange = "2023-10-03 10:45:20 +0000";
layers = (
{
guideLines = (
{
position = "{0, 282}";
}
);
layerId = "E67231B9-FA09-451D-8B80-B70CA73DDE32";
paths = (
{
closed = 1;
nodes = (
"1000 5 OFFCURVE",
"1016 27 OFFCURVE",
"1021 48 CURVE",
"1038 21 OFFCURVE",
"1063 5 OFFCURVE",
"1098 5 CURVE SMOOTH",
"1167 5 OFFCURVE",
"1184 83 OFFCURVE",
"1184 137 CURVE SMOOTH",
"1184 152 LINE",
"1181 152 OFFCURVE",
"1179 153 OFFCURVE",
"1174 151 CURVE",
"1159 91 OFFCURVE",
"1137 54 OFFCURVE",
"1109 33 CURVE",
"1089 62 OFFCURVE",
"1079 101 OFFCURVE",
"1079 149 CURVE",
"1131 174 OFFCURVE",
"1159 271 OFFCURVE",
"1159 351 CURVE SMOOTH",
"1159 436 OFFCURVE",
"1137 471 OFFCURVE",
"1055 485 CURVE",
"1017 417 OFFCURVE",
"997 313 OFFCURVE",
"997 214 CURVE SMOOTH",
"997 168 OFFCURVE",
"1001 123 OFFCURVE",
"1010 82 CURVE SMOOTH",
"1012 72 LINE",
"1006 61 OFFCURVE",
"991 29 OFFCURVE",
"977 33 CURVE",
"967 66 OFFCURVE",
"964 109 OFFCURVE",
"964 153 CURVE SMOOTH",
"964 202 OFFCURVE",
"968 251 OFFCURVE",
"974 290 CURVE",
"963 300 OFFCURVE",
"928 315 OFFCURVE",
"913 311 CURVE",
"906 307 OFFCURVE",
"899 268 OFFCURVE",
"896 261 CURVE",
"882 267 OFFCURVE",
"863 271 OFFCURVE",
"847 271 CURVE",
"815 236 OFFCURVE",
"804 189 OFFCURVE",
"801 139 CURVE SMOOTH",
"801 101 LINE",
"792 79 OFFCURVE",
"777 46 OFFCURVE",
"750 35 CURVE",
"736 43 OFFCURVE",
"732 63 OFFCURVE",
"727 83 CURVE",
"765 94 OFFCURVE",
"786 147 OFFCURVE",
"786 195 CURVE SMOOTH",
"786 237 OFFCURVE",
"771 263 OFFCURVE",
"745 275 CURVE",
"744 276 LINE",
"739 286 OFFCURVE",
"732 299 OFFCURVE",
"726 312 CURVE",
"792 322 OFFCURVE",
"813 408 OFFCURVE",
"834 450 CURVE",
"844 462 LINE",
"833 462 LINE",
"835 476 LINE",
"835 476 OFFCURVE",
"835 477 OFFCURVE",
"834 477 CURVE",
"822 472 LINE",
"817 476 OFFCURVE",
"811 477 OFFCURVE",
"804 477 CURVE SMOOTH",
"786 477 OFFCURVE",
"769 465 OFFCURVE",
"763 444 CURVE",
"752 434 OFFCURVE",
"686 423 OFFCURVE",
"619 411 CURVE",
"605 411 OFFCURVE",
"523 418 OFFCURVE",
"522 420 CURVE",
"518 420 OFFCURVE",
"517 416 OFFCURVE",
"520 413 CURVE SMOOTH",
"538 396 OFFCURVE",
"584 398 OFFCURVE",
"597 386 CURVE",
"625 353 OFFCURVE",
"659 320 OFFCURVE",
"696 312 CURVE",
"699 303 OFFCURVE",
"703 292 OFFCURVE",
"708 284 CURVE",
"704 285 OFFCURVE",
"699 285 OFFCURVE",
"695 285 CURVE SMOOTH",
"691 285 OFFCURVE",
"688 285 OFFCURVE",
"683 284 CURVE",
"666 256 OFFCURVE",
"655 195 OFFCURVE",
"654 144 CURVE",
"653 139 OFFCURVE",
"653 135 OFFCURVE",
"653 130 CURVE SMOOTH",
"653 67 OFFCURVE",
"680 12 OFFCURVE",
"748 12 CURVE",
"778 16 OFFCURVE",
"799 37 OFFCURVE",
"811 56 CURVE",
"817 31 OFFCURVE",
"837 12 OFFCURVE",
"874 12 CURVE",
"892 15 OFFCURVE",
"916 29 OFFCURVE",
"920 49 CURVE",
"929 29 OFFCURVE",
"950 5 OFFCURVE",
"977 5 CURVE SMOOTH"
);
},
{
closed = 1;
nodes = (
"389 -193 OFFCURVE",
"436 -32 OFFCURVE",
"436 147 CURVE SMOOTH",
"436 191 OFFCURVE",
"434 235 OFFCURVE",
"429 278 CURVE",
"410 297 OFFCURVE",
"371 314 OFFCURVE",
"347 311 CURVE",
"352 274 OFFCURVE",
"364 211 OFFCURVE",
"364 146 CURVE SMOOTH",
"364 119 OFFCURVE",
"362 91 OFFCURVE",
"356 65 CURVE",
"354 60 OFFCURVE",
"352 49 OFFCURVE",
"341 46 CURVE",
"327 90 OFFCURVE",
"323 139 OFFCURVE",
"323 189 CURVE SMOOTH",
"323 212 OFFCURVE",
"324 235 OFFCURVE",
"325 258 CURVE",
"307 275 OFFCURVE",
"273 281 OFFCURVE",
"259 284 CURVE",
"250 268 OFFCURVE",
"246 245 OFFCURVE",
"246 209 CURVE SMOOTH",
"246 172 OFFCURVE",
"249 134 OFFCURVE",
"258 102 CURVE",
"248 79 OFFCURVE",
"225 39 OFFCURVE",
"189 27 CURVE",
"148 56 OFFCURVE",
"133 131 OFFCURVE",
"133 209 CURVE SMOOTH",
"133 300 OFFCURVE",
"154 393 OFFCURVE",
"179 417 CURVE",
"189 404 OFFCURVE",
"201 361 OFFCURVE",
"201 325 CURVE SMOOTH",
"201 319 OFFCURVE",
"200 312 OFFCURVE",
"200 306 CURVE",
"198 302 OFFCURVE",
"198 295 OFFCURVE",
"207 304 CURVE SMOOTH",
"232 326 OFFCURVE",
"250 354 OFFCURVE",
"250 388 CURVE SMOOTH",
"250 476 OFFCURVE",
"187 491 OFFCURVE",
"145 500 CURVE",
"68 433 OFFCURVE",
"41 317 OFFCURVE",
"42 203 CURVE SMOOTH",
"44 104 OFFCURVE",
"85 1 OFFCURVE",
"191 1 CURVE SMOOTH",
"239 1 OFFCURVE",
"262 35 OFFCURVE",
"271 63 CURVE",
"287 33 OFFCURVE",
"309 12 OFFCURVE",
"343 12 CURVE SMOOTH",
"352 12 OFFCURVE",
"360 20 OFFCURVE",
"364 25 CURVE",
"353 -67 OFFCURVE",
"352 -129 OFFCURVE",
"293 -167 CURVE",
"291 -158 OFFCURVE",
"290 -146 OFFCURVE",
"290 -135 CURVE SMOOTH",
"290 -115 OFFCURVE",
"292 -95 OFFCURVE",
"294 -78 CURVE",
"276 -60 OFFCURVE",
"248 -52 OFFCURVE",
"225 -52 CURVE",
"220 -71 OFFCURVE",
"215 -92 OFFCURVE",
"215 -115 CURVE SMOOTH",
"215 -165 OFFCURVE",
"228 -193 OFFCURVE",
"276 -193 CURVE SMOOTH"
);
},
{
closed = 1;
nodes = (
"514 8 OFFCURVE",
"529 28 OFFCURVE",
"537 54 CURVE SMOOTH",
"544 74 OFFCURVE",
"544 113 OFFCURVE",
"544 136 CURVE",
"550 162 OFFCURVE",
"570 181 OFFCURVE",
"577 201 CURVE",
"581 170 OFFCURVE",
"596 154 OFFCURVE",
"621 154 CURVE SMOOTH",
"628 154 OFFCURVE",
"635 156 OFFCURVE",
"644 158 CURVE",
"642 171 OFFCURVE",
"640 187 OFFCURVE",
"640 203 CURVE SMOOTH",
"640 227 OFFCURVE",
"643 251 OFFCURVE",
"646 271 CURVE",
"637 290 OFFCURVE",
"610 297 OFFCURVE",
"581 300 CURVE",
"575 290 OFFCURVE",
"570 268 OFFCURVE",
"570 256 CURVE",
"563 237 OFFCURVE",
"553 216 OFFCURVE",
"537 186 CURVE",
"534 223 OFFCURVE",
"525 250 OFFCURVE",
"514 268 CURVE SMOOTH",
"507 277 OFFCURVE",
"497 283 OFFCURVE",
"484 285 CURVE SMOOTH",
"473 288 OFFCURVE",
"458 290 OFFCURVE",
"439 291 CURVE",
"470 217 OFFCURVE",
"473 92 OFFCURVE",
"479 9 CURVE",
"482 8 OFFCURVE",
"485 8 OFFCURVE",
"488 8 CURVE SMOOTH"
);
},
{
closed = 1;
nodes = (
"725 152 OFFCURVE",
"732 198 OFFCURVE",
"744 236 CURVE",
"749 227 OFFCURVE",
"756 206 OFFCURVE",
"756 186 CURVE SMOOTH",
"756 151 OFFCURVE",
"747 110 OFFCURVE",
"725 107 CURVE"
);
},
{
closed = 1;
nodes = (
"728 281 OFFCURVE",
"722 282 OFFCURVE",
"714 283 CURVE",
"706 311 LINE",
"717 311 LINE",
"722 299 OFFCURVE",
"728 288 OFFCURVE",
"734 279 CURVE"
);
},
{
closed = 1;
nodes = (
"867 55 OFFCURVE",
"865 75 OFFCURVE",
"865 96 CURVE SMOOTH",
"865 150 OFFCURVE",
"879 210 OFFCURVE",
"895 229 CURVE",
"894 221 OFFCURVE",
"894 209 OFFCURVE",
"894 194 CURVE SMOOTH",
"894 164 OFFCURVE",
"896 123 OFFCURVE",
"904 87 CURVE",
"903 68 OFFCURVE",
"884 48 OFFCURVE",
"873 39 CURVE"
);
},
{
closed = 1;
nodes = (
"1082 256 OFFCURVE",
"1096 339 OFFCURVE",
"1109 396 CURVE",
"1112 382 OFFCURVE",
"1113 365 OFFCURVE",
"1113 345 CURVE SMOOTH",
"1113 289 OFFCURVE",
"1102 217 OFFCURVE",
"1078 183 CURVE"
);
}
);
width = 1226;
}
);
},
